G04 #@! TF.GenerationSoftware,KiCad,Pcbnew,7.0.5-0*
G04 #@! TF.CreationDate,2024-11-07T13:17:23-08:00*
G04 #@! TF.ProjectId,MilkVHat,4d696c6b-5648-4617-942e-6b696361645f,rev?*
G04 #@! TF.SameCoordinates,PX5f5e100PY5f5e100*
G04 #@! TF.FileFunction,Legend,Bot*
G04 #@! TF.FilePolarity,Positive*
%FSLAX46Y46*%
G04 Gerber Fmt 4.6, Leading zero omitted, Abs format (unit mm)*
G04 Created by KiCad (PCBNEW 7.0.5-0) date 2024-11-07 13:17:23*
%MOMM*%
%LPD*%
G01*
G04 APERTURE LIST*
%ADD10C,0.150000*%
%ADD11C,0.250000*%
%ADD12C,0.110000*%
%ADD13C,0.152400*%
%ADD14C,0.151994*%
%ADD15C,0.254000*%
%ADD16C,0.059995*%
%ADD17C,0.300000*%
G04 APERTURE END LIST*
D10*
X42856077Y44630181D02*
X42284649Y44630181D01*
X42570363Y43630181D02*
X42570363Y44630181D01*
X41951315Y43630181D02*
X41951315Y44630181D01*
X41522744Y43630181D02*
X41522744Y44153991D01*
X41522744Y44153991D02*
X41570363Y44249229D01*
X41570363Y44249229D02*
X41665601Y44296848D01*
X41665601Y44296848D02*
X41808458Y44296848D01*
X41808458Y44296848D02*
X41903696Y44249229D01*
X41903696Y44249229D02*
X41951315Y44201610D01*
X41046553Y43630181D02*
X41046553Y44296848D01*
X41046553Y44630181D02*
X41094172Y44582562D01*
X41094172Y44582562D02*
X41046553Y44534943D01*
X41046553Y44534943D02*
X40998934Y44582562D01*
X40998934Y44582562D02*
X41046553Y44630181D01*
X41046553Y44630181D02*
X41046553Y44534943D01*
X40617982Y43677800D02*
X40522744Y43630181D01*
X40522744Y43630181D02*
X40332268Y43630181D01*
X40332268Y43630181D02*
X40237030Y43677800D01*
X40237030Y43677800D02*
X40189411Y43773039D01*
X40189411Y43773039D02*
X40189411Y43820658D01*
X40189411Y43820658D02*
X40237030Y43915896D01*
X40237030Y43915896D02*
X40332268Y43963515D01*
X40332268Y43963515D02*
X40475125Y43963515D01*
X40475125Y43963515D02*
X40570363Y44011134D01*
X40570363Y44011134D02*
X40617982Y44106372D01*
X40617982Y44106372D02*
X40617982Y44153991D01*
X40617982Y44153991D02*
X40570363Y44249229D01*
X40570363Y44249229D02*
X40475125Y44296848D01*
X40475125Y44296848D02*
X40332268Y44296848D01*
X40332268Y44296848D02*
X40237030Y44249229D01*
X39046553Y43677800D02*
X38951315Y43630181D01*
X38951315Y43630181D02*
X38760839Y43630181D01*
X38760839Y43630181D02*
X38665601Y43677800D01*
X38665601Y43677800D02*
X38617982Y43773039D01*
X38617982Y43773039D02*
X38617982Y43820658D01*
X38617982Y43820658D02*
X38665601Y43915896D01*
X38665601Y43915896D02*
X38760839Y43963515D01*
X38760839Y43963515D02*
X38903696Y43963515D01*
X38903696Y43963515D02*
X38998934Y44011134D01*
X38998934Y44011134D02*
X39046553Y44106372D01*
X39046553Y44106372D02*
X39046553Y44153991D01*
X39046553Y44153991D02*
X38998934Y44249229D01*
X38998934Y44249229D02*
X38903696Y44296848D01*
X38903696Y44296848D02*
X38760839Y44296848D01*
X38760839Y44296848D02*
X38665601Y44249229D01*
X38189410Y43630181D02*
X38189410Y44296848D01*
X38189410Y44630181D02*
X38237029Y44582562D01*
X38237029Y44582562D02*
X38189410Y44534943D01*
X38189410Y44534943D02*
X38141791Y44582562D01*
X38141791Y44582562D02*
X38189410Y44630181D01*
X38189410Y44630181D02*
X38189410Y44534943D01*
X37284649Y43630181D02*
X37284649Y44630181D01*
X37284649Y43677800D02*
X37379887Y43630181D01*
X37379887Y43630181D02*
X37570363Y43630181D01*
X37570363Y43630181D02*
X37665601Y43677800D01*
X37665601Y43677800D02*
X37713220Y43725420D01*
X37713220Y43725420D02*
X37760839Y43820658D01*
X37760839Y43820658D02*
X37760839Y44106372D01*
X37760839Y44106372D02*
X37713220Y44201610D01*
X37713220Y44201610D02*
X37665601Y44249229D01*
X37665601Y44249229D02*
X37570363Y44296848D01*
X37570363Y44296848D02*
X37379887Y44296848D01*
X37379887Y44296848D02*
X37284649Y44249229D01*
X36427506Y43677800D02*
X36522744Y43630181D01*
X36522744Y43630181D02*
X36713220Y43630181D01*
X36713220Y43630181D02*
X36808458Y43677800D01*
X36808458Y43677800D02*
X36856077Y43773039D01*
X36856077Y43773039D02*
X36856077Y44153991D01*
X36856077Y44153991D02*
X36808458Y44249229D01*
X36808458Y44249229D02*
X36713220Y44296848D01*
X36713220Y44296848D02*
X36522744Y44296848D01*
X36522744Y44296848D02*
X36427506Y44249229D01*
X36427506Y44249229D02*
X36379887Y44153991D01*
X36379887Y44153991D02*
X36379887Y44058753D01*
X36379887Y44058753D02*
X36856077Y43963515D01*
X34760839Y43630181D02*
X34760839Y44630181D01*
X34760839Y43677800D02*
X34856077Y43630181D01*
X34856077Y43630181D02*
X35046553Y43630181D01*
X35046553Y43630181D02*
X35141791Y43677800D01*
X35141791Y43677800D02*
X35189410Y43725420D01*
X35189410Y43725420D02*
X35237029Y43820658D01*
X35237029Y43820658D02*
X35237029Y44106372D01*
X35237029Y44106372D02*
X35189410Y44201610D01*
X35189410Y44201610D02*
X35141791Y44249229D01*
X35141791Y44249229D02*
X35046553Y44296848D01*
X35046553Y44296848D02*
X34856077Y44296848D01*
X34856077Y44296848D02*
X34760839Y44249229D01*
X34141791Y43630181D02*
X34237029Y43677800D01*
X34237029Y43677800D02*
X34284648Y43725420D01*
X34284648Y43725420D02*
X34332267Y43820658D01*
X34332267Y43820658D02*
X34332267Y44106372D01*
X34332267Y44106372D02*
X34284648Y44201610D01*
X34284648Y44201610D02*
X34237029Y44249229D01*
X34237029Y44249229D02*
X34141791Y44296848D01*
X34141791Y44296848D02*
X33998934Y44296848D01*
X33998934Y44296848D02*
X33903696Y44249229D01*
X33903696Y44249229D02*
X33856077Y44201610D01*
X33856077Y44201610D02*
X33808458Y44106372D01*
X33808458Y44106372D02*
X33808458Y43820658D01*
X33808458Y43820658D02*
X33856077Y43725420D01*
X33856077Y43725420D02*
X33903696Y43677800D01*
X33903696Y43677800D02*
X33998934Y43630181D01*
X33998934Y43630181D02*
X34141791Y43630181D01*
X33475124Y44296848D02*
X33284648Y43630181D01*
X33284648Y43630181D02*
X33094172Y44106372D01*
X33094172Y44106372D02*
X32903696Y43630181D01*
X32903696Y43630181D02*
X32713220Y44296848D01*
X32332267Y44296848D02*
X32332267Y43630181D01*
X32332267Y44201610D02*
X32284648Y44249229D01*
X32284648Y44249229D02*
X32189410Y44296848D01*
X32189410Y44296848D02*
X32046553Y44296848D01*
X32046553Y44296848D02*
X31951315Y44249229D01*
X31951315Y44249229D02*
X31903696Y44153991D01*
X31903696Y44153991D02*
X31903696Y43630181D01*
X31427505Y43725420D02*
X31379886Y43677800D01*
X31379886Y43677800D02*
X31427505Y43630181D01*
X31427505Y43630181D02*
X31475124Y43677800D01*
X31475124Y43677800D02*
X31427505Y43725420D01*
X31427505Y43725420D02*
X31427505Y43630181D01*
X30951315Y43725420D02*
X30903696Y43677800D01*
X30903696Y43677800D02*
X30951315Y43630181D01*
X30951315Y43630181D02*
X30998934Y43677800D01*
X30998934Y43677800D02*
X30951315Y43725420D01*
X30951315Y43725420D02*
X30951315Y43630181D01*
X30475125Y43725420D02*
X30427506Y43677800D01*
X30427506Y43677800D02*
X30475125Y43630181D01*
X30475125Y43630181D02*
X30522744Y43677800D01*
X30522744Y43677800D02*
X30475125Y43725420D01*
X30475125Y43725420D02*
X30475125Y43630181D01*
D11*
X39183859Y1541096D02*
X39660050Y1541096D01*
X39660050Y1541096D02*
X39660050Y4398239D01*
X39660050Y4398239D02*
X39183859Y4398239D01*
X38041003Y4207762D02*
X37850526Y4207762D01*
X37850526Y4207762D02*
X37660050Y4112524D01*
X37660050Y4112524D02*
X37564812Y4017286D01*
X37564812Y4017286D02*
X37469574Y3826810D01*
X37469574Y3826810D02*
X37374336Y3445858D01*
X37374336Y3445858D02*
X37374336Y2969667D01*
X37374336Y2969667D02*
X37469574Y2588715D01*
X37469574Y2588715D02*
X37564812Y2398239D01*
X37564812Y2398239D02*
X37660050Y2303000D01*
X37660050Y2303000D02*
X37850526Y2207762D01*
X37850526Y2207762D02*
X38041003Y2207762D01*
X38041003Y2207762D02*
X38231479Y2303000D01*
X38231479Y2303000D02*
X38326717Y2398239D01*
X38326717Y2398239D02*
X38421955Y2588715D01*
X38421955Y2588715D02*
X38517193Y2969667D01*
X38517193Y2969667D02*
X38517193Y3445858D01*
X38517193Y3445858D02*
X38421955Y3826810D01*
X38421955Y3826810D02*
X38326717Y4017286D01*
X38326717Y4017286D02*
X38231479Y4112524D01*
X38231479Y4112524D02*
X38041003Y4207762D01*
X36707669Y1541096D02*
X36231479Y1541096D01*
X36231479Y1541096D02*
X36231479Y4398239D01*
X36231479Y4398239D02*
X36707669Y4398239D01*
D12*
X35547393Y4336959D02*
X35242631Y4336959D01*
X35433107Y4603625D02*
X35433107Y3917911D01*
X35433107Y3917911D02*
X35395012Y3841720D01*
X35395012Y3841720D02*
X35318822Y3803625D01*
X35318822Y3803625D02*
X35242631Y3803625D01*
X34975964Y3803625D02*
X34975964Y4603625D01*
X34633107Y3803625D02*
X34633107Y4222673D01*
X34633107Y4222673D02*
X34671202Y4298863D01*
X34671202Y4298863D02*
X34747393Y4336959D01*
X34747393Y4336959D02*
X34861679Y4336959D01*
X34861679Y4336959D02*
X34937869Y4298863D01*
X34937869Y4298863D02*
X34975964Y4260768D01*
D10*
X23683333Y39168990D02*
X24016666Y39168990D01*
X24016666Y38645180D02*
X24016666Y39645180D01*
X24016666Y39645180D02*
X23540476Y39645180D01*
X22826190Y39168990D02*
X22683333Y39121371D01*
X22683333Y39121371D02*
X22635714Y39073752D01*
X22635714Y39073752D02*
X22588095Y38978514D01*
X22588095Y38978514D02*
X22588095Y38835657D01*
X22588095Y38835657D02*
X22635714Y38740419D01*
X22635714Y38740419D02*
X22683333Y38692799D01*
X22683333Y38692799D02*
X22778571Y38645180D01*
X22778571Y38645180D02*
X23159523Y38645180D01*
X23159523Y38645180D02*
X23159523Y39645180D01*
X23159523Y39645180D02*
X22826190Y39645180D01*
X22826190Y39645180D02*
X22730952Y39597561D01*
X22730952Y39597561D02*
X22683333Y39549942D01*
X22683333Y39549942D02*
X22635714Y39454704D01*
X22635714Y39454704D02*
X22635714Y39359466D01*
X22635714Y39359466D02*
X22683333Y39264228D01*
X22683333Y39264228D02*
X22730952Y39216609D01*
X22730952Y39216609D02*
X22826190Y39168990D01*
X22826190Y39168990D02*
X23159523Y39168990D01*
X21635714Y38645180D02*
X22207142Y38645180D01*
X21921428Y38645180D02*
X21921428Y39645180D01*
X21921428Y39645180D02*
X22016666Y39502323D01*
X22016666Y39502323D02*
X22111904Y39407085D01*
X22111904Y39407085D02*
X22207142Y39359466D01*
X18216666Y34240419D02*
X18264285Y34192799D01*
X18264285Y34192799D02*
X18407142Y34145180D01*
X18407142Y34145180D02*
X18502380Y34145180D01*
X18502380Y34145180D02*
X18645237Y34192799D01*
X18645237Y34192799D02*
X18740475Y34288038D01*
X18740475Y34288038D02*
X18788094Y34383276D01*
X18788094Y34383276D02*
X18835713Y34573752D01*
X18835713Y34573752D02*
X18835713Y34716609D01*
X18835713Y34716609D02*
X18788094Y34907085D01*
X18788094Y34907085D02*
X18740475Y35002323D01*
X18740475Y35002323D02*
X18645237Y35097561D01*
X18645237Y35097561D02*
X18502380Y35145180D01*
X18502380Y35145180D02*
X18407142Y35145180D01*
X18407142Y35145180D02*
X18264285Y35097561D01*
X18264285Y35097561D02*
X18216666Y35049942D01*
X17883332Y35145180D02*
X17264285Y35145180D01*
X17264285Y35145180D02*
X17597618Y34764228D01*
X17597618Y34764228D02*
X17454761Y34764228D01*
X17454761Y34764228D02*
X17359523Y34716609D01*
X17359523Y34716609D02*
X17311904Y34668990D01*
X17311904Y34668990D02*
X17264285Y34573752D01*
X17264285Y34573752D02*
X17264285Y34335657D01*
X17264285Y34335657D02*
X17311904Y34240419D01*
X17311904Y34240419D02*
X17359523Y34192799D01*
X17359523Y34192799D02*
X17454761Y34145180D01*
X17454761Y34145180D02*
X17740475Y34145180D01*
X17740475Y34145180D02*
X17835713Y34192799D01*
X17835713Y34192799D02*
X17883332Y34240419D01*
X24816666Y24645180D02*
X25149999Y25121371D01*
X25388094Y24645180D02*
X25388094Y25645180D01*
X25388094Y25645180D02*
X25007142Y25645180D01*
X25007142Y25645180D02*
X24911904Y25597561D01*
X24911904Y25597561D02*
X24864285Y25549942D01*
X24864285Y25549942D02*
X24816666Y25454704D01*
X24816666Y25454704D02*
X24816666Y25311847D01*
X24816666Y25311847D02*
X24864285Y25216609D01*
X24864285Y25216609D02*
X24911904Y25168990D01*
X24911904Y25168990D02*
X25007142Y25121371D01*
X25007142Y25121371D02*
X25388094Y25121371D01*
X24483332Y25645180D02*
X23864285Y25645180D01*
X23864285Y25645180D02*
X24197618Y25264228D01*
X24197618Y25264228D02*
X24054761Y25264228D01*
X24054761Y25264228D02*
X23959523Y25216609D01*
X23959523Y25216609D02*
X23911904Y25168990D01*
X23911904Y25168990D02*
X23864285Y25073752D01*
X23864285Y25073752D02*
X23864285Y24835657D01*
X23864285Y24835657D02*
X23911904Y24740419D01*
X23911904Y24740419D02*
X23959523Y24692799D01*
X23959523Y24692799D02*
X24054761Y24645180D01*
X24054761Y24645180D02*
X24340475Y24645180D01*
X24340475Y24645180D02*
X24435713Y24692799D01*
X24435713Y24692799D02*
X24483332Y24740419D01*
X19016666Y18945181D02*
X19349999Y19421372D01*
X19588094Y18945181D02*
X19588094Y19945181D01*
X19588094Y19945181D02*
X19207142Y19945181D01*
X19207142Y19945181D02*
X19111904Y19897562D01*
X19111904Y19897562D02*
X19064285Y19849943D01*
X19064285Y19849943D02*
X19016666Y19754705D01*
X19016666Y19754705D02*
X19016666Y19611848D01*
X19016666Y19611848D02*
X19064285Y19516610D01*
X19064285Y19516610D02*
X19111904Y19468991D01*
X19111904Y19468991D02*
X19207142Y19421372D01*
X19207142Y19421372D02*
X19588094Y19421372D01*
X18064285Y18945181D02*
X18635713Y18945181D01*
X18349999Y18945181D02*
X18349999Y19945181D01*
X18349999Y19945181D02*
X18445237Y19802324D01*
X18445237Y19802324D02*
X18540475Y19707086D01*
X18540475Y19707086D02*
X18635713Y19659467D01*
X26716666Y12690420D02*
X26764285Y12642800D01*
X26764285Y12642800D02*
X26907142Y12595181D01*
X26907142Y12595181D02*
X27002380Y12595181D01*
X27002380Y12595181D02*
X27145237Y12642800D01*
X27145237Y12642800D02*
X27240475Y12738039D01*
X27240475Y12738039D02*
X27288094Y12833277D01*
X27288094Y12833277D02*
X27335713Y13023753D01*
X27335713Y13023753D02*
X27335713Y13166610D01*
X27335713Y13166610D02*
X27288094Y13357086D01*
X27288094Y13357086D02*
X27240475Y13452324D01*
X27240475Y13452324D02*
X27145237Y13547562D01*
X27145237Y13547562D02*
X27002380Y13595181D01*
X27002380Y13595181D02*
X26907142Y13595181D01*
X26907142Y13595181D02*
X26764285Y13547562D01*
X26764285Y13547562D02*
X26716666Y13499943D01*
X25811904Y13595181D02*
X26288094Y13595181D01*
X26288094Y13595181D02*
X26335713Y13118991D01*
X26335713Y13118991D02*
X26288094Y13166610D01*
X26288094Y13166610D02*
X26192856Y13214229D01*
X26192856Y13214229D02*
X25954761Y13214229D01*
X25954761Y13214229D02*
X25859523Y13166610D01*
X25859523Y13166610D02*
X25811904Y13118991D01*
X25811904Y13118991D02*
X25764285Y13023753D01*
X25764285Y13023753D02*
X25764285Y12785658D01*
X25764285Y12785658D02*
X25811904Y12690420D01*
X25811904Y12690420D02*
X25859523Y12642800D01*
X25859523Y12642800D02*
X25954761Y12595181D01*
X25954761Y12595181D02*
X26192856Y12595181D01*
X26192856Y12595181D02*
X26288094Y12642800D01*
X26288094Y12642800D02*
X26335713Y12690420D01*
X10966666Y19490419D02*
X11014285Y19442799D01*
X11014285Y19442799D02*
X11157142Y19395180D01*
X11157142Y19395180D02*
X11252380Y19395180D01*
X11252380Y19395180D02*
X11395237Y19442799D01*
X11395237Y19442799D02*
X11490475Y19538038D01*
X11490475Y19538038D02*
X11538094Y19633276D01*
X11538094Y19633276D02*
X11585713Y19823752D01*
X11585713Y19823752D02*
X11585713Y19966609D01*
X11585713Y19966609D02*
X11538094Y20157085D01*
X11538094Y20157085D02*
X11490475Y20252323D01*
X11490475Y20252323D02*
X11395237Y20347561D01*
X11395237Y20347561D02*
X11252380Y20395180D01*
X11252380Y20395180D02*
X11157142Y20395180D01*
X11157142Y20395180D02*
X11014285Y20347561D01*
X11014285Y20347561D02*
X10966666Y20299942D01*
X10585713Y20299942D02*
X10538094Y20347561D01*
X10538094Y20347561D02*
X10442856Y20395180D01*
X10442856Y20395180D02*
X10204761Y20395180D01*
X10204761Y20395180D02*
X10109523Y20347561D01*
X10109523Y20347561D02*
X10061904Y20299942D01*
X10061904Y20299942D02*
X10014285Y20204704D01*
X10014285Y20204704D02*
X10014285Y20109466D01*
X10014285Y20109466D02*
X10061904Y19966609D01*
X10061904Y19966609D02*
X10633332Y19395180D01*
X10633332Y19395180D02*
X10014285Y19395180D01*
X10616666Y12595180D02*
X11092856Y12595180D01*
X11092856Y12595180D02*
X11092856Y13595180D01*
X9759523Y12595180D02*
X10330951Y12595180D01*
X10045237Y12595180D02*
X10045237Y13595180D01*
X10045237Y13595180D02*
X10140475Y13452323D01*
X10140475Y13452323D02*
X10235713Y13357085D01*
X10235713Y13357085D02*
X10330951Y13309466D01*
X25309580Y20242858D02*
X25357200Y20290477D01*
X25357200Y20290477D02*
X25404819Y20433334D01*
X25404819Y20433334D02*
X25404819Y20528572D01*
X25404819Y20528572D02*
X25357200Y20671429D01*
X25357200Y20671429D02*
X25261961Y20766667D01*
X25261961Y20766667D02*
X25166723Y20814286D01*
X25166723Y20814286D02*
X24976247Y20861905D01*
X24976247Y20861905D02*
X24833390Y20861905D01*
X24833390Y20861905D02*
X24642914Y20814286D01*
X24642914Y20814286D02*
X24547676Y20766667D01*
X24547676Y20766667D02*
X24452438Y20671429D01*
X24452438Y20671429D02*
X24404819Y20528572D01*
X24404819Y20528572D02*
X24404819Y20433334D01*
X24404819Y20433334D02*
X24452438Y20290477D01*
X24452438Y20290477D02*
X24500057Y20242858D01*
X25404819Y19290477D02*
X25404819Y19861905D01*
X25404819Y19576191D02*
X24404819Y19576191D01*
X24404819Y19576191D02*
X24547676Y19671429D01*
X24547676Y19671429D02*
X24642914Y19766667D01*
X24642914Y19766667D02*
X24690533Y19861905D01*
X24404819Y18671429D02*
X24404819Y18576191D01*
X24404819Y18576191D02*
X24452438Y18480953D01*
X24452438Y18480953D02*
X24500057Y18433334D01*
X24500057Y18433334D02*
X24595295Y18385715D01*
X24595295Y18385715D02*
X24785771Y18338096D01*
X24785771Y18338096D02*
X25023866Y18338096D01*
X25023866Y18338096D02*
X25214342Y18385715D01*
X25214342Y18385715D02*
X25309580Y18433334D01*
X25309580Y18433334D02*
X25357200Y18480953D01*
X25357200Y18480953D02*
X25404819Y18576191D01*
X25404819Y18576191D02*
X25404819Y18671429D01*
X25404819Y18671429D02*
X25357200Y18766667D01*
X25357200Y18766667D02*
X25309580Y18814286D01*
X25309580Y18814286D02*
X25214342Y18861905D01*
X25214342Y18861905D02*
X25023866Y18909524D01*
X25023866Y18909524D02*
X24785771Y18909524D01*
X24785771Y18909524D02*
X24595295Y18861905D01*
X24595295Y18861905D02*
X24500057Y18814286D01*
X24500057Y18814286D02*
X24452438Y18766667D01*
X24452438Y18766667D02*
X24404819Y18671429D01*
X11561904Y23545180D02*
X11561904Y22735657D01*
X11561904Y22735657D02*
X11514285Y22640419D01*
X11514285Y22640419D02*
X11466666Y22592799D01*
X11466666Y22592799D02*
X11371428Y22545180D01*
X11371428Y22545180D02*
X11180952Y22545180D01*
X11180952Y22545180D02*
X11085714Y22592799D01*
X11085714Y22592799D02*
X11038095Y22640419D01*
X11038095Y22640419D02*
X10990476Y22735657D01*
X10990476Y22735657D02*
X10990476Y23545180D01*
X9990476Y22545180D02*
X10561904Y22545180D01*
X10276190Y22545180D02*
X10276190Y23545180D01*
X10276190Y23545180D02*
X10371428Y23402323D01*
X10371428Y23402323D02*
X10466666Y23307085D01*
X10466666Y23307085D02*
X10561904Y23259466D01*
X25711904Y31095180D02*
X25711904Y30285657D01*
X25711904Y30285657D02*
X25664285Y30190419D01*
X25664285Y30190419D02*
X25616666Y30142799D01*
X25616666Y30142799D02*
X25521428Y30095180D01*
X25521428Y30095180D02*
X25330952Y30095180D01*
X25330952Y30095180D02*
X25235714Y30142799D01*
X25235714Y30142799D02*
X25188095Y30190419D01*
X25188095Y30190419D02*
X25140476Y30285657D01*
X25140476Y30285657D02*
X25140476Y31095180D01*
X24711904Y30999942D02*
X24664285Y31047561D01*
X24664285Y31047561D02*
X24569047Y31095180D01*
X24569047Y31095180D02*
X24330952Y31095180D01*
X24330952Y31095180D02*
X24235714Y31047561D01*
X24235714Y31047561D02*
X24188095Y30999942D01*
X24188095Y30999942D02*
X24140476Y30904704D01*
X24140476Y30904704D02*
X24140476Y30809466D01*
X24140476Y30809466D02*
X24188095Y30666609D01*
X24188095Y30666609D02*
X24759523Y30095180D01*
X24759523Y30095180D02*
X24140476Y30095180D01*
X39233333Y49595181D02*
X39233333Y48880896D01*
X39233333Y48880896D02*
X39280952Y48738039D01*
X39280952Y48738039D02*
X39376190Y48642800D01*
X39376190Y48642800D02*
X39519047Y48595181D01*
X39519047Y48595181D02*
X39614285Y48595181D01*
X38804761Y49499943D02*
X38757142Y49547562D01*
X38757142Y49547562D02*
X38661904Y49595181D01*
X38661904Y49595181D02*
X38423809Y49595181D01*
X38423809Y49595181D02*
X38328571Y49547562D01*
X38328571Y49547562D02*
X38280952Y49499943D01*
X38280952Y49499943D02*
X38233333Y49404705D01*
X38233333Y49404705D02*
X38233333Y49309467D01*
X38233333Y49309467D02*
X38280952Y49166610D01*
X38280952Y49166610D02*
X38852380Y48595181D01*
X38852380Y48595181D02*
X38233333Y48595181D01*
X23683333Y36268990D02*
X24016666Y36268990D01*
X24016666Y35745180D02*
X24016666Y36745180D01*
X24016666Y36745180D02*
X23540476Y36745180D01*
X22826190Y36268990D02*
X22683333Y36221371D01*
X22683333Y36221371D02*
X22635714Y36173752D01*
X22635714Y36173752D02*
X22588095Y36078514D01*
X22588095Y36078514D02*
X22588095Y35935657D01*
X22588095Y35935657D02*
X22635714Y35840419D01*
X22635714Y35840419D02*
X22683333Y35792799D01*
X22683333Y35792799D02*
X22778571Y35745180D01*
X22778571Y35745180D02*
X23159523Y35745180D01*
X23159523Y35745180D02*
X23159523Y36745180D01*
X23159523Y36745180D02*
X22826190Y36745180D01*
X22826190Y36745180D02*
X22730952Y36697561D01*
X22730952Y36697561D02*
X22683333Y36649942D01*
X22683333Y36649942D02*
X22635714Y36554704D01*
X22635714Y36554704D02*
X22635714Y36459466D01*
X22635714Y36459466D02*
X22683333Y36364228D01*
X22683333Y36364228D02*
X22730952Y36316609D01*
X22730952Y36316609D02*
X22826190Y36268990D01*
X22826190Y36268990D02*
X23159523Y36268990D01*
X22207142Y36649942D02*
X22159523Y36697561D01*
X22159523Y36697561D02*
X22064285Y36745180D01*
X22064285Y36745180D02*
X21826190Y36745180D01*
X21826190Y36745180D02*
X21730952Y36697561D01*
X21730952Y36697561D02*
X21683333Y36649942D01*
X21683333Y36649942D02*
X21635714Y36554704D01*
X21635714Y36554704D02*
X21635714Y36459466D01*
X21635714Y36459466D02*
X21683333Y36316609D01*
X21683333Y36316609D02*
X22254761Y35745180D01*
X22254761Y35745180D02*
X21635714Y35745180D01*
X29116666Y38890420D02*
X29164285Y38842800D01*
X29164285Y38842800D02*
X29307142Y38795181D01*
X29307142Y38795181D02*
X29402380Y38795181D01*
X29402380Y38795181D02*
X29545237Y38842800D01*
X29545237Y38842800D02*
X29640475Y38938039D01*
X29640475Y38938039D02*
X29688094Y39033277D01*
X29688094Y39033277D02*
X29735713Y39223753D01*
X29735713Y39223753D02*
X29735713Y39366610D01*
X29735713Y39366610D02*
X29688094Y39557086D01*
X29688094Y39557086D02*
X29640475Y39652324D01*
X29640475Y39652324D02*
X29545237Y39747562D01*
X29545237Y39747562D02*
X29402380Y39795181D01*
X29402380Y39795181D02*
X29307142Y39795181D01*
X29307142Y39795181D02*
X29164285Y39747562D01*
X29164285Y39747562D02*
X29116666Y39699943D01*
X28640475Y38795181D02*
X28449999Y38795181D01*
X28449999Y38795181D02*
X28354761Y38842800D01*
X28354761Y38842800D02*
X28307142Y38890420D01*
X28307142Y38890420D02*
X28211904Y39033277D01*
X28211904Y39033277D02*
X28164285Y39223753D01*
X28164285Y39223753D02*
X28164285Y39604705D01*
X28164285Y39604705D02*
X28211904Y39699943D01*
X28211904Y39699943D02*
X28259523Y39747562D01*
X28259523Y39747562D02*
X28354761Y39795181D01*
X28354761Y39795181D02*
X28545237Y39795181D01*
X28545237Y39795181D02*
X28640475Y39747562D01*
X28640475Y39747562D02*
X28688094Y39699943D01*
X28688094Y39699943D02*
X28735713Y39604705D01*
X28735713Y39604705D02*
X28735713Y39366610D01*
X28735713Y39366610D02*
X28688094Y39271372D01*
X28688094Y39271372D02*
X28640475Y39223753D01*
X28640475Y39223753D02*
X28545237Y39176134D01*
X28545237Y39176134D02*
X28354761Y39176134D01*
X28354761Y39176134D02*
X28259523Y39223753D01*
X28259523Y39223753D02*
X28211904Y39271372D01*
X28211904Y39271372D02*
X28164285Y39366610D01*
X25409580Y22466667D02*
X25457200Y22514286D01*
X25457200Y22514286D02*
X25504819Y22657143D01*
X25504819Y22657143D02*
X25504819Y22752381D01*
X25504819Y22752381D02*
X25457200Y22895238D01*
X25457200Y22895238D02*
X25361961Y22990476D01*
X25361961Y22990476D02*
X25266723Y23038095D01*
X25266723Y23038095D02*
X25076247Y23085714D01*
X25076247Y23085714D02*
X24933390Y23085714D01*
X24933390Y23085714D02*
X24742914Y23038095D01*
X24742914Y23038095D02*
X24647676Y22990476D01*
X24647676Y22990476D02*
X24552438Y22895238D01*
X24552438Y22895238D02*
X24504819Y22752381D01*
X24504819Y22752381D02*
X24504819Y22657143D01*
X24504819Y22657143D02*
X24552438Y22514286D01*
X24552438Y22514286D02*
X24600057Y22466667D01*
X24504819Y22133333D02*
X24504819Y21466667D01*
X24504819Y21466667D02*
X25504819Y21895238D01*
X22366666Y12790420D02*
X22414285Y12742800D01*
X22414285Y12742800D02*
X22557142Y12695181D01*
X22557142Y12695181D02*
X22652380Y12695181D01*
X22652380Y12695181D02*
X22795237Y12742800D01*
X22795237Y12742800D02*
X22890475Y12838039D01*
X22890475Y12838039D02*
X22938094Y12933277D01*
X22938094Y12933277D02*
X22985713Y13123753D01*
X22985713Y13123753D02*
X22985713Y13266610D01*
X22985713Y13266610D02*
X22938094Y13457086D01*
X22938094Y13457086D02*
X22890475Y13552324D01*
X22890475Y13552324D02*
X22795237Y13647562D01*
X22795237Y13647562D02*
X22652380Y13695181D01*
X22652380Y13695181D02*
X22557142Y13695181D01*
X22557142Y13695181D02*
X22414285Y13647562D01*
X22414285Y13647562D02*
X22366666Y13599943D01*
X21509523Y13361848D02*
X21509523Y12695181D01*
X21747618Y13742800D02*
X21985713Y13028515D01*
X21985713Y13028515D02*
X21366666Y13028515D01*
X12466666Y28445180D02*
X12799999Y28921371D01*
X13038094Y28445180D02*
X13038094Y29445180D01*
X13038094Y29445180D02*
X12657142Y29445180D01*
X12657142Y29445180D02*
X12561904Y29397561D01*
X12561904Y29397561D02*
X12514285Y29349942D01*
X12514285Y29349942D02*
X12466666Y29254704D01*
X12466666Y29254704D02*
X12466666Y29111847D01*
X12466666Y29111847D02*
X12514285Y29016609D01*
X12514285Y29016609D02*
X12561904Y28968990D01*
X12561904Y28968990D02*
X12657142Y28921371D01*
X12657142Y28921371D02*
X13038094Y28921371D01*
X11609523Y29111847D02*
X11609523Y28445180D01*
X11847618Y29492799D02*
X12085713Y28778514D01*
X12085713Y28778514D02*
X11466666Y28778514D01*
X17466666Y23545180D02*
X17799999Y24021371D01*
X18038094Y23545180D02*
X18038094Y24545180D01*
X18038094Y24545180D02*
X17657142Y24545180D01*
X17657142Y24545180D02*
X17561904Y24497561D01*
X17561904Y24497561D02*
X17514285Y24449942D01*
X17514285Y24449942D02*
X17466666Y24354704D01*
X17466666Y24354704D02*
X17466666Y24211847D01*
X17466666Y24211847D02*
X17514285Y24116609D01*
X17514285Y24116609D02*
X17561904Y24068990D01*
X17561904Y24068990D02*
X17657142Y24021371D01*
X17657142Y24021371D02*
X18038094Y24021371D01*
X17085713Y24449942D02*
X17038094Y24497561D01*
X17038094Y24497561D02*
X16942856Y24545180D01*
X16942856Y24545180D02*
X16704761Y24545180D01*
X16704761Y24545180D02*
X16609523Y24497561D01*
X16609523Y24497561D02*
X16561904Y24449942D01*
X16561904Y24449942D02*
X16514285Y24354704D01*
X16514285Y24354704D02*
X16514285Y24259466D01*
X16514285Y24259466D02*
X16561904Y24116609D01*
X16561904Y24116609D02*
X17133332Y23545180D01*
X17133332Y23545180D02*
X16514285Y23545180D01*
X19316666Y26245180D02*
X19649999Y26721371D01*
X19888094Y26245180D02*
X19888094Y27245180D01*
X19888094Y27245180D02*
X19507142Y27245180D01*
X19507142Y27245180D02*
X19411904Y27197561D01*
X19411904Y27197561D02*
X19364285Y27149942D01*
X19364285Y27149942D02*
X19316666Y27054704D01*
X19316666Y27054704D02*
X19316666Y26911847D01*
X19316666Y26911847D02*
X19364285Y26816609D01*
X19364285Y26816609D02*
X19411904Y26768990D01*
X19411904Y26768990D02*
X19507142Y26721371D01*
X19507142Y26721371D02*
X19888094Y26721371D01*
X18411904Y27245180D02*
X18888094Y27245180D01*
X18888094Y27245180D02*
X18935713Y26768990D01*
X18935713Y26768990D02*
X18888094Y26816609D01*
X18888094Y26816609D02*
X18792856Y26864228D01*
X18792856Y26864228D02*
X18554761Y26864228D01*
X18554761Y26864228D02*
X18459523Y26816609D01*
X18459523Y26816609D02*
X18411904Y26768990D01*
X18411904Y26768990D02*
X18364285Y26673752D01*
X18364285Y26673752D02*
X18364285Y26435657D01*
X18364285Y26435657D02*
X18411904Y26340419D01*
X18411904Y26340419D02*
X18459523Y26292799D01*
X18459523Y26292799D02*
X18554761Y26245180D01*
X18554761Y26245180D02*
X18792856Y26245180D01*
X18792856Y26245180D02*
X18888094Y26292799D01*
X18888094Y26292799D02*
X18935713Y26340419D01*
X15666666Y30740419D02*
X15714285Y30692799D01*
X15714285Y30692799D02*
X15857142Y30645180D01*
X15857142Y30645180D02*
X15952380Y30645180D01*
X15952380Y30645180D02*
X16095237Y30692799D01*
X16095237Y30692799D02*
X16190475Y30788038D01*
X16190475Y30788038D02*
X16238094Y30883276D01*
X16238094Y30883276D02*
X16285713Y31073752D01*
X16285713Y31073752D02*
X16285713Y31216609D01*
X16285713Y31216609D02*
X16238094Y31407085D01*
X16238094Y31407085D02*
X16190475Y31502323D01*
X16190475Y31502323D02*
X16095237Y31597561D01*
X16095237Y31597561D02*
X15952380Y31645180D01*
X15952380Y31645180D02*
X15857142Y31645180D01*
X15857142Y31645180D02*
X15714285Y31597561D01*
X15714285Y31597561D02*
X15666666Y31549942D01*
X14809523Y31645180D02*
X14999999Y31645180D01*
X14999999Y31645180D02*
X15095237Y31597561D01*
X15095237Y31597561D02*
X15142856Y31549942D01*
X15142856Y31549942D02*
X15238094Y31407085D01*
X15238094Y31407085D02*
X15285713Y31216609D01*
X15285713Y31216609D02*
X15285713Y30835657D01*
X15285713Y30835657D02*
X15238094Y30740419D01*
X15238094Y30740419D02*
X15190475Y30692799D01*
X15190475Y30692799D02*
X15095237Y30645180D01*
X15095237Y30645180D02*
X14904761Y30645180D01*
X14904761Y30645180D02*
X14809523Y30692799D01*
X14809523Y30692799D02*
X14761904Y30740419D01*
X14761904Y30740419D02*
X14714285Y30835657D01*
X14714285Y30835657D02*
X14714285Y31073752D01*
X14714285Y31073752D02*
X14761904Y31168990D01*
X14761904Y31168990D02*
X14809523Y31216609D01*
X14809523Y31216609D02*
X14904761Y31264228D01*
X14904761Y31264228D02*
X15095237Y31264228D01*
X15095237Y31264228D02*
X15190475Y31216609D01*
X15190475Y31216609D02*
X15238094Y31168990D01*
X15238094Y31168990D02*
X15285713Y31073752D01*
X4633333Y8395181D02*
X4633333Y7680896D01*
X4633333Y7680896D02*
X4680952Y7538039D01*
X4680952Y7538039D02*
X4776190Y7442800D01*
X4776190Y7442800D02*
X4919047Y7395181D01*
X4919047Y7395181D02*
X5014285Y7395181D01*
X3633333Y7395181D02*
X4204761Y7395181D01*
X3919047Y7395181D02*
X3919047Y8395181D01*
X3919047Y8395181D02*
X4014285Y8252324D01*
X4014285Y8252324D02*
X4109523Y8157086D01*
X4109523Y8157086D02*
X4204761Y8109467D01*
X14416666Y27490419D02*
X14464285Y27442799D01*
X14464285Y27442799D02*
X14607142Y27395180D01*
X14607142Y27395180D02*
X14702380Y27395180D01*
X14702380Y27395180D02*
X14845237Y27442799D01*
X14845237Y27442799D02*
X14940475Y27538038D01*
X14940475Y27538038D02*
X14988094Y27633276D01*
X14988094Y27633276D02*
X15035713Y27823752D01*
X15035713Y27823752D02*
X15035713Y27966609D01*
X15035713Y27966609D02*
X14988094Y28157085D01*
X14988094Y28157085D02*
X14940475Y28252323D01*
X14940475Y28252323D02*
X14845237Y28347561D01*
X14845237Y28347561D02*
X14702380Y28395180D01*
X14702380Y28395180D02*
X14607142Y28395180D01*
X14607142Y28395180D02*
X14464285Y28347561D01*
X14464285Y28347561D02*
X14416666Y28299942D01*
X13464285Y27395180D02*
X14035713Y27395180D01*
X13749999Y27395180D02*
X13749999Y28395180D01*
X13749999Y28395180D02*
X13845237Y28252323D01*
X13845237Y28252323D02*
X13940475Y28157085D01*
X13940475Y28157085D02*
X14035713Y28109466D01*
X29316666Y33590419D02*
X29364285Y33542799D01*
X29364285Y33542799D02*
X29507142Y33495180D01*
X29507142Y33495180D02*
X29602380Y33495180D01*
X29602380Y33495180D02*
X29745237Y33542799D01*
X29745237Y33542799D02*
X29840475Y33638038D01*
X29840475Y33638038D02*
X29888094Y33733276D01*
X29888094Y33733276D02*
X29935713Y33923752D01*
X29935713Y33923752D02*
X29935713Y34066609D01*
X29935713Y34066609D02*
X29888094Y34257085D01*
X29888094Y34257085D02*
X29840475Y34352323D01*
X29840475Y34352323D02*
X29745237Y34447561D01*
X29745237Y34447561D02*
X29602380Y34495180D01*
X29602380Y34495180D02*
X29507142Y34495180D01*
X29507142Y34495180D02*
X29364285Y34447561D01*
X29364285Y34447561D02*
X29316666Y34399942D01*
X28745237Y34066609D02*
X28840475Y34114228D01*
X28840475Y34114228D02*
X28888094Y34161847D01*
X28888094Y34161847D02*
X28935713Y34257085D01*
X28935713Y34257085D02*
X28935713Y34304704D01*
X28935713Y34304704D02*
X28888094Y34399942D01*
X28888094Y34399942D02*
X28840475Y34447561D01*
X28840475Y34447561D02*
X28745237Y34495180D01*
X28745237Y34495180D02*
X28554761Y34495180D01*
X28554761Y34495180D02*
X28459523Y34447561D01*
X28459523Y34447561D02*
X28411904Y34399942D01*
X28411904Y34399942D02*
X28364285Y34304704D01*
X28364285Y34304704D02*
X28364285Y34257085D01*
X28364285Y34257085D02*
X28411904Y34161847D01*
X28411904Y34161847D02*
X28459523Y34114228D01*
X28459523Y34114228D02*
X28554761Y34066609D01*
X28554761Y34066609D02*
X28745237Y34066609D01*
X28745237Y34066609D02*
X28840475Y34018990D01*
X28840475Y34018990D02*
X28888094Y33971371D01*
X28888094Y33971371D02*
X28935713Y33876133D01*
X28935713Y33876133D02*
X28935713Y33685657D01*
X28935713Y33685657D02*
X28888094Y33590419D01*
X28888094Y33590419D02*
X28840475Y33542799D01*
X28840475Y33542799D02*
X28745237Y33495180D01*
X28745237Y33495180D02*
X28554761Y33495180D01*
X28554761Y33495180D02*
X28459523Y33542799D01*
X28459523Y33542799D02*
X28411904Y33590419D01*
X28411904Y33590419D02*
X28364285Y33685657D01*
X28364285Y33685657D02*
X28364285Y33876133D01*
X28364285Y33876133D02*
X28411904Y33971371D01*
X28411904Y33971371D02*
X28459523Y34018990D01*
X28459523Y34018990D02*
X28554761Y34066609D01*
D13*
X25524009Y39674104D02*
X24507576Y39674104D01*
X24507576Y39674104D02*
X24355150Y39521678D01*
X25676359Y39521678D02*
X25524009Y39674104D01*
D14*
X25676359Y39521678D02*
X25676359Y38759676D01*
X24355150Y39521678D02*
X24355150Y38759676D01*
X25676359Y36991655D02*
X25676359Y37753657D01*
X24355150Y36991655D02*
X24355150Y37753657D01*
D13*
X24355150Y36991655D02*
X24507576Y36839356D01*
X25524009Y36839356D02*
X25676359Y36991655D01*
X24507576Y36839356D02*
X25524009Y36839356D01*
D15*
X16594539Y32794386D02*
X16594539Y33594360D01*
X17704369Y33904165D02*
X16904369Y33904165D01*
X17704369Y32484556D02*
X16904369Y32484556D01*
X18280264Y33910032D02*
X19080239Y33910032D01*
X18280264Y32490372D02*
X19080239Y32490372D01*
X19390018Y32800228D02*
X19390018Y33600253D01*
X16904318Y33904215D02*
G75*
G03*
X16594489Y33594361I1J-309830D01*
G01*
X16594488Y32794386D02*
G75*
G03*
X16904318Y32484556I309830J0D01*
G01*
X19390033Y33600202D02*
G75*
G03*
X19080188Y33910032I-309833J-3D01*
G01*
X19080188Y32490371D02*
G75*
G03*
X19390018Y32800227I-8J309838D01*
G01*
D13*
X20788875Y28229095D02*
X20788875Y26070903D01*
X20788875Y26070903D02*
X22148793Y26070903D01*
X22148793Y28229095D02*
X20788875Y28229095D01*
X24051207Y28229095D02*
X25411125Y28229095D01*
X25411125Y28229095D02*
X25411125Y26070903D01*
X25411125Y26070903D02*
X24051207Y26070903D01*
X16464395Y18839909D02*
X17785605Y18839909D01*
X17785605Y18839909D02*
X17785605Y19798786D01*
X16464395Y19798786D02*
X16464395Y18839909D01*
X16464395Y20651212D02*
X16464395Y21610089D01*
X16464395Y21610089D02*
X17785605Y21610089D01*
X17785605Y21610089D02*
X17785605Y20651212D01*
X23359792Y12636398D02*
X25240208Y12636398D01*
X25392609Y12788799D02*
X25392609Y14273787D01*
X23207391Y14273787D02*
X23207391Y12788799D01*
X23207391Y16126213D02*
X23207391Y17611201D01*
X25392609Y17611201D02*
X25392609Y16126213D01*
X23359792Y17763602D02*
X25240208Y17763602D01*
X23207391Y12788799D02*
G75*
G03*
X23359792Y12636398I152400J-1D01*
G01*
X25240208Y12636398D02*
G75*
G03*
X25392609Y12788799I1J152400D01*
G01*
X23359792Y17763609D02*
G75*
G03*
X23207391Y17611201I8J-152409D01*
G01*
X25392602Y17611201D02*
G75*
G03*
X25240208Y17763602I-152402J-1D01*
G01*
X11886385Y20612122D02*
X11886385Y19109708D01*
X12038786Y18957308D02*
X13448793Y18957308D01*
X13448793Y20764522D02*
X12038786Y20764522D01*
X14251181Y20764522D02*
X15661188Y20764522D01*
X15661188Y18957308D02*
X14251181Y18957308D01*
X15813589Y20612122D02*
X15813589Y19109708D01*
X12038786Y20764522D02*
G75*
G03*
X11886386Y20612122I0J-152400D01*
G01*
X11886385Y19109708D02*
G75*
G03*
X12038786Y18957307I152400J-1D01*
G01*
X15813595Y20612122D02*
G75*
G03*
X15661188Y20764523I-152408J-7D01*
G01*
X15661188Y18957314D02*
G75*
G03*
X15813588Y19109708I-1J152401D01*
G01*
D15*
X11930994Y18144005D02*
X11930994Y17636004D01*
X11930994Y17764147D02*
X11930994Y16981139D01*
X11930994Y13718859D02*
X11930994Y13118859D01*
X11930994Y13118859D02*
X11930994Y12555993D01*
X11930994Y12555993D02*
X17519006Y12555993D01*
X17519006Y18144005D02*
X11930994Y18144005D01*
X17519006Y17581139D02*
X17519006Y18144005D01*
X17519006Y16981139D02*
X17519006Y17581139D01*
X17519006Y13063994D02*
X17519006Y13718859D01*
X17519006Y12555993D02*
X17519006Y13063994D01*
D16*
X12009989Y17940042D02*
G75*
G03*
X12009989Y17940042I-29972J0D01*
G01*
D13*
X20086398Y20401207D02*
X20086398Y18898793D01*
X20238799Y18746393D02*
X21648806Y18746393D01*
X21648806Y20553607D02*
X20238799Y20553607D01*
X22451194Y20553607D02*
X23861201Y20553607D01*
X23861201Y18746393D02*
X22451194Y18746393D01*
X24013602Y20401207D02*
X24013602Y18898793D01*
X20238799Y20553607D02*
G75*
G03*
X20086399Y20401207I0J-152400D01*
G01*
X20086398Y18898793D02*
G75*
G03*
X20238799Y18746392I152400J-1D01*
G01*
X24013608Y20401207D02*
G75*
G03*
X23861201Y20553608I-152408J-7D01*
G01*
X23861201Y18746399D02*
G75*
G03*
X24013601Y18898793I-1J152401D01*
G01*
D15*
X15025000Y21399885D02*
X13224975Y21399885D01*
X15025000Y24499910D02*
X13224975Y24499910D01*
X12854997Y21298996D02*
G75*
G03*
X12854997Y21298996I-127000J0D01*
G01*
D16*
X12754973Y21499986D02*
G75*
G03*
X12754973Y21499986I-29998J0D01*
G01*
D15*
X23818231Y30677310D02*
X23811551Y30670630D01*
X23818231Y34052850D02*
X23818231Y30677310D01*
X23811551Y30670630D02*
X23476448Y30670630D01*
X23784830Y34059530D02*
X23804870Y34039490D01*
X23476448Y34059530D02*
X23784830Y34059530D01*
X20699968Y30670630D02*
X20429331Y30670630D01*
X20429331Y30670630D02*
X20429331Y34059530D01*
X20429331Y34059530D02*
X20699943Y34059530D01*
D17*
X23847669Y30183051D02*
G75*
G03*
X23847669Y30183051I-150114J0D01*
G01*
D15*
X38966034Y46000869D02*
G75*
G03*
X38966034Y46000869I-254000J0D01*
G01*
D16*
X38234030Y45024872D02*
G75*
G03*
X38234030Y45024872I-29997J0D01*
G01*
D13*
X24550991Y33450894D02*
X25567424Y33450894D01*
X25567424Y33450894D02*
X25719850Y33603320D01*
X24398641Y33603320D02*
X24550991Y33450894D01*
D14*
X24398641Y33603320D02*
X24398641Y34365322D01*
X25719850Y33603320D02*
X25719850Y34365322D01*
X24398641Y36133343D02*
X24398641Y35371341D01*
X25719850Y36133343D02*
X25719850Y35371341D01*
D13*
X25719850Y36133343D02*
X25567424Y36285642D01*
X24550991Y36285642D02*
X24398641Y36133343D01*
X25567424Y36285642D02*
X24550991Y36285642D01*
D15*
X27455613Y36894538D02*
X26655639Y36894538D01*
X26345834Y38004368D02*
X26345834Y37204368D01*
X27765443Y38004368D02*
X27765443Y37204368D01*
X26339967Y38580263D02*
X26339967Y39380238D01*
X27759627Y38580263D02*
X27759627Y39380238D01*
X27449771Y39690017D02*
X26649746Y39690017D01*
X26345784Y37204317D02*
G75*
G03*
X26655638Y36894488I309830J1D01*
G01*
X27455613Y36894487D02*
G75*
G03*
X27765443Y37204317I0J309830D01*
G01*
X26649797Y39690032D02*
G75*
G03*
X26339967Y39380187I3J-309833D01*
G01*
X27759628Y39380187D02*
G75*
G03*
X27449772Y39690017I-309838J-8D01*
G01*
D13*
X18811398Y22840207D02*
X18811398Y20959791D01*
X18963799Y20807390D02*
X20448787Y20807390D01*
X20448787Y22992608D02*
X18963799Y22992608D01*
X22301213Y22992608D02*
X23786201Y22992608D01*
X23786201Y20807390D02*
X22301213Y20807390D01*
X23938602Y22840207D02*
X23938602Y20959791D01*
X18963799Y22992608D02*
G75*
G03*
X18811398Y22840207I-1J-152400D01*
G01*
X18811398Y20959791D02*
G75*
G03*
X18963799Y20807390I152400J-1D01*
G01*
X23938609Y22840207D02*
G75*
G03*
X23786201Y22992608I-152409J-8D01*
G01*
X23786201Y20807397D02*
G75*
G03*
X23938602Y20959791I-1J152402D01*
G01*
X19159792Y12636398D02*
X21040208Y12636398D01*
X21192609Y12788799D02*
X21192609Y14273787D01*
X19007391Y14273787D02*
X19007391Y12788799D01*
X19007391Y16126213D02*
X19007391Y17611201D01*
X21192609Y17611201D02*
X21192609Y16126213D01*
X19159792Y17763602D02*
X21040208Y17763602D01*
X19007391Y12788799D02*
G75*
G03*
X19159792Y12636398I152400J-1D01*
G01*
X21040208Y12636398D02*
G75*
G03*
X21192609Y12788799I1J152400D01*
G01*
X19159792Y17763609D02*
G75*
G03*
X19007391Y17611201I8J-152409D01*
G01*
X21192602Y17611201D02*
G75*
G03*
X21040208Y17763602I-152402J-1D01*
G01*
X11895904Y29663874D02*
X14054096Y29663874D01*
X14054096Y29663874D02*
X14054096Y31023792D01*
X11895904Y31023792D02*
X11895904Y29663874D01*
X11895904Y32926206D02*
X11895904Y34286124D01*
X11895904Y34286124D02*
X14054096Y34286124D01*
X14054096Y34286124D02*
X14054096Y32926206D01*
X16694824Y23076517D02*
X16694824Y22295313D01*
X16694824Y22295313D02*
X17150348Y22295313D01*
X17150348Y23076517D02*
X16694824Y23076517D01*
X17482734Y23076517D02*
X17938258Y23076517D01*
X17938258Y23076517D02*
X17938258Y22295313D01*
X17938258Y22295313D02*
X17482734Y22295313D01*
X15313875Y29804095D02*
X15313875Y27645903D01*
X15313875Y27645903D02*
X16673793Y27645903D01*
X16673793Y29804095D02*
X15313875Y29804095D01*
X18576207Y29804095D02*
X19936125Y29804095D01*
X19936125Y29804095D02*
X19936125Y27645903D01*
X19936125Y27645903D02*
X18576207Y27645903D01*
D15*
X16769539Y30694386D02*
X16769539Y31494360D01*
X17879369Y31804165D02*
X17079369Y31804165D01*
X17879369Y30384556D02*
X17079369Y30384556D01*
X18455264Y31810032D02*
X19255239Y31810032D01*
X18455264Y30390372D02*
X19255239Y30390372D01*
X19565018Y30700228D02*
X19565018Y31500253D01*
X17079318Y31804215D02*
G75*
G03*
X16769489Y31494361I1J-309830D01*
G01*
X16769488Y30694386D02*
G75*
G03*
X17079318Y30384556I309830J0D01*
G01*
X19565033Y31500202D02*
G75*
G03*
X19255188Y31810032I-309833J-3D01*
G01*
X19255188Y30390371D02*
G75*
G03*
X19565018Y30700227I-8J309838D01*
G01*
X38972034Y7875996D02*
G75*
G03*
X38972034Y7875996I-254000J0D01*
G01*
D16*
X38240030Y6899999D02*
G75*
G03*
X38240030Y6899999I-29997J0D01*
G01*
D13*
X11736398Y26865207D02*
X11736398Y24984791D01*
X11888799Y24832390D02*
X13373787Y24832390D01*
X13373787Y27017608D02*
X11888799Y27017608D01*
X15226213Y27017608D02*
X16711201Y27017608D01*
X16711201Y24832390D02*
X15226213Y24832390D01*
X16863602Y26865207D02*
X16863602Y24984791D01*
X11888799Y27017608D02*
G75*
G03*
X11736398Y26865207I-1J-152400D01*
G01*
X11736398Y24984791D02*
G75*
G03*
X11888799Y24832390I152400J-1D01*
G01*
X16863609Y26865207D02*
G75*
G03*
X16711201Y27017608I-152409J-8D01*
G01*
X16711201Y24832397D02*
G75*
G03*
X16863602Y24984791I-1J152402D01*
G01*
D15*
X26694387Y36280460D02*
X27494361Y36280460D01*
X27804166Y35170630D02*
X27804166Y35970630D01*
X26384557Y35170630D02*
X26384557Y35970630D01*
X27810033Y34594735D02*
X27810033Y33794760D01*
X26390373Y34594735D02*
X26390373Y33794760D01*
X26700229Y33484981D02*
X27500254Y33484981D01*
X27804216Y35970681D02*
G75*
G03*
X27494362Y36280510I-309830J-1D01*
G01*
X26694387Y36280511D02*
G75*
G03*
X26384557Y35970681I0J-309830D01*
G01*
X27500203Y33484966D02*
G75*
G03*
X27810033Y33794811I-3J309833D01*
G01*
X26390372Y33794811D02*
G75*
G03*
X26700228Y33484981I309838J8D01*
G01*
M02*
