G04 #@! TF.GenerationSoftware,KiCad,Pcbnew,7.0.5-0*
G04 #@! TF.CreationDate,2024-11-07T13:17:23-08:00*
G04 #@! TF.ProjectId,MilkVHat,4d696c6b-5648-4617-942e-6b696361645f,rev?*
G04 #@! TF.SameCoordinates,PX5f5e100PY5f5e100*
G04 #@! TF.FileFunction,Legend,Top*
G04 #@! TF.FilePolarity,Positive*
%FSLAX46Y46*%
G04 Gerber Fmt 4.6, Leading zero omitted, Abs format (unit mm)*
G04 Created by KiCad (PCBNEW 7.0.5-0) date 2024-11-07 13:17:23*
%MOMM*%
%LPD*%
G01*
G04 APERTURE LIST*
%ADD10C,0.300000*%
%ADD11C,0.100000*%
%ADD12C,0.150000*%
%ADD13C,0.250000*%
%ADD14C,0.110000*%
%ADD15C,0.254000*%
%ADD16C,0.059995*%
G04 APERTURE END LIST*
D10*
X11300000Y13300000D02*
X11300000Y26925000D01*
X11300000Y29575000D02*
X11300000Y43200000D01*
D11*
X1204612Y43950425D02*
X881363Y43627176D01*
X1042987Y43788800D02*
X477302Y44354486D01*
X477302Y44354486D02*
X504239Y44219799D01*
X504239Y44219799D02*
X504239Y44112049D01*
X504239Y44112049D02*
X477302Y44031237D01*
X19806265Y33591105D02*
X19806265Y34391105D01*
X19806265Y34391105D02*
X20072931Y33819677D01*
X20072931Y33819677D02*
X20339598Y34391105D01*
X20339598Y34391105D02*
X20339598Y33591105D01*
X20720551Y33591105D02*
X20720551Y34391105D01*
X21558646Y33667296D02*
X21520550Y33629200D01*
X21520550Y33629200D02*
X21406265Y33591105D01*
X21406265Y33591105D02*
X21330074Y33591105D01*
X21330074Y33591105D02*
X21215788Y33629200D01*
X21215788Y33629200D02*
X21139598Y33705391D01*
X21139598Y33705391D02*
X21101503Y33781581D01*
X21101503Y33781581D02*
X21063407Y33933962D01*
X21063407Y33933962D02*
X21063407Y34048248D01*
X21063407Y34048248D02*
X21101503Y34200629D01*
X21101503Y34200629D02*
X21139598Y34276820D01*
X21139598Y34276820D02*
X21215788Y34353010D01*
X21215788Y34353010D02*
X21330074Y34391105D01*
X21330074Y34391105D02*
X21406265Y34391105D01*
X21406265Y34391105D02*
X21520550Y34353010D01*
X21520550Y34353010D02*
X21558646Y34314915D01*
X19806265Y32303105D02*
X19806265Y33103105D01*
X19806265Y33103105D02*
X20111027Y33103105D01*
X20111027Y33103105D02*
X20187217Y33065010D01*
X20187217Y33065010D02*
X20225312Y33026915D01*
X20225312Y33026915D02*
X20263408Y32950724D01*
X20263408Y32950724D02*
X20263408Y32836439D01*
X20263408Y32836439D02*
X20225312Y32760248D01*
X20225312Y32760248D02*
X20187217Y32722153D01*
X20187217Y32722153D02*
X20111027Y32684058D01*
X20111027Y32684058D02*
X19806265Y32684058D01*
X20987217Y32303105D02*
X20606265Y32303105D01*
X20606265Y32303105D02*
X20606265Y33103105D01*
X21253884Y33103105D02*
X21253884Y32455486D01*
X21253884Y32455486D02*
X21291979Y32379296D01*
X21291979Y32379296D02*
X21330074Y32341200D01*
X21330074Y32341200D02*
X21406265Y32303105D01*
X21406265Y32303105D02*
X21558646Y32303105D01*
X21558646Y32303105D02*
X21634836Y32341200D01*
X21634836Y32341200D02*
X21672931Y32379296D01*
X21672931Y32379296D02*
X21711027Y32455486D01*
X21711027Y32455486D02*
X21711027Y33103105D01*
X22511026Y33065010D02*
X22434836Y33103105D01*
X22434836Y33103105D02*
X22320550Y33103105D01*
X22320550Y33103105D02*
X22206264Y33065010D01*
X22206264Y33065010D02*
X22130074Y32988820D01*
X22130074Y32988820D02*
X22091979Y32912629D01*
X22091979Y32912629D02*
X22053883Y32760248D01*
X22053883Y32760248D02*
X22053883Y32645962D01*
X22053883Y32645962D02*
X22091979Y32493581D01*
X22091979Y32493581D02*
X22130074Y32417391D01*
X22130074Y32417391D02*
X22206264Y32341200D01*
X22206264Y32341200D02*
X22320550Y32303105D01*
X22320550Y32303105D02*
X22396741Y32303105D01*
X22396741Y32303105D02*
X22511026Y32341200D01*
X22511026Y32341200D02*
X22549122Y32379296D01*
X22549122Y32379296D02*
X22549122Y32645962D01*
X22549122Y32645962D02*
X22396741Y32645962D01*
X22891979Y32379296D02*
X22930074Y32341200D01*
X22930074Y32341200D02*
X22891979Y32303105D01*
X22891979Y32303105D02*
X22853883Y32341200D01*
X22853883Y32341200D02*
X22891979Y32379296D01*
X22891979Y32379296D02*
X22891979Y32303105D01*
X22891979Y32607867D02*
X22853883Y33065010D01*
X22853883Y33065010D02*
X22891979Y33103105D01*
X22891979Y33103105D02*
X22930074Y33065010D01*
X22930074Y33065010D02*
X22891979Y32607867D01*
X22891979Y32607867D02*
X22891979Y33103105D01*
X369552Y27938987D02*
X369552Y27992861D01*
X369552Y27992861D02*
X396490Y28073674D01*
X396490Y28073674D02*
X531177Y28208361D01*
X531177Y28208361D02*
X611989Y28235298D01*
X611989Y28235298D02*
X665864Y28235298D01*
X665864Y28235298D02*
X746676Y28208361D01*
X746676Y28208361D02*
X800551Y28154486D01*
X800551Y28154486D02*
X854425Y28046736D01*
X854425Y28046736D02*
X854425Y27400239D01*
X854425Y27400239D02*
X1204612Y27750425D01*
X24565789Y14286439D02*
X23956265Y14057867D01*
X23956265Y14057867D02*
X24565789Y13829296D01*
X24946741Y14172153D02*
X25556265Y14172153D01*
X25556265Y13943581D02*
X24946741Y13943581D01*
X26546741Y13753105D02*
X26546741Y14553105D01*
X26546741Y14553105D02*
X26813407Y13981677D01*
X26813407Y13981677D02*
X27080074Y14553105D01*
X27080074Y14553105D02*
X27080074Y13753105D01*
X27613408Y14553105D02*
X27765789Y14553105D01*
X27765789Y14553105D02*
X27841979Y14515010D01*
X27841979Y14515010D02*
X27918170Y14438820D01*
X27918170Y14438820D02*
X27956265Y14286439D01*
X27956265Y14286439D02*
X27956265Y14019772D01*
X27956265Y14019772D02*
X27918170Y13867391D01*
X27918170Y13867391D02*
X27841979Y13791200D01*
X27841979Y13791200D02*
X27765789Y13753105D01*
X27765789Y13753105D02*
X27613408Y13753105D01*
X27613408Y13753105D02*
X27537217Y13791200D01*
X27537217Y13791200D02*
X27461027Y13867391D01*
X27461027Y13867391D02*
X27422931Y14019772D01*
X27422931Y14019772D02*
X27422931Y14286439D01*
X27422931Y14286439D02*
X27461027Y14438820D01*
X27461027Y14438820D02*
X27537217Y14515010D01*
X27537217Y14515010D02*
X27613408Y14553105D01*
X28184836Y14553105D02*
X28641979Y14553105D01*
X28413407Y13753105D02*
X28413407Y14553105D01*
X29061027Y14553105D02*
X29213408Y14553105D01*
X29213408Y14553105D02*
X29289598Y14515010D01*
X29289598Y14515010D02*
X29365789Y14438820D01*
X29365789Y14438820D02*
X29403884Y14286439D01*
X29403884Y14286439D02*
X29403884Y14019772D01*
X29403884Y14019772D02*
X29365789Y13867391D01*
X29365789Y13867391D02*
X29289598Y13791200D01*
X29289598Y13791200D02*
X29213408Y13753105D01*
X29213408Y13753105D02*
X29061027Y13753105D01*
X29061027Y13753105D02*
X28984836Y13791200D01*
X28984836Y13791200D02*
X28908646Y13867391D01*
X28908646Y13867391D02*
X28870550Y14019772D01*
X28870550Y14019772D02*
X28870550Y14286439D01*
X28870550Y14286439D02*
X28908646Y14438820D01*
X28908646Y14438820D02*
X28984836Y14515010D01*
X28984836Y14515010D02*
X29061027Y14553105D01*
X30203884Y13753105D02*
X29937217Y14134058D01*
X29746741Y13753105D02*
X29746741Y14553105D01*
X29746741Y14553105D02*
X30051503Y14553105D01*
X30051503Y14553105D02*
X30127693Y14515010D01*
X30127693Y14515010D02*
X30165788Y14476915D01*
X30165788Y14476915D02*
X30203884Y14400724D01*
X30203884Y14400724D02*
X30203884Y14286439D01*
X30203884Y14286439D02*
X30165788Y14210248D01*
X30165788Y14210248D02*
X30127693Y14172153D01*
X30127693Y14172153D02*
X30051503Y14134058D01*
X30051503Y14134058D02*
X29746741Y14134058D01*
X31613408Y13829296D02*
X31575312Y13791200D01*
X31575312Y13791200D02*
X31461027Y13753105D01*
X31461027Y13753105D02*
X31384836Y13753105D01*
X31384836Y13753105D02*
X31270550Y13791200D01*
X31270550Y13791200D02*
X31194360Y13867391D01*
X31194360Y13867391D02*
X31156265Y13943581D01*
X31156265Y13943581D02*
X31118169Y14095962D01*
X31118169Y14095962D02*
X31118169Y14210248D01*
X31118169Y14210248D02*
X31156265Y14362629D01*
X31156265Y14362629D02*
X31194360Y14438820D01*
X31194360Y14438820D02*
X31270550Y14515010D01*
X31270550Y14515010D02*
X31384836Y14553105D01*
X31384836Y14553105D02*
X31461027Y14553105D01*
X31461027Y14553105D02*
X31575312Y14515010D01*
X31575312Y14515010D02*
X31613408Y14476915D01*
X32108646Y14553105D02*
X32261027Y14553105D01*
X32261027Y14553105D02*
X32337217Y14515010D01*
X32337217Y14515010D02*
X32413408Y14438820D01*
X32413408Y14438820D02*
X32451503Y14286439D01*
X32451503Y14286439D02*
X32451503Y14019772D01*
X32451503Y14019772D02*
X32413408Y13867391D01*
X32413408Y13867391D02*
X32337217Y13791200D01*
X32337217Y13791200D02*
X32261027Y13753105D01*
X32261027Y13753105D02*
X32108646Y13753105D01*
X32108646Y13753105D02*
X32032455Y13791200D01*
X32032455Y13791200D02*
X31956265Y13867391D01*
X31956265Y13867391D02*
X31918169Y14019772D01*
X31918169Y14019772D02*
X31918169Y14286439D01*
X31918169Y14286439D02*
X31956265Y14438820D01*
X31956265Y14438820D02*
X32032455Y14515010D01*
X32032455Y14515010D02*
X32108646Y14553105D01*
X32794360Y13753105D02*
X32794360Y14553105D01*
X32794360Y14553105D02*
X33061026Y13981677D01*
X33061026Y13981677D02*
X33327693Y14553105D01*
X33327693Y14553105D02*
X33327693Y13753105D01*
X33670550Y13791200D02*
X33784836Y13753105D01*
X33784836Y13753105D02*
X33975312Y13753105D01*
X33975312Y13753105D02*
X34051503Y13791200D01*
X34051503Y13791200D02*
X34089598Y13829296D01*
X34089598Y13829296D02*
X34127693Y13905486D01*
X34127693Y13905486D02*
X34127693Y13981677D01*
X34127693Y13981677D02*
X34089598Y14057867D01*
X34089598Y14057867D02*
X34051503Y14095962D01*
X34051503Y14095962D02*
X33975312Y14134058D01*
X33975312Y14134058D02*
X33822931Y14172153D01*
X33822931Y14172153D02*
X33746741Y14210248D01*
X33746741Y14210248D02*
X33708646Y14248343D01*
X33708646Y14248343D02*
X33670550Y14324534D01*
X33670550Y14324534D02*
X33670550Y14400724D01*
X33670550Y14400724D02*
X33708646Y14476915D01*
X33708646Y14476915D02*
X33746741Y14515010D01*
X33746741Y14515010D02*
X33822931Y14553105D01*
X33822931Y14553105D02*
X34013408Y14553105D01*
X34013408Y14553105D02*
X34127693Y14515010D01*
X35080075Y13753105D02*
X35080075Y14553105D01*
X35080075Y14553105D02*
X35384837Y14553105D01*
X35384837Y14553105D02*
X35461027Y14515010D01*
X35461027Y14515010D02*
X35499122Y14476915D01*
X35499122Y14476915D02*
X35537218Y14400724D01*
X35537218Y14400724D02*
X35537218Y14286439D01*
X35537218Y14286439D02*
X35499122Y14210248D01*
X35499122Y14210248D02*
X35461027Y14172153D01*
X35461027Y14172153D02*
X35384837Y14134058D01*
X35384837Y14134058D02*
X35080075Y14134058D01*
X36261027Y13753105D02*
X35880075Y13753105D01*
X35880075Y13753105D02*
X35880075Y14553105D01*
X36527694Y14553105D02*
X36527694Y13905486D01*
X36527694Y13905486D02*
X36565789Y13829296D01*
X36565789Y13829296D02*
X36603884Y13791200D01*
X36603884Y13791200D02*
X36680075Y13753105D01*
X36680075Y13753105D02*
X36832456Y13753105D01*
X36832456Y13753105D02*
X36908646Y13791200D01*
X36908646Y13791200D02*
X36946741Y13829296D01*
X36946741Y13829296D02*
X36984837Y13905486D01*
X36984837Y13905486D02*
X36984837Y14553105D01*
X37784836Y14515010D02*
X37708646Y14553105D01*
X37708646Y14553105D02*
X37594360Y14553105D01*
X37594360Y14553105D02*
X37480074Y14515010D01*
X37480074Y14515010D02*
X37403884Y14438820D01*
X37403884Y14438820D02*
X37365789Y14362629D01*
X37365789Y14362629D02*
X37327693Y14210248D01*
X37327693Y14210248D02*
X37327693Y14095962D01*
X37327693Y14095962D02*
X37365789Y13943581D01*
X37365789Y13943581D02*
X37403884Y13867391D01*
X37403884Y13867391D02*
X37480074Y13791200D01*
X37480074Y13791200D02*
X37594360Y13753105D01*
X37594360Y13753105D02*
X37670551Y13753105D01*
X37670551Y13753105D02*
X37784836Y13791200D01*
X37784836Y13791200D02*
X37822932Y13829296D01*
X37822932Y13829296D02*
X37822932Y14095962D01*
X37822932Y14095962D02*
X37670551Y14095962D01*
X38165789Y13829296D02*
X38203884Y13791200D01*
X38203884Y13791200D02*
X38165789Y13753105D01*
X38165789Y13753105D02*
X38127693Y13791200D01*
X38127693Y13791200D02*
X38165789Y13829296D01*
X38165789Y13829296D02*
X38165789Y13753105D01*
X38165789Y14057867D02*
X38127693Y14515010D01*
X38127693Y14515010D02*
X38165789Y14553105D01*
X38165789Y14553105D02*
X38203884Y14515010D01*
X38203884Y14515010D02*
X38165789Y14057867D01*
X38165789Y14057867D02*
X38165789Y14553105D01*
D12*
X2396303Y3355705D02*
X2129636Y3736658D01*
X1939160Y3355705D02*
X1939160Y4155705D01*
X1939160Y4155705D02*
X2243922Y4155705D01*
X2243922Y4155705D02*
X2320112Y4117610D01*
X2320112Y4117610D02*
X2358207Y4079515D01*
X2358207Y4079515D02*
X2396303Y4003324D01*
X2396303Y4003324D02*
X2396303Y3889039D01*
X2396303Y3889039D02*
X2358207Y3812848D01*
X2358207Y3812848D02*
X2320112Y3774753D01*
X2320112Y3774753D02*
X2243922Y3736658D01*
X2243922Y3736658D02*
X1939160Y3736658D01*
X3043922Y3393800D02*
X2967731Y3355705D01*
X2967731Y3355705D02*
X2815350Y3355705D01*
X2815350Y3355705D02*
X2739160Y3393800D01*
X2739160Y3393800D02*
X2701064Y3469991D01*
X2701064Y3469991D02*
X2701064Y3774753D01*
X2701064Y3774753D02*
X2739160Y3850943D01*
X2739160Y3850943D02*
X2815350Y3889039D01*
X2815350Y3889039D02*
X2967731Y3889039D01*
X2967731Y3889039D02*
X3043922Y3850943D01*
X3043922Y3850943D02*
X3082017Y3774753D01*
X3082017Y3774753D02*
X3082017Y3698562D01*
X3082017Y3698562D02*
X2701064Y3622372D01*
X3348683Y3889039D02*
X3539159Y3355705D01*
X3539159Y3355705D02*
X3729636Y3889039D01*
X4605826Y3584277D02*
X4986779Y3584277D01*
X4529636Y3355705D02*
X4796303Y4155705D01*
X4796303Y4155705D02*
X5062969Y3355705D01*
D11*
X23656265Y5953105D02*
X23656265Y6753105D01*
X24037217Y5953105D02*
X24037217Y6753105D01*
X24037217Y6753105D02*
X24303883Y6181677D01*
X24303883Y6181677D02*
X24570550Y6753105D01*
X24570550Y6753105D02*
X24570550Y5953105D01*
X24951503Y6753105D02*
X24951503Y6105486D01*
X24951503Y6105486D02*
X24989598Y6029296D01*
X24989598Y6029296D02*
X25027693Y5991200D01*
X25027693Y5991200D02*
X25103884Y5953105D01*
X25103884Y5953105D02*
X25256265Y5953105D01*
X25256265Y5953105D02*
X25332455Y5991200D01*
X25332455Y5991200D02*
X25370550Y6029296D01*
X25370550Y6029296D02*
X25408646Y6105486D01*
X25408646Y6105486D02*
X25408646Y6753105D01*
X26361026Y6181677D02*
X26741979Y6181677D01*
X26284836Y5953105D02*
X26551503Y6753105D01*
X26551503Y6753105D02*
X26818169Y5953105D01*
X27465788Y5953105D02*
X27084836Y5953105D01*
X27084836Y5953105D02*
X27084836Y6753105D01*
X27618169Y6753105D02*
X28075312Y6753105D01*
X27846740Y5953105D02*
X27846740Y6753105D01*
X27018169Y33541200D02*
X27132455Y33503105D01*
X27132455Y33503105D02*
X27322931Y33503105D01*
X27322931Y33503105D02*
X27399122Y33541200D01*
X27399122Y33541200D02*
X27437217Y33579296D01*
X27437217Y33579296D02*
X27475312Y33655486D01*
X27475312Y33655486D02*
X27475312Y33731677D01*
X27475312Y33731677D02*
X27437217Y33807867D01*
X27437217Y33807867D02*
X27399122Y33845962D01*
X27399122Y33845962D02*
X27322931Y33884058D01*
X27322931Y33884058D02*
X27170550Y33922153D01*
X27170550Y33922153D02*
X27094360Y33960248D01*
X27094360Y33960248D02*
X27056265Y33998343D01*
X27056265Y33998343D02*
X27018169Y34074534D01*
X27018169Y34074534D02*
X27018169Y34150724D01*
X27018169Y34150724D02*
X27056265Y34226915D01*
X27056265Y34226915D02*
X27094360Y34265010D01*
X27094360Y34265010D02*
X27170550Y34303105D01*
X27170550Y34303105D02*
X27361027Y34303105D01*
X27361027Y34303105D02*
X27475312Y34265010D01*
X27818170Y33503105D02*
X27818170Y34303105D01*
X27818170Y34303105D02*
X28122932Y34303105D01*
X28122932Y34303105D02*
X28199122Y34265010D01*
X28199122Y34265010D02*
X28237217Y34226915D01*
X28237217Y34226915D02*
X28275313Y34150724D01*
X28275313Y34150724D02*
X28275313Y34036439D01*
X28275313Y34036439D02*
X28237217Y33960248D01*
X28237217Y33960248D02*
X28199122Y33922153D01*
X28199122Y33922153D02*
X28122932Y33884058D01*
X28122932Y33884058D02*
X27818170Y33884058D01*
X28618170Y33922153D02*
X28884836Y33922153D01*
X28999122Y33503105D02*
X28618170Y33503105D01*
X28618170Y33503105D02*
X28618170Y34303105D01*
X28618170Y34303105D02*
X28999122Y34303105D01*
X29303884Y33731677D02*
X29684837Y33731677D01*
X29227694Y33503105D02*
X29494361Y34303105D01*
X29494361Y34303105D02*
X29761027Y33503105D01*
X30027694Y33503105D02*
X30027694Y34303105D01*
X30484837Y33503105D02*
X30141979Y33960248D01*
X30484837Y34303105D02*
X30027694Y33845962D01*
X30827694Y33922153D02*
X31094360Y33922153D01*
X31208646Y33503105D02*
X30827694Y33503105D01*
X30827694Y33503105D02*
X30827694Y34303105D01*
X30827694Y34303105D02*
X31208646Y34303105D01*
X32008647Y33503105D02*
X31741980Y33884058D01*
X31551504Y33503105D02*
X31551504Y34303105D01*
X31551504Y34303105D02*
X31856266Y34303105D01*
X31856266Y34303105D02*
X31932456Y34265010D01*
X31932456Y34265010D02*
X31970551Y34226915D01*
X31970551Y34226915D02*
X32008647Y34150724D01*
X32008647Y34150724D02*
X32008647Y34036439D01*
X32008647Y34036439D02*
X31970551Y33960248D01*
X31970551Y33960248D02*
X31932456Y33922153D01*
X31932456Y33922153D02*
X31856266Y33884058D01*
X31856266Y33884058D02*
X31551504Y33884058D01*
X32351504Y33579296D02*
X32389599Y33541200D01*
X32389599Y33541200D02*
X32351504Y33503105D01*
X32351504Y33503105D02*
X32313408Y33541200D01*
X32313408Y33541200D02*
X32351504Y33579296D01*
X32351504Y33579296D02*
X32351504Y33503105D01*
X32351504Y33807867D02*
X32313408Y34265010D01*
X32313408Y34265010D02*
X32351504Y34303105D01*
X32351504Y34303105D02*
X32389599Y34265010D01*
X32389599Y34265010D02*
X32351504Y33807867D01*
X32351504Y33807867D02*
X32351504Y34303105D01*
D13*
X36762092Y1541096D02*
X36285901Y1541096D01*
X36285901Y1541096D02*
X36285901Y4398239D01*
X36285901Y4398239D02*
X36762092Y4398239D01*
X37904948Y4207762D02*
X38095425Y4207762D01*
X38095425Y4207762D02*
X38285901Y4112524D01*
X38285901Y4112524D02*
X38381139Y4017286D01*
X38381139Y4017286D02*
X38476377Y3826810D01*
X38476377Y3826810D02*
X38571615Y3445858D01*
X38571615Y3445858D02*
X38571615Y2969667D01*
X38571615Y2969667D02*
X38476377Y2588715D01*
X38476377Y2588715D02*
X38381139Y2398239D01*
X38381139Y2398239D02*
X38285901Y2303000D01*
X38285901Y2303000D02*
X38095425Y2207762D01*
X38095425Y2207762D02*
X37904948Y2207762D01*
X37904948Y2207762D02*
X37714472Y2303000D01*
X37714472Y2303000D02*
X37619234Y2398239D01*
X37619234Y2398239D02*
X37523996Y2588715D01*
X37523996Y2588715D02*
X37428758Y2969667D01*
X37428758Y2969667D02*
X37428758Y3445858D01*
X37428758Y3445858D02*
X37523996Y3826810D01*
X37523996Y3826810D02*
X37619234Y4017286D01*
X37619234Y4017286D02*
X37714472Y4112524D01*
X37714472Y4112524D02*
X37904948Y4207762D01*
X39238282Y1541096D02*
X39714472Y1541096D01*
X39714472Y1541096D02*
X39714472Y4398239D01*
X39714472Y4398239D02*
X39238282Y4398239D01*
D14*
X474748Y44891720D02*
X589034Y44853625D01*
X589034Y44853625D02*
X779510Y44853625D01*
X779510Y44853625D02*
X855701Y44891720D01*
X855701Y44891720D02*
X893796Y44929816D01*
X893796Y44929816D02*
X931891Y45006006D01*
X931891Y45006006D02*
X931891Y45082197D01*
X931891Y45082197D02*
X893796Y45158387D01*
X893796Y45158387D02*
X855701Y45196482D01*
X855701Y45196482D02*
X779510Y45234578D01*
X779510Y45234578D02*
X627129Y45272673D01*
X627129Y45272673D02*
X550939Y45310768D01*
X550939Y45310768D02*
X512844Y45348863D01*
X512844Y45348863D02*
X474748Y45425054D01*
X474748Y45425054D02*
X474748Y45501244D01*
X474748Y45501244D02*
X512844Y45577435D01*
X512844Y45577435D02*
X550939Y45615530D01*
X550939Y45615530D02*
X627129Y45653625D01*
X627129Y45653625D02*
X817606Y45653625D01*
X817606Y45653625D02*
X931891Y45615530D01*
X1274749Y45272673D02*
X1541415Y45272673D01*
X1655701Y44853625D02*
X1274749Y44853625D01*
X1274749Y44853625D02*
X1274749Y45653625D01*
X1274749Y45653625D02*
X1655701Y45653625D01*
X2455702Y44853625D02*
X2189035Y45234578D01*
X1998559Y44853625D02*
X1998559Y45653625D01*
X1998559Y45653625D02*
X2303321Y45653625D01*
X2303321Y45653625D02*
X2379511Y45615530D01*
X2379511Y45615530D02*
X2417606Y45577435D01*
X2417606Y45577435D02*
X2455702Y45501244D01*
X2455702Y45501244D02*
X2455702Y45386959D01*
X2455702Y45386959D02*
X2417606Y45310768D01*
X2417606Y45310768D02*
X2379511Y45272673D01*
X2379511Y45272673D02*
X2303321Y45234578D01*
X2303321Y45234578D02*
X1998559Y45234578D01*
X2684273Y45653625D02*
X2950940Y44853625D01*
X2950940Y44853625D02*
X3217606Y45653625D01*
X3636654Y45653625D02*
X3789035Y45653625D01*
X3789035Y45653625D02*
X3865225Y45615530D01*
X3865225Y45615530D02*
X3941416Y45539340D01*
X3941416Y45539340D02*
X3979511Y45386959D01*
X3979511Y45386959D02*
X3979511Y45120292D01*
X3979511Y45120292D02*
X3941416Y44967911D01*
X3941416Y44967911D02*
X3865225Y44891720D01*
X3865225Y44891720D02*
X3789035Y44853625D01*
X3789035Y44853625D02*
X3636654Y44853625D01*
X3636654Y44853625D02*
X3560463Y44891720D01*
X3560463Y44891720D02*
X3484273Y44967911D01*
X3484273Y44967911D02*
X3446177Y45120292D01*
X3446177Y45120292D02*
X3446177Y45386959D01*
X3446177Y45386959D02*
X3484273Y45539340D01*
X3484273Y45539340D02*
X3560463Y45615530D01*
X3560463Y45615530D02*
X3636654Y45653625D01*
X4284272Y44891720D02*
X4398558Y44853625D01*
X4398558Y44853625D02*
X4589034Y44853625D01*
X4589034Y44853625D02*
X4665225Y44891720D01*
X4665225Y44891720D02*
X4703320Y44929816D01*
X4703320Y44929816D02*
X4741415Y45006006D01*
X4741415Y45006006D02*
X4741415Y45082197D01*
X4741415Y45082197D02*
X4703320Y45158387D01*
X4703320Y45158387D02*
X4665225Y45196482D01*
X4665225Y45196482D02*
X4589034Y45234578D01*
X4589034Y45234578D02*
X4436653Y45272673D01*
X4436653Y45272673D02*
X4360463Y45310768D01*
X4360463Y45310768D02*
X4322368Y45348863D01*
X4322368Y45348863D02*
X4284272Y45425054D01*
X4284272Y45425054D02*
X4284272Y45501244D01*
X4284272Y45501244D02*
X4322368Y45577435D01*
X4322368Y45577435D02*
X4360463Y45615530D01*
X4360463Y45615530D02*
X4436653Y45653625D01*
X4436653Y45653625D02*
X4627130Y45653625D01*
X4627130Y45653625D02*
X4741415Y45615530D01*
X5084273Y44929816D02*
X5122368Y44891720D01*
X5122368Y44891720D02*
X5084273Y44853625D01*
X5084273Y44853625D02*
X5046177Y44891720D01*
X5046177Y44891720D02*
X5084273Y44929816D01*
X5084273Y44929816D02*
X5084273Y44853625D01*
X5084273Y45158387D02*
X5046177Y45615530D01*
X5046177Y45615530D02*
X5084273Y45653625D01*
X5084273Y45653625D02*
X5122368Y45615530D01*
X5122368Y45615530D02*
X5084273Y45158387D01*
X5084273Y45158387D02*
X5084273Y45653625D01*
D12*
X1791541Y5630181D02*
X2458207Y5630181D01*
X2458207Y5630181D02*
X1791541Y4630181D01*
X1791541Y4630181D02*
X2458207Y4630181D01*
X3220112Y4677800D02*
X3124874Y4630181D01*
X3124874Y4630181D02*
X2934398Y4630181D01*
X2934398Y4630181D02*
X2839160Y4677800D01*
X2839160Y4677800D02*
X2791541Y4773039D01*
X2791541Y4773039D02*
X2791541Y5153991D01*
X2791541Y5153991D02*
X2839160Y5249229D01*
X2839160Y5249229D02*
X2934398Y5296848D01*
X2934398Y5296848D02*
X3124874Y5296848D01*
X3124874Y5296848D02*
X3220112Y5249229D01*
X3220112Y5249229D02*
X3267731Y5153991D01*
X3267731Y5153991D02*
X3267731Y5058753D01*
X3267731Y5058753D02*
X2791541Y4963515D01*
X3696303Y4630181D02*
X3696303Y5296848D01*
X3696303Y5106372D02*
X3743922Y5201610D01*
X3743922Y5201610D02*
X3791541Y5249229D01*
X3791541Y5249229D02*
X3886779Y5296848D01*
X3886779Y5296848D02*
X3982017Y5296848D01*
X4458208Y4630181D02*
X4362970Y4677800D01*
X4362970Y4677800D02*
X4315351Y4725420D01*
X4315351Y4725420D02*
X4267732Y4820658D01*
X4267732Y4820658D02*
X4267732Y5106372D01*
X4267732Y5106372D02*
X4315351Y5201610D01*
X4315351Y5201610D02*
X4362970Y5249229D01*
X4362970Y5249229D02*
X4458208Y5296848D01*
X4458208Y5296848D02*
X4601065Y5296848D01*
X4601065Y5296848D02*
X4696303Y5249229D01*
X4696303Y5249229D02*
X4743922Y5201610D01*
X4743922Y5201610D02*
X4791541Y5106372D01*
X4791541Y5106372D02*
X4791541Y4820658D01*
X4791541Y4820658D02*
X4743922Y4725420D01*
X4743922Y4725420D02*
X4696303Y4677800D01*
X4696303Y4677800D02*
X4601065Y4630181D01*
X4601065Y4630181D02*
X4458208Y4630181D01*
X5077256Y5296848D02*
X5458208Y5296848D01*
X5220113Y5630181D02*
X5220113Y4773039D01*
X5220113Y4773039D02*
X5267732Y4677800D01*
X5267732Y4677800D02*
X5362970Y4630181D01*
X5362970Y4630181D02*
X5458208Y4630181D01*
X5791542Y4630181D02*
X5791542Y5630181D01*
X6220113Y4630181D02*
X6220113Y5153991D01*
X6220113Y5153991D02*
X6172494Y5249229D01*
X6172494Y5249229D02*
X6077256Y5296848D01*
X6077256Y5296848D02*
X5934399Y5296848D01*
X5934399Y5296848D02*
X5839161Y5249229D01*
X5839161Y5249229D02*
X5791542Y5201610D01*
X7458209Y4630181D02*
X7458209Y5630181D01*
X7458209Y5153991D02*
X8029637Y5153991D01*
X8029637Y4630181D02*
X8029637Y5630181D01*
X8934399Y4630181D02*
X8934399Y5153991D01*
X8934399Y5153991D02*
X8886780Y5249229D01*
X8886780Y5249229D02*
X8791542Y5296848D01*
X8791542Y5296848D02*
X8601066Y5296848D01*
X8601066Y5296848D02*
X8505828Y5249229D01*
X8934399Y4677800D02*
X8839161Y4630181D01*
X8839161Y4630181D02*
X8601066Y4630181D01*
X8601066Y4630181D02*
X8505828Y4677800D01*
X8505828Y4677800D02*
X8458209Y4773039D01*
X8458209Y4773039D02*
X8458209Y4868277D01*
X8458209Y4868277D02*
X8505828Y4963515D01*
X8505828Y4963515D02*
X8601066Y5011134D01*
X8601066Y5011134D02*
X8839161Y5011134D01*
X8839161Y5011134D02*
X8934399Y5058753D01*
X9267733Y5296848D02*
X9648685Y5296848D01*
X9410590Y5630181D02*
X9410590Y4773039D01*
X9410590Y4773039D02*
X9458209Y4677800D01*
X9458209Y4677800D02*
X9553447Y4630181D01*
X9553447Y4630181D02*
X9648685Y4630181D01*
X9982019Y4725420D02*
X10029638Y4677800D01*
X10029638Y4677800D02*
X9982019Y4630181D01*
X9982019Y4630181D02*
X9934400Y4677800D01*
X9934400Y4677800D02*
X9982019Y4725420D01*
X9982019Y4725420D02*
X9982019Y4630181D01*
X9982019Y5011134D02*
X9934400Y5582562D01*
X9934400Y5582562D02*
X9982019Y5630181D01*
X9982019Y5630181D02*
X10029638Y5582562D01*
X10029638Y5582562D02*
X9982019Y5011134D01*
X9982019Y5011134D02*
X9982019Y5630181D01*
D11*
X369552Y17138987D02*
X369552Y17192861D01*
X369552Y17192861D02*
X396490Y17273674D01*
X396490Y17273674D02*
X531177Y17408361D01*
X531177Y17408361D02*
X611989Y17435298D01*
X611989Y17435298D02*
X665864Y17435298D01*
X665864Y17435298D02*
X746676Y17408361D01*
X746676Y17408361D02*
X800551Y17354486D01*
X800551Y17354486D02*
X854425Y17246736D01*
X854425Y17246736D02*
X854425Y16600239D01*
X854425Y16600239D02*
X1204612Y16950425D01*
X1204612Y38550425D02*
X881363Y38227176D01*
X1042987Y38388800D02*
X477302Y38954486D01*
X477302Y38954486D02*
X504239Y38819799D01*
X504239Y38819799D02*
X504239Y38712049D01*
X504239Y38712049D02*
X477302Y38631237D01*
X369552Y22588987D02*
X369552Y22642861D01*
X369552Y22642861D02*
X396490Y22723674D01*
X396490Y22723674D02*
X531177Y22858361D01*
X531177Y22858361D02*
X611989Y22885298D01*
X611989Y22885298D02*
X665864Y22885298D01*
X665864Y22885298D02*
X746676Y22858361D01*
X746676Y22858361D02*
X800551Y22804486D01*
X800551Y22804486D02*
X854425Y22696736D01*
X854425Y22696736D02*
X854425Y22050239D01*
X854425Y22050239D02*
X1204612Y22400425D01*
X1204612Y33150425D02*
X881363Y32827176D01*
X1042987Y32988800D02*
X477302Y33554486D01*
X477302Y33554486D02*
X504239Y33419799D01*
X504239Y33419799D02*
X504239Y33312049D01*
X504239Y33312049D02*
X477302Y33231237D01*
D14*
X40398558Y4336959D02*
X40703320Y4336959D01*
X40512844Y4603625D02*
X40512844Y3917911D01*
X40512844Y3917911D02*
X40550939Y3841720D01*
X40550939Y3841720D02*
X40627129Y3803625D01*
X40627129Y3803625D02*
X40703320Y3803625D01*
X40969987Y3803625D02*
X40969987Y4603625D01*
X41312844Y3803625D02*
X41312844Y4222673D01*
X41312844Y4222673D02*
X41274749Y4298863D01*
X41274749Y4298863D02*
X41198558Y4336959D01*
X41198558Y4336959D02*
X41084272Y4336959D01*
X41084272Y4336959D02*
X41008082Y4298863D01*
X41008082Y4298863D02*
X40969987Y4260768D01*
D11*
X12456265Y5853105D02*
X12456265Y6653105D01*
X12837217Y5853105D02*
X12837217Y6653105D01*
X12837217Y6653105D02*
X13103883Y6081677D01*
X13103883Y6081677D02*
X13370550Y6653105D01*
X13370550Y6653105D02*
X13370550Y5853105D01*
X13751503Y6653105D02*
X13751503Y6005486D01*
X13751503Y6005486D02*
X13789598Y5929296D01*
X13789598Y5929296D02*
X13827693Y5891200D01*
X13827693Y5891200D02*
X13903884Y5853105D01*
X13903884Y5853105D02*
X14056265Y5853105D01*
X14056265Y5853105D02*
X14132455Y5891200D01*
X14132455Y5891200D02*
X14170550Y5929296D01*
X14170550Y5929296D02*
X14208646Y6005486D01*
X14208646Y6005486D02*
X14208646Y6653105D01*
X15199122Y5853105D02*
X15199122Y6653105D01*
X15199122Y6653105D02*
X15656265Y5853105D01*
X15656265Y5853105D02*
X15656265Y6653105D01*
X16189598Y6653105D02*
X16341979Y6653105D01*
X16341979Y6653105D02*
X16418169Y6615010D01*
X16418169Y6615010D02*
X16494360Y6538820D01*
X16494360Y6538820D02*
X16532455Y6386439D01*
X16532455Y6386439D02*
X16532455Y6119772D01*
X16532455Y6119772D02*
X16494360Y5967391D01*
X16494360Y5967391D02*
X16418169Y5891200D01*
X16418169Y5891200D02*
X16341979Y5853105D01*
X16341979Y5853105D02*
X16189598Y5853105D01*
X16189598Y5853105D02*
X16113407Y5891200D01*
X16113407Y5891200D02*
X16037217Y5967391D01*
X16037217Y5967391D02*
X15999121Y6119772D01*
X15999121Y6119772D02*
X15999121Y6386439D01*
X15999121Y6386439D02*
X16037217Y6538820D01*
X16037217Y6538820D02*
X16113407Y6615010D01*
X16113407Y6615010D02*
X16189598Y6653105D01*
X17903883Y5853105D02*
X17446740Y5853105D01*
X17675312Y5853105D02*
X17675312Y6653105D01*
X17675312Y6653105D02*
X17599121Y6538820D01*
X17599121Y6538820D02*
X17522931Y6462629D01*
X17522931Y6462629D02*
X17446740Y6424534D01*
X19668169Y39169677D02*
X20049122Y39169677D01*
X19591979Y38941105D02*
X19858646Y39741105D01*
X19858646Y39741105D02*
X20125312Y38941105D01*
X20391979Y38941105D02*
X20391979Y39741105D01*
X20391979Y39741105D02*
X20582455Y39741105D01*
X20582455Y39741105D02*
X20696741Y39703010D01*
X20696741Y39703010D02*
X20772931Y39626820D01*
X20772931Y39626820D02*
X20811026Y39550629D01*
X20811026Y39550629D02*
X20849122Y39398248D01*
X20849122Y39398248D02*
X20849122Y39283962D01*
X20849122Y39283962D02*
X20811026Y39131581D01*
X20811026Y39131581D02*
X20772931Y39055391D01*
X20772931Y39055391D02*
X20696741Y38979200D01*
X20696741Y38979200D02*
X20582455Y38941105D01*
X20582455Y38941105D02*
X20391979Y38941105D01*
X21420550Y39741105D02*
X21420550Y39169677D01*
X21420550Y39169677D02*
X21382455Y39055391D01*
X21382455Y39055391D02*
X21306264Y38979200D01*
X21306264Y38979200D02*
X21191979Y38941105D01*
X21191979Y38941105D02*
X21115788Y38941105D01*
X21801503Y39741105D02*
X21801503Y39093486D01*
X21801503Y39093486D02*
X21839598Y39017296D01*
X21839598Y39017296D02*
X21877693Y38979200D01*
X21877693Y38979200D02*
X21953884Y38941105D01*
X21953884Y38941105D02*
X22106265Y38941105D01*
X22106265Y38941105D02*
X22182455Y38979200D01*
X22182455Y38979200D02*
X22220550Y39017296D01*
X22220550Y39017296D02*
X22258646Y39093486D01*
X22258646Y39093486D02*
X22258646Y39741105D01*
X22601502Y38979200D02*
X22715788Y38941105D01*
X22715788Y38941105D02*
X22906264Y38941105D01*
X22906264Y38941105D02*
X22982455Y38979200D01*
X22982455Y38979200D02*
X23020550Y39017296D01*
X23020550Y39017296D02*
X23058645Y39093486D01*
X23058645Y39093486D02*
X23058645Y39169677D01*
X23058645Y39169677D02*
X23020550Y39245867D01*
X23020550Y39245867D02*
X22982455Y39283962D01*
X22982455Y39283962D02*
X22906264Y39322058D01*
X22906264Y39322058D02*
X22753883Y39360153D01*
X22753883Y39360153D02*
X22677693Y39398248D01*
X22677693Y39398248D02*
X22639598Y39436343D01*
X22639598Y39436343D02*
X22601502Y39512534D01*
X22601502Y39512534D02*
X22601502Y39588724D01*
X22601502Y39588724D02*
X22639598Y39664915D01*
X22639598Y39664915D02*
X22677693Y39703010D01*
X22677693Y39703010D02*
X22753883Y39741105D01*
X22753883Y39741105D02*
X22944360Y39741105D01*
X22944360Y39741105D02*
X23058645Y39703010D01*
X23287217Y39741105D02*
X23744360Y39741105D01*
X23515788Y38941105D02*
X23515788Y39741105D01*
X19668169Y37881677D02*
X20049122Y37881677D01*
X19591979Y37653105D02*
X19858646Y38453105D01*
X19858646Y38453105D02*
X20125312Y37653105D01*
X20391979Y37653105D02*
X20391979Y38453105D01*
X20391979Y38453105D02*
X20658645Y37881677D01*
X20658645Y37881677D02*
X20925312Y38453105D01*
X20925312Y38453105D02*
X20925312Y37653105D01*
X21306265Y37653105D02*
X21306265Y38453105D01*
X21306265Y38453105D02*
X21611027Y38453105D01*
X21611027Y38453105D02*
X21687217Y38415010D01*
X21687217Y38415010D02*
X21725312Y38376915D01*
X21725312Y38376915D02*
X21763408Y38300724D01*
X21763408Y38300724D02*
X21763408Y38186439D01*
X21763408Y38186439D02*
X21725312Y38110248D01*
X21725312Y38110248D02*
X21687217Y38072153D01*
X21687217Y38072153D02*
X21611027Y38034058D01*
X21611027Y38034058D02*
X21306265Y38034058D01*
X22106265Y37729296D02*
X22144360Y37691200D01*
X22144360Y37691200D02*
X22106265Y37653105D01*
X22106265Y37653105D02*
X22068169Y37691200D01*
X22068169Y37691200D02*
X22106265Y37729296D01*
X22106265Y37729296D02*
X22106265Y37653105D01*
X22106265Y37957867D02*
X22068169Y38415010D01*
X22068169Y38415010D02*
X22106265Y38453105D01*
X22106265Y38453105D02*
X22144360Y38415010D01*
X22144360Y38415010D02*
X22106265Y37957867D01*
X22106265Y37957867D02*
X22106265Y38453105D01*
D12*
X19566666Y14895181D02*
X19566666Y14180896D01*
X19566666Y14180896D02*
X19519047Y14038039D01*
X19519047Y14038039D02*
X19423809Y13942800D01*
X19423809Y13942800D02*
X19280952Y13895181D01*
X19280952Y13895181D02*
X19185714Y13895181D01*
X19947619Y14895181D02*
X20566666Y14895181D01*
X20566666Y14895181D02*
X20233333Y14514229D01*
X20233333Y14514229D02*
X20376190Y14514229D01*
X20376190Y14514229D02*
X20471428Y14466610D01*
X20471428Y14466610D02*
X20519047Y14418991D01*
X20519047Y14418991D02*
X20566666Y14323753D01*
X20566666Y14323753D02*
X20566666Y14085658D01*
X20566666Y14085658D02*
X20519047Y13990420D01*
X20519047Y13990420D02*
X20471428Y13942800D01*
X20471428Y13942800D02*
X20376190Y13895181D01*
X20376190Y13895181D02*
X20090476Y13895181D01*
X20090476Y13895181D02*
X19995238Y13942800D01*
X19995238Y13942800D02*
X19947619Y13990420D01*
X2816666Y24495181D02*
X2816666Y23780896D01*
X2816666Y23780896D02*
X2769047Y23638039D01*
X2769047Y23638039D02*
X2673809Y23542800D01*
X2673809Y23542800D02*
X2530952Y23495181D01*
X2530952Y23495181D02*
X2435714Y23495181D01*
X3197619Y24495181D02*
X3864285Y24495181D01*
X3864285Y24495181D02*
X3435714Y23495181D01*
X16490476Y5145180D02*
X16490476Y4430895D01*
X16490476Y4430895D02*
X16442857Y4288038D01*
X16442857Y4288038D02*
X16347619Y4192799D01*
X16347619Y4192799D02*
X16204762Y4145180D01*
X16204762Y4145180D02*
X16109524Y4145180D01*
X17490476Y4145180D02*
X16919048Y4145180D01*
X17204762Y4145180D02*
X17204762Y5145180D01*
X17204762Y5145180D02*
X17109524Y5002323D01*
X17109524Y5002323D02*
X17014286Y4907085D01*
X17014286Y4907085D02*
X16919048Y4859466D01*
X17871429Y5049942D02*
X17919048Y5097561D01*
X17919048Y5097561D02*
X18014286Y5145180D01*
X18014286Y5145180D02*
X18252381Y5145180D01*
X18252381Y5145180D02*
X18347619Y5097561D01*
X18347619Y5097561D02*
X18395238Y5049942D01*
X18395238Y5049942D02*
X18442857Y4954704D01*
X18442857Y4954704D02*
X18442857Y4859466D01*
X18442857Y4859466D02*
X18395238Y4716609D01*
X18395238Y4716609D02*
X17823810Y4145180D01*
X17823810Y4145180D02*
X18442857Y4145180D01*
X28990476Y38495181D02*
X28990476Y37780896D01*
X28990476Y37780896D02*
X28942857Y37638039D01*
X28942857Y37638039D02*
X28847619Y37542800D01*
X28847619Y37542800D02*
X28704762Y37495181D01*
X28704762Y37495181D02*
X28609524Y37495181D01*
X29990476Y37495181D02*
X29419048Y37495181D01*
X29704762Y37495181D02*
X29704762Y38495181D01*
X29704762Y38495181D02*
X29609524Y38352324D01*
X29609524Y38352324D02*
X29514286Y38257086D01*
X29514286Y38257086D02*
X29419048Y38209467D01*
X30609524Y38495181D02*
X30704762Y38495181D01*
X30704762Y38495181D02*
X30800000Y38447562D01*
X30800000Y38447562D02*
X30847619Y38399943D01*
X30847619Y38399943D02*
X30895238Y38304705D01*
X30895238Y38304705D02*
X30942857Y38114229D01*
X30942857Y38114229D02*
X30942857Y37876134D01*
X30942857Y37876134D02*
X30895238Y37685658D01*
X30895238Y37685658D02*
X30847619Y37590420D01*
X30847619Y37590420D02*
X30800000Y37542800D01*
X30800000Y37542800D02*
X30704762Y37495181D01*
X30704762Y37495181D02*
X30609524Y37495181D01*
X30609524Y37495181D02*
X30514286Y37542800D01*
X30514286Y37542800D02*
X30466667Y37590420D01*
X30466667Y37590420D02*
X30419048Y37685658D01*
X30419048Y37685658D02*
X30371429Y37876134D01*
X30371429Y37876134D02*
X30371429Y38114229D01*
X30371429Y38114229D02*
X30419048Y38304705D01*
X30419048Y38304705D02*
X30466667Y38399943D01*
X30466667Y38399943D02*
X30514286Y38447562D01*
X30514286Y38447562D02*
X30609524Y38495181D01*
X2786796Y19163684D02*
X2786796Y18449399D01*
X2786796Y18449399D02*
X2739177Y18306542D01*
X2739177Y18306542D02*
X2643939Y18211303D01*
X2643939Y18211303D02*
X2501082Y18163684D01*
X2501082Y18163684D02*
X2405844Y18163684D01*
X3405844Y18735113D02*
X3310606Y18782732D01*
X3310606Y18782732D02*
X3262987Y18830351D01*
X3262987Y18830351D02*
X3215368Y18925589D01*
X3215368Y18925589D02*
X3215368Y18973208D01*
X3215368Y18973208D02*
X3262987Y19068446D01*
X3262987Y19068446D02*
X3310606Y19116065D01*
X3310606Y19116065D02*
X3405844Y19163684D01*
X3405844Y19163684D02*
X3596320Y19163684D01*
X3596320Y19163684D02*
X3691558Y19116065D01*
X3691558Y19116065D02*
X3739177Y19068446D01*
X3739177Y19068446D02*
X3786796Y18973208D01*
X3786796Y18973208D02*
X3786796Y18925589D01*
X3786796Y18925589D02*
X3739177Y18830351D01*
X3739177Y18830351D02*
X3691558Y18782732D01*
X3691558Y18782732D02*
X3596320Y18735113D01*
X3596320Y18735113D02*
X3405844Y18735113D01*
X3405844Y18735113D02*
X3310606Y18687494D01*
X3310606Y18687494D02*
X3262987Y18639875D01*
X3262987Y18639875D02*
X3215368Y18544637D01*
X3215368Y18544637D02*
X3215368Y18354161D01*
X3215368Y18354161D02*
X3262987Y18258923D01*
X3262987Y18258923D02*
X3310606Y18211303D01*
X3310606Y18211303D02*
X3405844Y18163684D01*
X3405844Y18163684D02*
X3596320Y18163684D01*
X3596320Y18163684D02*
X3691558Y18211303D01*
X3691558Y18211303D02*
X3739177Y18258923D01*
X3739177Y18258923D02*
X3786796Y18354161D01*
X3786796Y18354161D02*
X3786796Y18544637D01*
X3786796Y18544637D02*
X3739177Y18639875D01*
X3739177Y18639875D02*
X3691558Y18687494D01*
X3691558Y18687494D02*
X3596320Y18735113D01*
X27740476Y5295180D02*
X27740476Y4580895D01*
X27740476Y4580895D02*
X27692857Y4438038D01*
X27692857Y4438038D02*
X27597619Y4342799D01*
X27597619Y4342799D02*
X27454762Y4295180D01*
X27454762Y4295180D02*
X27359524Y4295180D01*
X28740476Y4295180D02*
X28169048Y4295180D01*
X28454762Y4295180D02*
X28454762Y5295180D01*
X28454762Y5295180D02*
X28359524Y5152323D01*
X28359524Y5152323D02*
X28264286Y5057085D01*
X28264286Y5057085D02*
X28169048Y5009466D01*
X29073810Y5295180D02*
X29692857Y5295180D01*
X29692857Y5295180D02*
X29359524Y4914228D01*
X29359524Y4914228D02*
X29502381Y4914228D01*
X29502381Y4914228D02*
X29597619Y4866609D01*
X29597619Y4866609D02*
X29645238Y4818990D01*
X29645238Y4818990D02*
X29692857Y4723752D01*
X29692857Y4723752D02*
X29692857Y4485657D01*
X29692857Y4485657D02*
X29645238Y4390419D01*
X29645238Y4390419D02*
X29597619Y4342799D01*
X29597619Y4342799D02*
X29502381Y4295180D01*
X29502381Y4295180D02*
X29216667Y4295180D01*
X29216667Y4295180D02*
X29121429Y4342799D01*
X29121429Y4342799D02*
X29073810Y4390419D01*
X2786796Y40663684D02*
X2786796Y39949399D01*
X2786796Y39949399D02*
X2739177Y39806542D01*
X2739177Y39806542D02*
X2643939Y39711303D01*
X2643939Y39711303D02*
X2501082Y39663684D01*
X2501082Y39663684D02*
X2405844Y39663684D01*
X3691558Y40330351D02*
X3691558Y39663684D01*
X3453463Y40711303D02*
X3215368Y39997018D01*
X3215368Y39997018D02*
X3834415Y39997018D01*
X19040476Y31595181D02*
X19040476Y30880896D01*
X19040476Y30880896D02*
X18992857Y30738039D01*
X18992857Y30738039D02*
X18897619Y30642800D01*
X18897619Y30642800D02*
X18754762Y30595181D01*
X18754762Y30595181D02*
X18659524Y30595181D01*
X20040476Y30595181D02*
X19469048Y30595181D01*
X19754762Y30595181D02*
X19754762Y31595181D01*
X19754762Y31595181D02*
X19659524Y31452324D01*
X19659524Y31452324D02*
X19564286Y31357086D01*
X19564286Y31357086D02*
X19469048Y31309467D01*
X20992857Y30595181D02*
X20421429Y30595181D01*
X20707143Y30595181D02*
X20707143Y31595181D01*
X20707143Y31595181D02*
X20611905Y31452324D01*
X20611905Y31452324D02*
X20516667Y31357086D01*
X20516667Y31357086D02*
X20421429Y31309467D01*
X2816666Y13745181D02*
X2816666Y13030896D01*
X2816666Y13030896D02*
X2769047Y12888039D01*
X2769047Y12888039D02*
X2673809Y12792800D01*
X2673809Y12792800D02*
X2530952Y12745181D01*
X2530952Y12745181D02*
X2435714Y12745181D01*
X3340476Y12745181D02*
X3530952Y12745181D01*
X3530952Y12745181D02*
X3626190Y12792800D01*
X3626190Y12792800D02*
X3673809Y12840420D01*
X3673809Y12840420D02*
X3769047Y12983277D01*
X3769047Y12983277D02*
X3816666Y13173753D01*
X3816666Y13173753D02*
X3816666Y13554705D01*
X3816666Y13554705D02*
X3769047Y13649943D01*
X3769047Y13649943D02*
X3721428Y13697562D01*
X3721428Y13697562D02*
X3626190Y13745181D01*
X3626190Y13745181D02*
X3435714Y13745181D01*
X3435714Y13745181D02*
X3340476Y13697562D01*
X3340476Y13697562D02*
X3292857Y13649943D01*
X3292857Y13649943D02*
X3245238Y13554705D01*
X3245238Y13554705D02*
X3245238Y13316610D01*
X3245238Y13316610D02*
X3292857Y13221372D01*
X3292857Y13221372D02*
X3340476Y13173753D01*
X3340476Y13173753D02*
X3435714Y13126134D01*
X3435714Y13126134D02*
X3626190Y13126134D01*
X3626190Y13126134D02*
X3721428Y13173753D01*
X3721428Y13173753D02*
X3769047Y13221372D01*
X3769047Y13221372D02*
X3816666Y13316610D01*
X2816666Y35245181D02*
X2816666Y34530896D01*
X2816666Y34530896D02*
X2769047Y34388039D01*
X2769047Y34388039D02*
X2673809Y34292800D01*
X2673809Y34292800D02*
X2530952Y34245181D01*
X2530952Y34245181D02*
X2435714Y34245181D01*
X3769047Y35245181D02*
X3292857Y35245181D01*
X3292857Y35245181D02*
X3245238Y34768991D01*
X3245238Y34768991D02*
X3292857Y34816610D01*
X3292857Y34816610D02*
X3388095Y34864229D01*
X3388095Y34864229D02*
X3626190Y34864229D01*
X3626190Y34864229D02*
X3721428Y34816610D01*
X3721428Y34816610D02*
X3769047Y34768991D01*
X3769047Y34768991D02*
X3816666Y34673753D01*
X3816666Y34673753D02*
X3816666Y34435658D01*
X3816666Y34435658D02*
X3769047Y34340420D01*
X3769047Y34340420D02*
X3721428Y34292800D01*
X3721428Y34292800D02*
X3626190Y34245181D01*
X3626190Y34245181D02*
X3388095Y34245181D01*
X3388095Y34245181D02*
X3292857Y34292800D01*
X3292857Y34292800D02*
X3245238Y34340420D01*
X12640476Y38745181D02*
X12973809Y37745181D01*
X12973809Y37745181D02*
X13307142Y38745181D01*
X14211904Y37745181D02*
X13878571Y38221372D01*
X13640476Y37745181D02*
X13640476Y38745181D01*
X13640476Y38745181D02*
X14021428Y38745181D01*
X14021428Y38745181D02*
X14116666Y38697562D01*
X14116666Y38697562D02*
X14164285Y38649943D01*
X14164285Y38649943D02*
X14211904Y38554705D01*
X14211904Y38554705D02*
X14211904Y38411848D01*
X14211904Y38411848D02*
X14164285Y38316610D01*
X14164285Y38316610D02*
X14116666Y38268991D01*
X14116666Y38268991D02*
X14021428Y38221372D01*
X14021428Y38221372D02*
X13640476Y38221372D01*
X15164285Y37745181D02*
X14592857Y37745181D01*
X14878571Y37745181D02*
X14878571Y38745181D01*
X14878571Y38745181D02*
X14783333Y38602324D01*
X14783333Y38602324D02*
X14688095Y38507086D01*
X14688095Y38507086D02*
X14592857Y38459467D01*
X2816666Y29913684D02*
X2816666Y29199399D01*
X2816666Y29199399D02*
X2769047Y29056542D01*
X2769047Y29056542D02*
X2673809Y28961303D01*
X2673809Y28961303D02*
X2530952Y28913684D01*
X2530952Y28913684D02*
X2435714Y28913684D01*
X3721428Y29913684D02*
X3530952Y29913684D01*
X3530952Y29913684D02*
X3435714Y29866065D01*
X3435714Y29866065D02*
X3388095Y29818446D01*
X3388095Y29818446D02*
X3292857Y29675589D01*
X3292857Y29675589D02*
X3245238Y29485113D01*
X3245238Y29485113D02*
X3245238Y29104161D01*
X3245238Y29104161D02*
X3292857Y29008923D01*
X3292857Y29008923D02*
X3340476Y28961303D01*
X3340476Y28961303D02*
X3435714Y28913684D01*
X3435714Y28913684D02*
X3626190Y28913684D01*
X3626190Y28913684D02*
X3721428Y28961303D01*
X3721428Y28961303D02*
X3769047Y29008923D01*
X3769047Y29008923D02*
X3816666Y29104161D01*
X3816666Y29104161D02*
X3816666Y29342256D01*
X3816666Y29342256D02*
X3769047Y29437494D01*
X3769047Y29437494D02*
X3721428Y29485113D01*
X3721428Y29485113D02*
X3626190Y29532732D01*
X3626190Y29532732D02*
X3435714Y29532732D01*
X3435714Y29532732D02*
X3340476Y29485113D01*
X3340476Y29485113D02*
X3292857Y29437494D01*
X3292857Y29437494D02*
X3245238Y29342256D01*
D15*
X12973755Y18599567D02*
X12973755Y18030682D01*
X12973755Y18599567D02*
X15243860Y18599567D01*
X12973755Y14168401D02*
X12973755Y13599516D01*
X16706140Y18599567D02*
X17243860Y18599567D01*
X18706140Y18599567D02*
X19243860Y18599567D01*
X20706140Y18599567D02*
X22975025Y18599567D01*
X22974949Y13599516D02*
X12974975Y13599516D01*
X22975025Y18599567D02*
X22975025Y18030682D01*
X22975025Y14168401D02*
X22975025Y13599516D01*
D16*
X21004997Y19062051D02*
G75*
G03*
X21004997Y19062051I-29997J0D01*
G01*
D15*
X796863Y27012002D02*
X1812865Y28028004D01*
X796863Y23074994D02*
X796863Y27012002D01*
X1812865Y28028004D02*
X10702883Y28028004D01*
X2614491Y27012002D02*
X796863Y27012002D01*
X5114364Y27012002D02*
X3885509Y27012002D01*
X7614491Y27012002D02*
X6385382Y27012002D01*
X10702883Y28028004D02*
X10702883Y27012002D01*
X10702883Y27012002D02*
X8885509Y27012002D01*
X10702883Y27012002D02*
X10702883Y23074994D01*
X10702883Y23074994D02*
X796863Y23074994D01*
D16*
X10859881Y28155004D02*
G75*
G03*
X10859881Y28155004I-29998J0D01*
G01*
D15*
X12300000Y5400101D02*
X12300000Y899974D01*
X12300000Y899974D02*
X22300000Y899974D01*
X22300000Y5400101D02*
X12300000Y5400101D01*
X22300000Y899974D02*
X22300000Y5400101D01*
X21945161Y1583997D02*
G75*
G03*
X21945161Y1583997I-359156J0D01*
G01*
D16*
X22456998Y5527101D02*
G75*
G03*
X22456998Y5527101I-29998J0D01*
G01*
D15*
X26700000Y39350102D02*
X26700000Y34849975D01*
X26700000Y34849975D02*
X32700000Y34849975D01*
X26778994Y36804001D02*
X27286995Y36804001D01*
X26778994Y36168999D02*
X27286995Y36168999D01*
X27286995Y38709004D02*
X32240005Y38709004D01*
X27286995Y36804001D02*
X27286995Y38709004D01*
X27286995Y36168999D02*
X27286995Y35406998D01*
X27286995Y35406998D02*
X29445999Y35406998D01*
X29445999Y35406998D02*
X29445999Y34898997D01*
X30033045Y35406998D02*
X30033045Y34898997D01*
X32192050Y36168999D02*
X32192050Y35406998D01*
X32192050Y35406998D02*
X30033045Y35406998D01*
X32240005Y38709004D02*
X32240005Y36804001D01*
X32240005Y36804001D02*
X32621006Y36804001D01*
X32700000Y39350102D02*
X26700000Y39350102D01*
X32700000Y34849975D02*
X32700000Y39350102D01*
X32700051Y36168999D02*
X32192050Y36168999D01*
D16*
X32679934Y39350102D02*
G75*
G03*
X32679934Y39350102I-29972J0D01*
G01*
D15*
X766993Y21680505D02*
X1782995Y22696507D01*
X766993Y17743497D02*
X766993Y21680505D01*
X1782995Y22696507D02*
X10673013Y22696507D01*
X2584621Y21680505D02*
X766993Y21680505D01*
X5084494Y21680505D02*
X3855639Y21680505D01*
X7584621Y21680505D02*
X6355512Y21680505D01*
X10673013Y22696507D02*
X10673013Y21680505D01*
X10673013Y21680505D02*
X8855639Y21680505D01*
X10673013Y21680505D02*
X10673013Y17743497D01*
X10673013Y17743497D02*
X766993Y17743497D01*
D16*
X10830011Y22823507D02*
G75*
G03*
X10830011Y22823507I-29998J0D01*
G01*
D15*
X23550000Y5550101D02*
X23550000Y1049974D01*
X23550000Y1049974D02*
X33550000Y1049974D01*
X33550000Y5550101D02*
X23550000Y5550101D01*
X33550000Y1049974D02*
X33550000Y5550101D01*
X33195161Y1733997D02*
G75*
G03*
X33195161Y1733997I-359156J0D01*
G01*
D16*
X33706998Y5677101D02*
G75*
G03*
X33706998Y5677101I-29998J0D01*
G01*
D15*
X766993Y43180505D02*
X1782995Y44196507D01*
X766993Y39243497D02*
X766993Y43180505D01*
X1782995Y44196507D02*
X10673013Y44196507D01*
X2584621Y43180505D02*
X766993Y43180505D01*
X5084494Y43180505D02*
X3855639Y43180505D01*
X7584621Y43180505D02*
X6355512Y43180505D01*
X10673013Y44196507D02*
X10673013Y43180505D01*
X10673013Y43180505D02*
X8855639Y43180505D01*
X10673013Y43180505D02*
X10673013Y39243497D01*
X10673013Y39243497D02*
X766993Y39243497D01*
D16*
X10830011Y44323507D02*
G75*
G03*
X10830011Y44323507I-29998J0D01*
G01*
D15*
X22926245Y26924993D02*
X22926245Y27493878D01*
X22926245Y26924993D02*
X20656140Y26924993D01*
X22926245Y31356159D02*
X22926245Y31925044D01*
X19193860Y26924993D02*
X18656140Y26924993D01*
X17193860Y26924993D02*
X16656140Y26924993D01*
X15193860Y26924993D02*
X12924975Y26924993D01*
X12925051Y31925044D02*
X22925025Y31925044D01*
X12924975Y26924993D02*
X12924975Y27493878D01*
X12924975Y31356159D02*
X12924975Y31925044D01*
D16*
X14954997Y26462509D02*
G75*
G03*
X14954997Y26462509I-29997J0D01*
G01*
D15*
X796863Y16262002D02*
X1812865Y17278004D01*
X796863Y12324994D02*
X796863Y16262002D01*
X1812865Y17278004D02*
X10702883Y17278004D01*
X2614491Y16262002D02*
X796863Y16262002D01*
X5114364Y16262002D02*
X3885509Y16262002D01*
X7614491Y16262002D02*
X6385382Y16262002D01*
X10702883Y17278004D02*
X10702883Y16262002D01*
X10702883Y16262002D02*
X8885509Y16262002D01*
X10702883Y16262002D02*
X10702883Y12324994D01*
X10702883Y12324994D02*
X796863Y12324994D01*
D16*
X10859881Y17405004D02*
G75*
G03*
X10859881Y17405004I-29998J0D01*
G01*
D15*
X796863Y37762002D02*
X1812865Y38778004D01*
X796863Y33824994D02*
X796863Y37762002D01*
X1812865Y38778004D02*
X10702883Y38778004D01*
X2614491Y37762002D02*
X796863Y37762002D01*
X5114364Y37762002D02*
X3885509Y37762002D01*
X7614491Y37762002D02*
X6385382Y37762002D01*
X10702883Y38778004D02*
X10702883Y37762002D01*
X10702883Y37762002D02*
X8885509Y37762002D01*
X10702883Y37762002D02*
X10702883Y33824994D01*
X10702883Y33824994D02*
X796863Y33824994D01*
D16*
X10859881Y38905004D02*
G75*
G03*
X10859881Y38905004I-29998J0D01*
G01*
D15*
X19016002Y32593991D02*
X11903988Y32593991D01*
X19016002Y35641998D02*
X19016002Y32593991D01*
X19016002Y39198005D02*
X19016002Y35641998D01*
X19016002Y39706006D02*
X19016002Y39198005D01*
X18508001Y39198005D02*
X18508001Y39706006D01*
X18508001Y39706006D02*
X19016002Y39706006D01*
X17491999Y39198005D02*
X18508001Y39198005D01*
X17491999Y39706006D02*
X17491999Y39198005D01*
X15967996Y39198005D02*
X15967996Y39706006D01*
X15967996Y39706006D02*
X17491999Y39706006D01*
X15459995Y37166001D02*
X15459995Y35133997D01*
X14951994Y39198005D02*
X15967996Y39198005D01*
X14951994Y39706006D02*
X14951994Y39198005D01*
X14443993Y36149999D02*
X16475997Y36149999D01*
X13427991Y39198005D02*
X13427991Y39706006D01*
X13427991Y39706006D02*
X14951994Y39706006D01*
X12411989Y39198005D02*
X13427991Y39198005D01*
X12411989Y39706006D02*
X12411989Y39198005D01*
X11903988Y32593991D02*
X11903988Y35641998D01*
X11903988Y35133997D02*
X11903988Y39198005D01*
X11903988Y39198005D02*
X11903988Y39706006D01*
X11903988Y39706006D02*
X12411989Y39706006D01*
X18000100Y33228995D02*
G75*
G03*
X17997460Y33228993I-1378J76187D01*
G01*
X15462394Y35014640D02*
G75*
G03*
X15439675Y35014616I-12559J1135857D01*
G01*
D16*
X19172999Y39833006D02*
G75*
G03*
X19172999Y39833006I-29997J0D01*
G01*
D15*
X796863Y32430505D02*
X1812865Y33446507D01*
X796863Y28493497D02*
X796863Y32430505D01*
X1812865Y33446507D02*
X10702883Y33446507D01*
X2614491Y32430505D02*
X796863Y32430505D01*
X5114364Y32430505D02*
X3885509Y32430505D01*
X7614491Y32430505D02*
X6385382Y32430505D01*
X10702883Y33446507D02*
X10702883Y32430505D01*
X10702883Y32430505D02*
X8885509Y32430505D01*
X10702883Y32430505D02*
X10702883Y28493497D01*
X10702883Y28493497D02*
X796863Y28493497D01*
D16*
X10859881Y33573507D02*
G75*
G03*
X10859881Y33573507I-29998J0D01*
G01*
M02*
