M48
; DRILL file {KiCad 7.0.5-0} date 2024 November 07, Thursday 13:18:15
; FORMAT={-:-/ absolute / metric / decimal}
; #@! TF.CreationDate,2024-11-07T13:18:15-08:00
; #@! TF.GenerationSoftware,Kicad,Pcbnew,7.0.5-0
; #@! TF.FileFunction,Plated,1,2,PTH
FMAT,2
METRIC
; #@! TA.AperFunction,Plated,PTH,ViaDrill
T1C0.600
; #@! TA.AperFunction,Plated,PTH,ComponentDrill
T2C0.762
; #@! TA.AperFunction,Plated,PTH,ComponentDrill
T3C0.900
; #@! TA.AperFunction,Plated,PTH,ComponentDrill
T4C0.914
; #@! TA.AperFunction,Plated,PTH,ComponentDrill
T5C1.000
; #@! TA.AperFunction,Plated,PTH,ComponentDrill
T6C1.100
%
G90
G05
T1
X6.5Y3.55
X11.95Y31.95
X11.95Y28.0
X12.85Y38.25
X17.4Y38.3
X17.8Y6.25
X19.95Y36.75
X20.075Y31.825
X21.55Y23.6
X23.4Y23.9
X23.85Y36.65
X24.75Y31.95
X31.6Y38.1
X35.2Y1.65
T2
X12.92Y36.15
X15.46Y33.61
X18.0Y36.15
T3
X28.7Y36.55
X30.7Y36.55
T4
X3.22Y42.419
X3.22Y20.919
X3.25Y37.0
X3.25Y31.669
X3.25Y26.25
X3.25Y15.5
X5.72Y42.419
X5.72Y20.919
X5.75Y37.0
X5.75Y31.669
X5.75Y26.25
X5.75Y15.5
X8.22Y42.419
X8.22Y20.919
X8.25Y37.0
X8.25Y31.669
X8.25Y26.25
X8.25Y15.5
T5
X14.3Y2.6
X16.3Y2.6
X18.3Y2.6
X20.3Y2.6
X25.55Y2.75
X27.55Y2.75
X29.55Y2.75
X31.55Y2.75
T6
X6.454Y48.795
X6.454Y46.255
X6.46Y10.67
X6.46Y8.13
X8.994Y48.795
X8.994Y46.255
X9.0Y10.67
X9.0Y8.13
X11.534Y48.795
X11.534Y46.255
X11.54Y10.67
X11.54Y8.13
X14.074Y48.795
X14.074Y46.255
X14.08Y10.67
X14.08Y8.13
X16.614Y48.795
X16.614Y46.255
X16.62Y10.67
X16.62Y8.13
X19.154Y48.795
X19.154Y46.255
X19.16Y10.67
X19.16Y8.13
X21.694Y48.795
X21.694Y46.255
X21.7Y10.67
X21.7Y8.13
X24.234Y48.795
X24.234Y46.255
X24.24Y10.67
X24.24Y8.13
X26.774Y48.795
X26.774Y46.255
X26.78Y10.67
X26.78Y8.13
X29.314Y48.795
X29.314Y46.255
X29.32Y10.67
X29.32Y8.13
X31.854Y48.795
X31.854Y46.255
X31.86Y10.67
X31.86Y8.13
X34.394Y48.795
X34.394Y46.255
X34.4Y10.67
X34.4Y8.13
X36.934Y48.795
X36.934Y46.255
X36.94Y10.67
X36.94Y8.13
T0
M30
