G04 #@! TF.GenerationSoftware,KiCad,Pcbnew,7.0.5-0*
G04 #@! TF.CreationDate,2024-11-07T14:34:30-08:00*
G04 #@! TF.ProjectId,IMU Mount,494d5520-4d6f-4756-9e74-2e6b69636164,rev?*
G04 #@! TF.SameCoordinates,PX5f5e100PY5f5e100*
G04 #@! TF.FileFunction,Copper,L2,Bot*
G04 #@! TF.FilePolarity,Positive*
%FSLAX46Y46*%
G04 Gerber Fmt 4.6, Leading zero omitted, Abs format (unit mm)*
G04 Created by KiCad (PCBNEW 7.0.5-0) date 2024-11-07 14:34:30*
%MOMM*%
%LPD*%
G01*
G04 APERTURE LIST*
G04 #@! TA.AperFunction,ComponentPad*
%ADD10R,1.574803X1.574803*%
G04 #@! TD*
G04 #@! TA.AperFunction,ComponentPad*
%ADD11C,1.574803*%
G04 #@! TD*
G04 #@! TA.AperFunction,ComponentPad*
%ADD12C,1.600000*%
G04 #@! TD*
G04 #@! TA.AperFunction,ComponentPad*
%ADD13C,1.000000*%
G04 #@! TD*
G04 #@! TA.AperFunction,ViaPad*
%ADD14C,0.900000*%
G04 #@! TD*
G04 #@! TA.AperFunction,Conductor*
%ADD15C,0.500000*%
G04 #@! TD*
G04 APERTURE END LIST*
D10*
X18890005Y11050000D03*
D11*
X16350000Y11050000D03*
X13809995Y11050000D03*
D12*
X25100000Y3150000D03*
X23100000Y3150000D03*
X21100000Y3150000D03*
X19100000Y3150000D03*
D13*
X29229998Y15809983D03*
X30500000Y15809983D03*
X29229998Y17079985D03*
X30500000Y17079985D03*
X29229998Y18349988D03*
X30500000Y18349988D03*
X29229998Y19619990D03*
X30500000Y19619990D03*
X29229998Y20889993D03*
X30500000Y20889993D03*
X29229998Y22159995D03*
X30500000Y22159995D03*
X29229998Y23429998D03*
X30500000Y23429998D03*
X29229998Y24700000D03*
X30500000Y24700000D03*
X29229998Y25970003D03*
X30500000Y25970003D03*
X29229998Y27240005D03*
X30500000Y27240005D03*
X2200000Y15800000D03*
X3470002Y15800000D03*
X2200000Y17070002D03*
X3470002Y17070002D03*
X2200000Y18340005D03*
X3470002Y18340005D03*
X2200000Y19610007D03*
X3470002Y19610007D03*
X2200000Y20880010D03*
X3470002Y20880010D03*
X2200000Y22150012D03*
X3470002Y22150012D03*
X2200000Y23420015D03*
X3470002Y23420015D03*
X2200000Y24690017D03*
X3470002Y24690017D03*
X2200000Y25960020D03*
X3470002Y25960020D03*
X2200000Y27230022D03*
X3470002Y27230022D03*
D14*
X29800000Y28850000D03*
X23550000Y20350000D03*
X2900000Y28850000D03*
D15*
X23100000Y6840005D02*
X18890005Y11050000D01*
X23100000Y3150000D02*
X23100000Y6840005D01*
G04 #@! TA.AperFunction,Conductor*
G36*
X23350188Y4746573D02*
G01*
X23352859Y4742437D01*
X23835099Y3466742D01*
X23834819Y3457792D01*
X23828645Y3451801D01*
X23104490Y3150866D01*
X23095536Y3150856D01*
X22371353Y3451802D01*
X22365029Y3458140D01*
X22364900Y3466740D01*
X22847141Y4742438D01*
X22853272Y4748964D01*
X22858085Y4750000D01*
X23341915Y4750000D01*
X23350188Y4746573D01*
G37*
G04 #@! TD.AperFunction*
G04 #@! TA.AperFunction,Conductor*
G36*
X19676227Y11371958D02*
G01*
X19682240Y11366311D01*
X20407270Y9890112D01*
X20407841Y9881175D01*
X20405041Y9876681D01*
X20063324Y9534964D01*
X20055051Y9531537D01*
X20049893Y9532735D01*
X18573695Y10257765D01*
X18567780Y10264488D01*
X18568039Y10272733D01*
X18887443Y11046217D01*
X18893764Y11052552D01*
X19667272Y11371967D01*
X19676227Y11371958D01*
G37*
G04 #@! TD.AperFunction*
G04 #@! TA.AperFunction,Conductor*
G36*
X31102018Y30020333D02*
G01*
X31292495Y30007850D01*
X31350407Y30004054D01*
X31358444Y30002996D01*
X31600574Y29954832D01*
X31608411Y29952732D01*
X31721044Y29914498D01*
X31842182Y29873377D01*
X31849676Y29870274D01*
X32071108Y29761075D01*
X32078121Y29757025D01*
X32283392Y29619864D01*
X32289829Y29614925D01*
X32475404Y29452177D01*
X32475432Y29452153D01*
X32481172Y29446412D01*
X32643943Y29260804D01*
X32648886Y29254363D01*
X32786038Y29049094D01*
X32790098Y29042063D01*
X32899280Y28820656D01*
X32902387Y28813155D01*
X32981739Y28579385D01*
X32983840Y28571543D01*
X33031998Y28329418D01*
X33033057Y28321369D01*
X33049367Y28072468D01*
X33049500Y28068413D01*
X33049500Y2430847D01*
X33049498Y2430829D01*
X33049499Y2402028D01*
X33049366Y2397972D01*
X33033098Y2149589D01*
X33032038Y2141539D01*
X33018005Y2070974D01*
X32983885Y1899404D01*
X32981785Y1891568D01*
X32902434Y1657787D01*
X32899330Y1650293D01*
X32790146Y1428879D01*
X32786086Y1421847D01*
X32648934Y1216578D01*
X32643991Y1210137D01*
X32481216Y1024525D01*
X32475475Y1018784D01*
X32289863Y856009D01*
X32283422Y851066D01*
X32078153Y713914D01*
X32071121Y709854D01*
X32033725Y691413D01*
X31849702Y600668D01*
X31842213Y597566D01*
X31722747Y557016D01*
X31608432Y518215D01*
X31600596Y516115D01*
X31499908Y496092D01*
X31358461Y467962D01*
X31350411Y466902D01*
X31102028Y450633D01*
X31097972Y450501D01*
X31058941Y450503D01*
X31058927Y450500D01*
X1602038Y450500D01*
X1597982Y450633D01*
X1349591Y466913D01*
X1341542Y467973D01*
X1099420Y516135D01*
X1091581Y518236D01*
X857799Y597594D01*
X850321Y600691D01*
X628901Y709883D01*
X621870Y713942D01*
X416602Y851098D01*
X410166Y856036D01*
X224551Y1018815D01*
X218812Y1024554D01*
X200785Y1045110D01*
X56033Y1210170D01*
X51101Y1216598D01*
X-86059Y1421871D01*
X-90116Y1428897D01*
X-199313Y1650329D01*
X-202405Y1657794D01*
X-281769Y1891592D01*
X-283864Y1899414D01*
X-332030Y2141556D01*
X-333088Y2149593D01*
X-334031Y2163976D01*
X-343869Y2314091D01*
X-349367Y2397982D01*
X-349500Y2402038D01*
X-349500Y3400000D01*
X944396Y3400000D01*
X964778Y3141010D01*
X1025427Y2888390D01*
X1124843Y2648377D01*
X1124845Y2648373D01*
X1124846Y2648372D01*
X1260588Y2426860D01*
X1429311Y2229311D01*
X1626860Y2060588D01*
X1848372Y1924846D01*
X1848374Y1924846D01*
X1848376Y1924844D01*
X1909693Y1899446D01*
X2088390Y1825427D01*
X2341006Y1764779D01*
X2600000Y1744396D01*
X2858994Y1764779D01*
X3111610Y1825427D01*
X3351628Y1924846D01*
X3573140Y2060588D01*
X3770689Y2229311D01*
X3939412Y2426860D01*
X4075154Y2648372D01*
X4174573Y2888390D01*
X4235221Y3141006D01*
X4255604Y3400000D01*
X4235221Y3658994D01*
X4174573Y3911610D01*
X4111879Y4062965D01*
X4075156Y4151624D01*
X4072878Y4155341D01*
X3939412Y4373140D01*
X3770689Y4570689D01*
X3573140Y4739412D01*
X3351628Y4875154D01*
X3351627Y4875155D01*
X3351623Y4875157D01*
X3172141Y4949500D01*
X3111610Y4974573D01*
X3111611Y4974573D01*
X2973921Y5007630D01*
X2858994Y5035221D01*
X2858992Y5035222D01*
X2858991Y5035222D01*
X2624189Y5053701D01*
X2600000Y5055604D01*
X2599999Y5055604D01*
X2341009Y5035222D01*
X2088389Y4974573D01*
X1848376Y4875157D01*
X1626859Y4739412D01*
X1429311Y4570689D01*
X1260588Y4373141D01*
X1124843Y4151624D01*
X1025427Y3911611D01*
X964778Y3658991D01*
X944396Y3400000D01*
X-349500Y3400000D01*
X-349500Y11050000D01*
X12817314Y11050000D01*
X12836387Y10856340D01*
X12845713Y10825597D01*
X12892877Y10670117D01*
X12954078Y10555618D01*
X12984613Y10498493D01*
X13108063Y10348069D01*
X13258487Y10224619D01*
X13258491Y10224616D01*
X13430112Y10132882D01*
X13616333Y10076393D01*
X13809995Y10057319D01*
X14003657Y10076393D01*
X14189878Y10132882D01*
X14361499Y10224616D01*
X14511926Y10348069D01*
X14635379Y10498496D01*
X14727113Y10670117D01*
X14783602Y10856338D01*
X14802676Y11049999D01*
X15057681Y11049999D01*
X15077313Y10825597D01*
X15077315Y10825586D01*
X15135614Y10608009D01*
X15135618Y10608000D01*
X15230818Y10403841D01*
X15280020Y10333574D01*
X15858859Y10912414D01*
X15881309Y10835956D01*
X15960598Y10712581D01*
X16071433Y10616542D01*
X16204836Y10555618D01*
X16208625Y10555074D01*
X15633572Y9980022D01*
X15703842Y9930818D01*
X15907999Y9835619D01*
X15908008Y9835615D01*
X16125585Y9777316D01*
X16125596Y9777314D01*
X16349998Y9757681D01*
X16350002Y9757681D01*
X16574403Y9777314D01*
X16574414Y9777316D01*
X16791991Y9835615D01*
X16792000Y9835619D01*
X16996161Y9930820D01*
X17066425Y9980022D01*
X16803601Y10242846D01*
X17902103Y10242846D01*
X17913734Y10184369D01*
X17913735Y10184368D01*
X17958050Y10118046D01*
X18024372Y10073731D01*
X18024373Y10073730D01*
X18082850Y10062099D01*
X18082853Y10062098D01*
X18082855Y10062098D01*
X18477126Y10062098D01*
X18531790Y10049399D01*
X19931636Y9361869D01*
X19964650Y9338251D01*
X22613180Y6689721D01*
X22646665Y6628398D01*
X22649499Y6602040D01*
X22649500Y4823429D01*
X22641489Y4779583D01*
X22208630Y3634517D01*
X22166512Y3578769D01*
X22100941Y3554641D01*
X22032734Y3569794D01*
X21983547Y3619417D01*
X21983406Y3619679D01*
X21935910Y3708538D01*
X21858807Y3802488D01*
X21810883Y3860884D01*
X21658539Y3985910D01*
X21658532Y3985914D01*
X21484733Y4078812D01*
X21484727Y4078814D01*
X21296132Y4136024D01*
X21296129Y4136025D01*
X21100000Y4155341D01*
X20903870Y4136025D01*
X20715266Y4078812D01*
X20541467Y3985914D01*
X20541460Y3985910D01*
X20389116Y3860884D01*
X20264090Y3708540D01*
X20264085Y3708533D01*
X20209358Y3606144D01*
X20160396Y3556299D01*
X20092258Y3540839D01*
X20026578Y3564671D01*
X19990642Y3606144D01*
X19935914Y3708533D01*
X19935909Y3708540D01*
X19810883Y3860884D01*
X19658539Y3985910D01*
X19658532Y3985914D01*
X19484733Y4078812D01*
X19484727Y4078814D01*
X19296132Y4136024D01*
X19296129Y4136025D01*
X19100000Y4155341D01*
X18903870Y4136025D01*
X18715266Y4078812D01*
X18541467Y3985914D01*
X18541460Y3985910D01*
X18389116Y3860884D01*
X18264090Y3708540D01*
X18264086Y3708533D01*
X18171188Y3534734D01*
X18113975Y3346130D01*
X18094659Y3150000D01*
X18113975Y2953871D01*
X18123218Y2923401D01*
X18161729Y2796447D01*
X18171188Y2765267D01*
X18264086Y2591468D01*
X18264090Y2591461D01*
X18389116Y2439117D01*
X18541460Y2314091D01*
X18541467Y2314087D01*
X18715266Y2221189D01*
X18715269Y2221189D01*
X18715273Y2221186D01*
X18903868Y2163976D01*
X19100000Y2144659D01*
X19296132Y2163976D01*
X19484727Y2221186D01*
X19658538Y2314090D01*
X19810883Y2439117D01*
X19935910Y2591462D01*
X19966332Y2648377D01*
X19990642Y2693857D01*
X20039604Y2743701D01*
X20107742Y2759162D01*
X20173421Y2735330D01*
X20209358Y2693857D01*
X20264086Y2591468D01*
X20264090Y2591461D01*
X20389116Y2439117D01*
X20541460Y2314091D01*
X20541467Y2314087D01*
X20715266Y2221189D01*
X20715269Y2221189D01*
X20715273Y2221186D01*
X20903868Y2163976D01*
X21100000Y2144659D01*
X21296132Y2163976D01*
X21484727Y2221186D01*
X21658538Y2314090D01*
X21810883Y2439117D01*
X21935910Y2591462D01*
X21966332Y2648377D01*
X21990642Y2693857D01*
X22039604Y2743701D01*
X22107742Y2759162D01*
X22173421Y2735330D01*
X22209358Y2693857D01*
X22264086Y2591468D01*
X22264090Y2591461D01*
X22389116Y2439117D01*
X22541460Y2314091D01*
X22541467Y2314087D01*
X22715266Y2221189D01*
X22715269Y2221189D01*
X22715273Y2221186D01*
X22903868Y2163976D01*
X23100000Y2144659D01*
X23296132Y2163976D01*
X23484727Y2221186D01*
X23658538Y2314090D01*
X23810883Y2439117D01*
X23810884Y2439118D01*
X23815051Y2444195D01*
X23872795Y2483531D01*
X23942640Y2485404D01*
X24002409Y2449218D01*
X24012481Y2436656D01*
X24020972Y2424529D01*
X24020974Y2424528D01*
X24616922Y3020477D01*
X24640507Y2940156D01*
X24718239Y2819202D01*
X24826900Y2725048D01*
X24957685Y2665320D01*
X24967466Y2663914D01*
X24374526Y2070975D01*
X24374526Y2070974D01*
X24447512Y2019869D01*
X24447516Y2019867D01*
X24653673Y1923735D01*
X24653682Y1923731D01*
X24873389Y1864861D01*
X24873400Y1864859D01*
X25099998Y1845034D01*
X25100002Y1845034D01*
X25326599Y1864859D01*
X25326610Y1864861D01*
X25546317Y1923731D01*
X25546331Y1923736D01*
X25752478Y2019864D01*
X25825472Y2070975D01*
X25232534Y2663914D01*
X25242315Y2665320D01*
X25373100Y2725048D01*
X25481761Y2819202D01*
X25559493Y2940156D01*
X25583076Y3020477D01*
X26179025Y2424528D01*
X26230136Y2497522D01*
X26326264Y2703669D01*
X26326269Y2703683D01*
X26385139Y2923390D01*
X26385141Y2923401D01*
X26404966Y3149998D01*
X26404966Y3150003D01*
X26385141Y3376600D01*
X26385139Y3376611D01*
X26378872Y3400001D01*
X28444396Y3400001D01*
X28464778Y3141010D01*
X28525427Y2888390D01*
X28624843Y2648377D01*
X28624845Y2648373D01*
X28624846Y2648372D01*
X28760588Y2426860D01*
X28929311Y2229311D01*
X29126860Y2060588D01*
X29348372Y1924846D01*
X29348374Y1924846D01*
X29348376Y1924844D01*
X29409693Y1899446D01*
X29588390Y1825427D01*
X29841006Y1764779D01*
X30100000Y1744396D01*
X30358994Y1764779D01*
X30611610Y1825427D01*
X30851628Y1924846D01*
X31073140Y2060588D01*
X31270689Y2229311D01*
X31439412Y2426860D01*
X31575154Y2648372D01*
X31674573Y2888390D01*
X31735221Y3141006D01*
X31755604Y3400000D01*
X31735221Y3658994D01*
X31674573Y3911610D01*
X31611879Y4062965D01*
X31575156Y4151624D01*
X31572878Y4155341D01*
X31439412Y4373140D01*
X31270689Y4570689D01*
X31073140Y4739412D01*
X30851628Y4875154D01*
X30851627Y4875155D01*
X30851623Y4875157D01*
X30672141Y4949500D01*
X30611610Y4974573D01*
X30611611Y4974573D01*
X30473921Y5007630D01*
X30358994Y5035221D01*
X30358992Y5035222D01*
X30358991Y5035222D01*
X30100000Y5055604D01*
X29841009Y5035222D01*
X29588389Y4974573D01*
X29348376Y4875157D01*
X29126859Y4739412D01*
X28929311Y4570689D01*
X28760588Y4373141D01*
X28624843Y4151624D01*
X28525427Y3911611D01*
X28464778Y3658991D01*
X28444396Y3400001D01*
X26378872Y3400001D01*
X26326269Y3596318D01*
X26326265Y3596327D01*
X26230133Y3802484D01*
X26230131Y3802488D01*
X26179026Y3875474D01*
X26179025Y3875474D01*
X25583076Y3279525D01*
X25559493Y3359844D01*
X25481761Y3480798D01*
X25373100Y3574952D01*
X25242315Y3634680D01*
X25232533Y3636087D01*
X25825472Y4229026D01*
X25825471Y4229027D01*
X25752483Y4280134D01*
X25752481Y4280135D01*
X25546326Y4376266D01*
X25546317Y4376270D01*
X25326610Y4435140D01*
X25326599Y4435142D01*
X25100002Y4454966D01*
X25099998Y4454966D01*
X24873400Y4435142D01*
X24873389Y4435140D01*
X24653682Y4376270D01*
X24653673Y4376266D01*
X24447513Y4280132D01*
X24374527Y4229028D01*
X24374526Y4229027D01*
X24967467Y3636087D01*
X24957685Y3634680D01*
X24826900Y3574952D01*
X24718239Y3480798D01*
X24640507Y3359844D01*
X24616923Y3279524D01*
X24020973Y3875474D01*
X23997726Y3873439D01*
X23929226Y3887205D01*
X23879043Y3935820D01*
X23870936Y3953106D01*
X23558509Y4779586D01*
X23550500Y4823423D01*
X23550500Y6811223D01*
X23550889Y6818162D01*
X23555270Y6857040D01*
X23544416Y6914398D01*
X23544037Y6916638D01*
X23535348Y6974290D01*
X23535348Y6974292D01*
X23535346Y6974296D01*
X23532833Y6982444D01*
X23530021Y6990482D01*
X23502770Y7042041D01*
X23501724Y7044112D01*
X23476425Y7096648D01*
X23471624Y7103689D01*
X23466567Y7110540D01*
X23466566Y7110543D01*
X23425331Y7151778D01*
X23423722Y7153448D01*
X23384053Y7196201D01*
X23376790Y7201993D01*
X23377310Y7202646D01*
X23365070Y7212039D01*
X20601755Y9975354D01*
X20578136Y10008370D01*
X19890607Y11408216D01*
X19877907Y11462881D01*
X19877907Y11857153D01*
X19877906Y11857155D01*
X19866275Y11915632D01*
X19866274Y11915633D01*
X19821959Y11981955D01*
X19755637Y12026270D01*
X19755636Y12026271D01*
X19697159Y12037902D01*
X19697155Y12037902D01*
X18082855Y12037902D01*
X18082850Y12037902D01*
X18024373Y12026271D01*
X18024372Y12026270D01*
X17958050Y11981955D01*
X17913735Y11915633D01*
X17913734Y11915632D01*
X17902103Y11857155D01*
X17902103Y10242846D01*
X16803601Y10242846D01*
X16491373Y10555074D01*
X16495164Y10555618D01*
X16628567Y10616542D01*
X16739402Y10712581D01*
X16818691Y10835956D01*
X16841140Y10912414D01*
X17419978Y10333575D01*
X17469180Y10403839D01*
X17564381Y10608000D01*
X17564385Y10608009D01*
X17622684Y10825586D01*
X17622686Y10825597D01*
X17642319Y11049999D01*
X17642319Y11050002D01*
X17622686Y11274404D01*
X17622684Y11274415D01*
X17564385Y11491992D01*
X17564381Y11492001D01*
X17469181Y11696159D01*
X17469180Y11696161D01*
X17419979Y11766428D01*
X17419978Y11766428D01*
X16841139Y11187589D01*
X16818691Y11264044D01*
X16739402Y11387419D01*
X16628567Y11483458D01*
X16495164Y11544382D01*
X16491372Y11544928D01*
X17066426Y12119980D01*
X16996159Y12169182D01*
X16792000Y12264382D01*
X16791991Y12264386D01*
X16574414Y12322685D01*
X16574403Y12322687D01*
X16350002Y12342319D01*
X16349998Y12342319D01*
X16125596Y12322687D01*
X16125585Y12322685D01*
X15908008Y12264386D01*
X15907999Y12264383D01*
X15703838Y12169180D01*
X15633573Y12119981D01*
X15633572Y12119980D01*
X16208625Y11544927D01*
X16204836Y11544382D01*
X16071433Y11483458D01*
X15960598Y11387419D01*
X15881309Y11264044D01*
X15858860Y11187589D01*
X15280020Y11766428D01*
X15280019Y11766428D01*
X15230820Y11696162D01*
X15135617Y11492001D01*
X15135614Y11491992D01*
X15077315Y11274415D01*
X15077313Y11274404D01*
X15057681Y11050002D01*
X15057681Y11049999D01*
X14802676Y11049999D01*
X14802676Y11050000D01*
X14783602Y11243662D01*
X14727113Y11429883D01*
X14635379Y11601504D01*
X14635376Y11601508D01*
X14511926Y11751932D01*
X14361502Y11875382D01*
X14361500Y11875383D01*
X14361499Y11875384D01*
X14189878Y11967118D01*
X14096767Y11995363D01*
X14003655Y12023608D01*
X13831151Y12040598D01*
X13809995Y12042681D01*
X13809994Y12042681D01*
X13616334Y12023608D01*
X13430109Y11967117D01*
X13258487Y11875382D01*
X13108063Y11751932D01*
X12984613Y11601508D01*
X12892878Y11429886D01*
X12836387Y11243661D01*
X12817314Y11050000D01*
X-349500Y11050000D01*
X-349500Y15800001D01*
X1494355Y15800001D01*
X1514859Y15631131D01*
X1514860Y15631126D01*
X1575182Y15472069D01*
X1624506Y15400612D01*
X1671817Y15332071D01*
X1777505Y15238440D01*
X1799150Y15219264D01*
X1930752Y15150194D01*
X1949775Y15140210D01*
X2114944Y15099500D01*
X2285056Y15099500D01*
X2450225Y15140210D01*
X2529692Y15181919D01*
X2600849Y15219264D01*
X2600850Y15219266D01*
X2600852Y15219266D01*
X2728183Y15332071D01*
X2732948Y15338976D01*
X2787226Y15382966D01*
X2856674Y15390630D01*
X2919241Y15359531D01*
X2937047Y15338983D01*
X2941816Y15332074D01*
X3069152Y15219264D01*
X3200754Y15150194D01*
X3219777Y15140210D01*
X3384946Y15099500D01*
X3555058Y15099500D01*
X3720227Y15140210D01*
X3799694Y15181919D01*
X3870851Y15219264D01*
X3870852Y15219266D01*
X3870854Y15219266D01*
X3998185Y15332071D01*
X4094820Y15472070D01*
X4155142Y15631128D01*
X4175647Y15800000D01*
X4174435Y15809984D01*
X28524353Y15809984D01*
X28544857Y15641114D01*
X28544858Y15641109D01*
X28605180Y15482052D01*
X28661395Y15400612D01*
X28701815Y15342054D01*
X28807503Y15248423D01*
X28829148Y15229247D01*
X28979771Y15150194D01*
X28979773Y15150193D01*
X29144942Y15109483D01*
X29315054Y15109483D01*
X29480223Y15150193D01*
X29559690Y15191902D01*
X29630847Y15229247D01*
X29630848Y15229249D01*
X29630850Y15229249D01*
X29758181Y15342054D01*
X29762949Y15348963D01*
X29817231Y15392952D01*
X29886679Y15400612D01*
X29949245Y15369509D01*
X29967047Y15348965D01*
X29971817Y15342054D01*
X30075494Y15250204D01*
X30099150Y15229247D01*
X30249773Y15150194D01*
X30249775Y15150193D01*
X30414944Y15109483D01*
X30585056Y15109483D01*
X30750225Y15150193D01*
X30829692Y15191902D01*
X30900849Y15229247D01*
X30900850Y15229249D01*
X30900852Y15229249D01*
X31028183Y15342054D01*
X31124818Y15482053D01*
X31185140Y15641111D01*
X31205645Y15809983D01*
X31185140Y15978855D01*
X31124818Y16137913D01*
X31028183Y16277912D01*
X30944362Y16352170D01*
X30907237Y16411358D01*
X30908005Y16481223D01*
X30944362Y16537798D01*
X31028183Y16612056D01*
X31124818Y16752055D01*
X31185140Y16911113D01*
X31205645Y17079985D01*
X31185140Y17248857D01*
X31124818Y17407915D01*
X31028183Y17547914D01*
X30944361Y17622173D01*
X30907236Y17681361D01*
X30908004Y17751226D01*
X30944362Y17807801D01*
X31028183Y17882059D01*
X31124818Y18022058D01*
X31185140Y18181116D01*
X31205645Y18349988D01*
X31185140Y18518860D01*
X31124818Y18677918D01*
X31028183Y18817917D01*
X31028181Y18817919D01*
X30944364Y18892175D01*
X30907237Y18951364D01*
X30908005Y19021230D01*
X30944363Y19077804D01*
X31028183Y19152061D01*
X31124818Y19292060D01*
X31185140Y19451118D01*
X31205645Y19619990D01*
X31185140Y19788862D01*
X31124818Y19947920D01*
X31028183Y20087919D01*
X30944361Y20162178D01*
X30907236Y20221366D01*
X30908004Y20291231D01*
X30944362Y20347806D01*
X31028183Y20422064D01*
X31124818Y20562063D01*
X31185140Y20721121D01*
X31205645Y20889993D01*
X31185140Y21058865D01*
X31124818Y21217923D01*
X31028183Y21357922D01*
X30944362Y21432180D01*
X30907237Y21491368D01*
X30908005Y21561233D01*
X30944362Y21617808D01*
X31028183Y21692066D01*
X31124818Y21832065D01*
X31185140Y21991123D01*
X31205645Y22159995D01*
X31185140Y22328867D01*
X31124818Y22487925D01*
X31028183Y22627924D01*
X30944361Y22702183D01*
X30907236Y22761371D01*
X30908004Y22831236D01*
X30944362Y22887811D01*
X31028183Y22962069D01*
X31124818Y23102068D01*
X31185140Y23261126D01*
X31205645Y23429998D01*
X31185140Y23598870D01*
X31124818Y23757928D01*
X31028183Y23897927D01*
X30944362Y23972185D01*
X30907237Y24031373D01*
X30908005Y24101238D01*
X30944362Y24157813D01*
X31028183Y24232071D01*
X31124818Y24372070D01*
X31185140Y24531128D01*
X31205645Y24700000D01*
X31185140Y24868872D01*
X31124818Y25027930D01*
X31028183Y25167929D01*
X30944361Y25242188D01*
X30907236Y25301376D01*
X30908004Y25371241D01*
X30944362Y25427816D01*
X31028183Y25502074D01*
X31124818Y25642073D01*
X31185140Y25801131D01*
X31205645Y25970003D01*
X31185140Y26138875D01*
X31124818Y26297933D01*
X31028183Y26437932D01*
X30944362Y26512190D01*
X30907237Y26571378D01*
X30908005Y26641243D01*
X30944362Y26697818D01*
X31028183Y26772076D01*
X31124818Y26912075D01*
X31185140Y27071133D01*
X31205645Y27240005D01*
X31185140Y27408877D01*
X31124818Y27567935D01*
X31028183Y27707934D01*
X30900852Y27820739D01*
X30900849Y27820742D01*
X30750226Y27899795D01*
X30585056Y27940505D01*
X30414944Y27940505D01*
X30249773Y27899795D01*
X30099150Y27820742D01*
X29971816Y27707933D01*
X29875181Y27567935D01*
X29875178Y27567929D01*
X29862442Y27534346D01*
X29834182Y27490638D01*
X29554992Y27211448D01*
X29554992Y27297310D01*
X29515793Y27405009D01*
X29442123Y27492806D01*
X29342867Y27550111D01*
X29258434Y27564999D01*
X29201562Y27564999D01*
X29117129Y27550111D01*
X29017873Y27492806D01*
X28944203Y27405009D01*
X28905004Y27297310D01*
X28905004Y27182700D01*
X28944203Y27075001D01*
X29017873Y26987204D01*
X29117129Y26929899D01*
X29201562Y26915011D01*
X29258434Y26915011D01*
X29258583Y26915038D01*
X29229998Y26886452D01*
X28979577Y26636032D01*
X28949522Y26613917D01*
X28829152Y26550742D01*
X28829148Y26550739D01*
X28701814Y26437931D01*
X28605180Y26297935D01*
X28544858Y26138878D01*
X28544857Y26138873D01*
X28524353Y25970003D01*
X28544857Y25801134D01*
X28544858Y25801129D01*
X28605180Y25642072D01*
X28661395Y25560632D01*
X28701815Y25502074D01*
X28785635Y25427817D01*
X28822761Y25368628D01*
X28821993Y25298763D01*
X28785634Y25242187D01*
X28701816Y25167931D01*
X28605180Y25027932D01*
X28544858Y24868875D01*
X28544857Y24868870D01*
X28524353Y24700000D01*
X28544857Y24531131D01*
X28544858Y24531126D01*
X28605180Y24372069D01*
X28661395Y24290629D01*
X28701814Y24232072D01*
X28701816Y24232070D01*
X28785633Y24157814D01*
X28822760Y24098625D01*
X28821992Y24028759D01*
X28785633Y23972184D01*
X28701816Y23897929D01*
X28605180Y23757930D01*
X28544858Y23598873D01*
X28544857Y23598868D01*
X28524353Y23429998D01*
X28544857Y23261129D01*
X28544858Y23261124D01*
X28605180Y23102067D01*
X28661395Y23020627D01*
X28701815Y22962069D01*
X28785635Y22887812D01*
X28822761Y22828623D01*
X28821993Y22758758D01*
X28785634Y22702182D01*
X28701816Y22627926D01*
X28605180Y22487927D01*
X28544858Y22328870D01*
X28544857Y22328865D01*
X28524353Y22159996D01*
X28544857Y21991126D01*
X28544858Y21991121D01*
X28605180Y21832064D01*
X28661395Y21750624D01*
X28701814Y21692067D01*
X28701816Y21692065D01*
X28785633Y21617809D01*
X28822760Y21558620D01*
X28821992Y21488754D01*
X28785633Y21432179D01*
X28701816Y21357924D01*
X28605180Y21217925D01*
X28544858Y21058868D01*
X28544857Y21058863D01*
X28524353Y20889993D01*
X28544857Y20721124D01*
X28544858Y20721119D01*
X28605180Y20562062D01*
X28661395Y20480622D01*
X28701815Y20422064D01*
X28785635Y20347807D01*
X28822761Y20288618D01*
X28821993Y20218753D01*
X28785634Y20162177D01*
X28701816Y20087921D01*
X28605180Y19947922D01*
X28544858Y19788865D01*
X28544857Y19788860D01*
X28524353Y19619990D01*
X28544857Y19451121D01*
X28544858Y19451116D01*
X28605180Y19292059D01*
X28661395Y19210619D01*
X28701815Y19152061D01*
X28785634Y19077804D01*
X28822760Y19018616D01*
X28821992Y18948751D01*
X28785634Y18892175D01*
X28701814Y18817917D01*
X28605180Y18677920D01*
X28544858Y18518863D01*
X28544857Y18518858D01*
X28524353Y18349989D01*
X28544857Y18181119D01*
X28544858Y18181114D01*
X28605180Y18022057D01*
X28661395Y17940617D01*
X28701815Y17882059D01*
X28785635Y17807802D01*
X28822761Y17748613D01*
X28821993Y17678748D01*
X28785634Y17622172D01*
X28701816Y17547916D01*
X28605180Y17407917D01*
X28544858Y17248860D01*
X28544857Y17248855D01*
X28524353Y17079985D01*
X28544857Y16911116D01*
X28544858Y16911111D01*
X28605180Y16752054D01*
X28661395Y16670614D01*
X28701814Y16612057D01*
X28701816Y16612055D01*
X28785633Y16537799D01*
X28822760Y16478610D01*
X28821992Y16408744D01*
X28785633Y16352169D01*
X28701816Y16277914D01*
X28605180Y16137915D01*
X28544858Y15978858D01*
X28544857Y15978853D01*
X28524353Y15809984D01*
X4174435Y15809984D01*
X4155142Y15968872D01*
X4094820Y16127930D01*
X3998185Y16267929D01*
X3998183Y16267931D01*
X3914366Y16342187D01*
X3877239Y16401376D01*
X3878007Y16471242D01*
X3914365Y16527816D01*
X3998185Y16602073D01*
X4094820Y16742072D01*
X4155142Y16901130D01*
X4175647Y17070002D01*
X4155142Y17238874D01*
X4094820Y17397932D01*
X3998185Y17537931D01*
X3914363Y17612190D01*
X3877238Y17671378D01*
X3878006Y17741243D01*
X3914364Y17797818D01*
X3998185Y17872076D01*
X4094820Y18012075D01*
X4155142Y18171133D01*
X4175647Y18340005D01*
X4155142Y18508877D01*
X4094820Y18667935D01*
X3998185Y18807934D01*
X3914364Y18882192D01*
X3877239Y18941380D01*
X3878007Y19011245D01*
X3914364Y19067820D01*
X3998185Y19142078D01*
X4094820Y19282077D01*
X4155142Y19441135D01*
X4175647Y19610007D01*
X4155142Y19778879D01*
X4094820Y19937937D01*
X3998185Y20077936D01*
X3914363Y20152195D01*
X3877238Y20211383D01*
X3878006Y20281248D01*
X3914364Y20337823D01*
X3998185Y20412081D01*
X4094820Y20552080D01*
X4155142Y20711138D01*
X4175647Y20880010D01*
X4155142Y21048882D01*
X4094820Y21207940D01*
X3998185Y21347939D01*
X3914364Y21422197D01*
X3877239Y21481385D01*
X3878007Y21551250D01*
X3914364Y21607825D01*
X3998185Y21682083D01*
X4094820Y21822082D01*
X4155142Y21981140D01*
X4175647Y22150012D01*
X4155142Y22318884D01*
X4094820Y22477942D01*
X3998185Y22617941D01*
X3914363Y22692200D01*
X3877238Y22751388D01*
X3878006Y22821253D01*
X3914364Y22877828D01*
X3998185Y22952086D01*
X4094820Y23092085D01*
X4155142Y23251143D01*
X4175647Y23420015D01*
X4155142Y23588887D01*
X4094820Y23747945D01*
X3998185Y23887944D01*
X3914364Y23962202D01*
X3877239Y24021390D01*
X3878007Y24091255D01*
X3914364Y24147830D01*
X3998185Y24222088D01*
X4094820Y24362087D01*
X4155142Y24521145D01*
X4175647Y24690017D01*
X4155142Y24858889D01*
X4094820Y25017947D01*
X3998185Y25157946D01*
X3914363Y25232205D01*
X3877238Y25291393D01*
X3878006Y25361258D01*
X3914364Y25417833D01*
X3998185Y25492091D01*
X4094820Y25632090D01*
X4155142Y25791148D01*
X4175647Y25960020D01*
X4155142Y26128892D01*
X4094820Y26287950D01*
X3998185Y26427949D01*
X3998183Y26427951D01*
X3914366Y26502207D01*
X3877239Y26561396D01*
X3878007Y26631262D01*
X3914365Y26687836D01*
X3998185Y26762093D01*
X4094820Y26902092D01*
X4155142Y27061150D01*
X4175647Y27230022D01*
X4174435Y27240006D01*
X28225159Y27240006D01*
X28244466Y27043975D01*
X28301650Y26855467D01*
X28367920Y26731483D01*
X28876444Y27240005D01*
X28876444Y27240006D01*
X28367920Y27748529D01*
X28301650Y27624544D01*
X28244466Y27436036D01*
X28225159Y27240006D01*
X4174435Y27240006D01*
X4155142Y27398894D01*
X4094820Y27557952D01*
X4087933Y27567929D01*
X4060478Y27607704D01*
X3998185Y27697951D01*
X3870854Y27810756D01*
X3870851Y27810759D01*
X3720228Y27889812D01*
X3555058Y27930522D01*
X3384946Y27930522D01*
X3219775Y27889812D01*
X3069152Y27810759D01*
X2941817Y27697950D01*
X2937049Y27691041D01*
X2882765Y27647052D01*
X2813316Y27639395D01*
X2750752Y27670500D01*
X2732953Y27691041D01*
X2728184Y27697950D01*
X2600849Y27810759D01*
X2450226Y27889812D01*
X2285056Y27930522D01*
X2114944Y27930522D01*
X1949773Y27889812D01*
X1799150Y27810759D01*
X1671816Y27697950D01*
X1575182Y27557954D01*
X1514860Y27398897D01*
X1514859Y27398892D01*
X1494355Y27230023D01*
X1514859Y27061153D01*
X1514860Y27061148D01*
X1575182Y26902091D01*
X1607365Y26855467D01*
X1671817Y26762093D01*
X1755636Y26687836D01*
X1792762Y26628648D01*
X1791994Y26558783D01*
X1755636Y26502207D01*
X1671816Y26427949D01*
X1575182Y26287952D01*
X1514860Y26128895D01*
X1514859Y26128890D01*
X1494355Y25960021D01*
X1514859Y25791151D01*
X1514860Y25791146D01*
X1575182Y25632089D01*
X1624506Y25560632D01*
X1671817Y25492091D01*
X1755637Y25417834D01*
X1792763Y25358645D01*
X1791995Y25288780D01*
X1755636Y25232204D01*
X1671818Y25157948D01*
X1575182Y25017949D01*
X1514860Y24858892D01*
X1514859Y24858887D01*
X1494355Y24690017D01*
X1514859Y24521148D01*
X1514860Y24521143D01*
X1575182Y24362086D01*
X1631397Y24280646D01*
X1671816Y24222089D01*
X1671818Y24222087D01*
X1755635Y24147831D01*
X1792762Y24088642D01*
X1791994Y24018776D01*
X1755635Y23962201D01*
X1671818Y23887946D01*
X1575182Y23747947D01*
X1514860Y23588890D01*
X1514859Y23588885D01*
X1494355Y23420015D01*
X1514859Y23251146D01*
X1514860Y23251141D01*
X1575182Y23092084D01*
X1624506Y23020627D01*
X1671817Y22952086D01*
X1755637Y22877829D01*
X1792763Y22818640D01*
X1791995Y22748775D01*
X1755636Y22692199D01*
X1671818Y22617943D01*
X1575182Y22477944D01*
X1514860Y22318887D01*
X1514859Y22318882D01*
X1494355Y22150012D01*
X1514859Y21981143D01*
X1514860Y21981138D01*
X1575182Y21822081D01*
X1631396Y21740642D01*
X1671816Y21682084D01*
X1671818Y21682082D01*
X1755635Y21607826D01*
X1792762Y21548637D01*
X1791994Y21478771D01*
X1755635Y21422196D01*
X1671818Y21347941D01*
X1575182Y21207942D01*
X1514860Y21048885D01*
X1514859Y21048880D01*
X1494355Y20880010D01*
X1514859Y20711141D01*
X1514860Y20711136D01*
X1575182Y20552079D01*
X1624506Y20480622D01*
X1671817Y20412081D01*
X1755637Y20337824D01*
X1792763Y20278635D01*
X1791995Y20208770D01*
X1755636Y20152194D01*
X1671818Y20077938D01*
X1575182Y19937939D01*
X1514860Y19778882D01*
X1514859Y19778877D01*
X1494355Y19610007D01*
X1514859Y19441138D01*
X1514860Y19441133D01*
X1575182Y19282076D01*
X1631396Y19200637D01*
X1671816Y19142079D01*
X1671818Y19142077D01*
X1755635Y19067821D01*
X1792762Y19008632D01*
X1791994Y18938766D01*
X1755635Y18882191D01*
X1671818Y18807936D01*
X1575182Y18667937D01*
X1514860Y18508880D01*
X1514859Y18508875D01*
X1494355Y18340006D01*
X1514859Y18171136D01*
X1514860Y18171131D01*
X1575182Y18012074D01*
X1624506Y17940617D01*
X1671817Y17872076D01*
X1755637Y17797819D01*
X1792763Y17738630D01*
X1791995Y17668765D01*
X1755636Y17612189D01*
X1671818Y17537933D01*
X1575182Y17397934D01*
X1514860Y17238877D01*
X1514859Y17238872D01*
X1494355Y17070002D01*
X1514859Y16901133D01*
X1514860Y16901128D01*
X1575182Y16742071D01*
X1624506Y16670614D01*
X1671817Y16602073D01*
X1755636Y16527816D01*
X1792762Y16468628D01*
X1791994Y16398763D01*
X1755636Y16342187D01*
X1671816Y16267929D01*
X1575182Y16127932D01*
X1514860Y15968875D01*
X1514859Y15968870D01*
X1494355Y15800001D01*
X-349500Y15800001D01*
X-349500Y28068934D01*
X-349367Y28072988D01*
X-347461Y28102082D01*
X28721473Y28102082D01*
X29229996Y27593559D01*
X29229997Y27593559D01*
X29738520Y28102083D01*
X29738520Y28102084D01*
X29614536Y28168353D01*
X29426028Y28225537D01*
X29229997Y28244844D01*
X29033967Y28225537D01*
X28845459Y28168353D01*
X28721474Y28102083D01*
X28721473Y28102082D01*
X-347461Y28102082D01*
X-333092Y28321373D01*
X-332035Y28329409D01*
X-283872Y28571561D01*
X-281775Y28579385D01*
X-202420Y28813171D01*
X-199313Y28820669D01*
X-120830Y28979822D01*
X-90125Y29042087D01*
X-86069Y29049111D01*
X-32397Y29129441D01*
X51093Y29254394D01*
X56025Y29260821D01*
X218804Y29446438D01*
X224532Y29452167D01*
X410157Y29614958D01*
X416587Y29619891D01*
X447787Y29640739D01*
X621869Y29757060D01*
X628868Y29761101D01*
X850315Y29870308D01*
X857797Y29873406D01*
X1091593Y29952770D01*
X1099401Y29954862D01*
X1341555Y30003030D01*
X1349580Y30004087D01*
X1597455Y30020334D01*
X1601504Y30020466D01*
X1616408Y30020466D01*
X31083592Y30020466D01*
X31097962Y30020466D01*
X31102018Y30020333D01*
G37*
G04 #@! TD.AperFunction*
M02*
