G04 #@! TF.GenerationSoftware,KiCad,Pcbnew,7.0.5-0*
G04 #@! TF.CreationDate,2024-11-07T14:34:30-08:00*
G04 #@! TF.ProjectId,IMU Mount,494d5520-4d6f-4756-9e74-2e6b69636164,rev?*
G04 #@! TF.SameCoordinates,PX5f5e100PY5f5e100*
G04 #@! TF.FileFunction,Soldermask,Bot*
G04 #@! TF.FilePolarity,Negative*
%FSLAX46Y46*%
G04 Gerber Fmt 4.6, Leading zero omitted, Abs format (unit mm)*
G04 Created by KiCad (PCBNEW 7.0.5-0) date 2024-11-07 14:34:30*
%MOMM*%
%LPD*%
G01*
G04 APERTURE LIST*
%ADD10R,1.574803X1.574803*%
%ADD11C,1.574803*%
%ADD12C,1.600000*%
%ADD13C,1.000000*%
G04 APERTURE END LIST*
D10*
X18890005Y11050000D03*
D11*
X16350000Y11050000D03*
X13809995Y11050000D03*
D12*
X25100000Y3150000D03*
X23100000Y3150000D03*
X21100000Y3150000D03*
X19100000Y3150000D03*
D13*
X29229998Y15809983D03*
X30500000Y15809983D03*
X29229998Y17079985D03*
X30500000Y17079985D03*
X29229998Y18349988D03*
X30500000Y18349988D03*
X29229998Y19619990D03*
X30500000Y19619990D03*
X29229998Y20889993D03*
X30500000Y20889993D03*
X29229998Y22159995D03*
X30500000Y22159995D03*
X29229998Y23429998D03*
X30500000Y23429998D03*
X29229998Y24700000D03*
X30500000Y24700000D03*
X29229998Y25970003D03*
X30500000Y25970003D03*
X29229998Y27240005D03*
X30500000Y27240005D03*
X2200000Y15800000D03*
X3470002Y15800000D03*
X2200000Y17070002D03*
X3470002Y17070002D03*
X2200000Y18340005D03*
X3470002Y18340005D03*
X2200000Y19610007D03*
X3470002Y19610007D03*
X2200000Y20880010D03*
X3470002Y20880010D03*
X2200000Y22150012D03*
X3470002Y22150012D03*
X2200000Y23420015D03*
X3470002Y23420015D03*
X2200000Y24690017D03*
X3470002Y24690017D03*
X2200000Y25960020D03*
X3470002Y25960020D03*
X2200000Y27230022D03*
X3470002Y27230022D03*
M02*
