M48
; DRILL file {KiCad 7.0.5-0} date 2024 November 07, Thursday 14:34:26
; FORMAT={-:-/ absolute / metric / decimal}
; #@! TF.CreationDate,2024-11-07T14:34:26-08:00
; #@! TF.GenerationSoftware,Kicad,Pcbnew,7.0.5-0
; #@! TF.FileFunction,Plated,1,2,PTH
FMAT,2
METRIC
; #@! TA.AperFunction,Plated,PTH,ViaDrill
T1C0.600
; #@! TA.AperFunction,Plated,PTH,ComponentDrill
T2C0.650
; #@! TA.AperFunction,Plated,PTH,ComponentDrill
T3C1.000
; #@! TA.AperFunction,Plated,PTH,ComponentDrill
T4C1.020
%
G90
G05
T1
X2.9Y28.85
X23.55Y20.35
X29.8Y28.85
T2
X2.2Y27.23
X2.2Y25.96
X2.2Y24.69
X2.2Y23.42
X2.2Y22.15
X2.2Y20.88
X2.2Y19.61
X2.2Y18.34
X2.2Y17.07
X2.2Y15.8
X3.47Y27.23
X3.47Y25.96
X3.47Y24.69
X3.47Y23.42
X3.47Y22.15
X3.47Y20.88
X3.47Y19.61
X3.47Y18.34
X3.47Y17.07
X3.47Y15.8
X29.23Y27.24
X29.23Y25.97
X29.23Y24.7
X29.23Y23.43
X29.23Y22.16
X29.23Y20.89
X29.23Y19.62
X29.23Y18.35
X29.23Y17.08
X29.23Y15.81
X30.5Y27.24
X30.5Y25.97
X30.5Y24.7
X30.5Y23.43
X30.5Y22.16
X30.5Y20.89
X30.5Y19.62
X30.5Y18.35
X30.5Y17.08
X30.5Y15.81
T3
X19.1Y3.15
X21.1Y3.15
X23.1Y3.15
X25.1Y3.15
T4
X13.81Y11.05
X16.35Y11.05
X18.89Y11.05
T0
M30
