G04 #@! TF.GenerationSoftware,KiCad,Pcbnew,7.0.5-0*
G04 #@! TF.CreationDate,2024-11-07T14:34:30-08:00*
G04 #@! TF.ProjectId,IMU Mount,494d5520-4d6f-4756-9e74-2e6b69636164,rev?*
G04 #@! TF.SameCoordinates,PX5f5e100PY5f5e100*
G04 #@! TF.FileFunction,Legend,Bot*
G04 #@! TF.FilePolarity,Positive*
%FSLAX46Y46*%
G04 Gerber Fmt 4.6, Leading zero omitted, Abs format (unit mm)*
G04 Created by KiCad (PCBNEW 7.0.5-0) date 2024-11-07 14:34:30*
%MOMM*%
%LPD*%
G01*
G04 APERTURE LIST*
%ADD10C,0.200000*%
%ADD11C,0.100000*%
%ADD12C,0.150000*%
%ADD13C,0.152400*%
%ADD14C,0.059995*%
G04 APERTURE END LIST*
D10*
X4820802Y8888496D02*
X5296993Y8888496D01*
X5296993Y8888496D02*
X5296993Y11745639D01*
X5296993Y11745639D02*
X4820802Y11745639D01*
X3677946Y11555162D02*
X3487469Y11555162D01*
X3487469Y11555162D02*
X3296993Y11459924D01*
X3296993Y11459924D02*
X3201755Y11364686D01*
X3201755Y11364686D02*
X3106517Y11174210D01*
X3106517Y11174210D02*
X3011279Y10793258D01*
X3011279Y10793258D02*
X3011279Y10317067D01*
X3011279Y10317067D02*
X3106517Y9936115D01*
X3106517Y9936115D02*
X3201755Y9745639D01*
X3201755Y9745639D02*
X3296993Y9650400D01*
X3296993Y9650400D02*
X3487469Y9555162D01*
X3487469Y9555162D02*
X3677946Y9555162D01*
X3677946Y9555162D02*
X3868422Y9650400D01*
X3868422Y9650400D02*
X3963660Y9745639D01*
X3963660Y9745639D02*
X4058898Y9936115D01*
X4058898Y9936115D02*
X4154136Y10317067D01*
X4154136Y10317067D02*
X4154136Y10793258D01*
X4154136Y10793258D02*
X4058898Y11174210D01*
X4058898Y11174210D02*
X3963660Y11364686D01*
X3963660Y11364686D02*
X3868422Y11459924D01*
X3868422Y11459924D02*
X3677946Y11555162D01*
X2344612Y8888496D02*
X1868422Y8888496D01*
X1868422Y8888496D02*
X1868422Y11745639D01*
X1868422Y11745639D02*
X2344612Y11745639D01*
D11*
X30986591Y8053105D02*
X31253258Y8434058D01*
X31443734Y8053105D02*
X31443734Y8853105D01*
X31443734Y8853105D02*
X31138972Y8853105D01*
X31138972Y8853105D02*
X31062782Y8815010D01*
X31062782Y8815010D02*
X31024687Y8776915D01*
X31024687Y8776915D02*
X30986591Y8700724D01*
X30986591Y8700724D02*
X30986591Y8586439D01*
X30986591Y8586439D02*
X31024687Y8510248D01*
X31024687Y8510248D02*
X31062782Y8472153D01*
X31062782Y8472153D02*
X31138972Y8434058D01*
X31138972Y8434058D02*
X31443734Y8434058D01*
X30338972Y8091200D02*
X30415163Y8053105D01*
X30415163Y8053105D02*
X30567544Y8053105D01*
X30567544Y8053105D02*
X30643734Y8091200D01*
X30643734Y8091200D02*
X30681830Y8167391D01*
X30681830Y8167391D02*
X30681830Y8472153D01*
X30681830Y8472153D02*
X30643734Y8548343D01*
X30643734Y8548343D02*
X30567544Y8586439D01*
X30567544Y8586439D02*
X30415163Y8586439D01*
X30415163Y8586439D02*
X30338972Y8548343D01*
X30338972Y8548343D02*
X30300877Y8472153D01*
X30300877Y8472153D02*
X30300877Y8395962D01*
X30300877Y8395962D02*
X30681830Y8319772D01*
X30034211Y8586439D02*
X29843735Y8053105D01*
X29843735Y8053105D02*
X29653258Y8586439D01*
X28777068Y8281677D02*
X28396115Y8281677D01*
X28853258Y8053105D02*
X28586591Y8853105D01*
X28586591Y8853105D02*
X28319925Y8053105D01*
D12*
X31558458Y12140181D02*
X30891792Y12140181D01*
X30891792Y12140181D02*
X31558458Y11140181D01*
X31558458Y11140181D02*
X30891792Y11140181D01*
X30129887Y11187800D02*
X30225125Y11140181D01*
X30225125Y11140181D02*
X30415601Y11140181D01*
X30415601Y11140181D02*
X30510839Y11187800D01*
X30510839Y11187800D02*
X30558458Y11283039D01*
X30558458Y11283039D02*
X30558458Y11663991D01*
X30558458Y11663991D02*
X30510839Y11759229D01*
X30510839Y11759229D02*
X30415601Y11806848D01*
X30415601Y11806848D02*
X30225125Y11806848D01*
X30225125Y11806848D02*
X30129887Y11759229D01*
X30129887Y11759229D02*
X30082268Y11663991D01*
X30082268Y11663991D02*
X30082268Y11568753D01*
X30082268Y11568753D02*
X30558458Y11473515D01*
X29653696Y11140181D02*
X29653696Y11806848D01*
X29653696Y11616372D02*
X29606077Y11711610D01*
X29606077Y11711610D02*
X29558458Y11759229D01*
X29558458Y11759229D02*
X29463220Y11806848D01*
X29463220Y11806848D02*
X29367982Y11806848D01*
X28891791Y11140181D02*
X28987029Y11187800D01*
X28987029Y11187800D02*
X29034648Y11235420D01*
X29034648Y11235420D02*
X29082267Y11330658D01*
X29082267Y11330658D02*
X29082267Y11616372D01*
X29082267Y11616372D02*
X29034648Y11711610D01*
X29034648Y11711610D02*
X28987029Y11759229D01*
X28987029Y11759229D02*
X28891791Y11806848D01*
X28891791Y11806848D02*
X28748934Y11806848D01*
X28748934Y11806848D02*
X28653696Y11759229D01*
X28653696Y11759229D02*
X28606077Y11711610D01*
X28606077Y11711610D02*
X28558458Y11616372D01*
X28558458Y11616372D02*
X28558458Y11330658D01*
X28558458Y11330658D02*
X28606077Y11235420D01*
X28606077Y11235420D02*
X28653696Y11187800D01*
X28653696Y11187800D02*
X28748934Y11140181D01*
X28748934Y11140181D02*
X28891791Y11140181D01*
X28272743Y11806848D02*
X27891791Y11806848D01*
X28129886Y12140181D02*
X28129886Y11283039D01*
X28129886Y11283039D02*
X28082267Y11187800D01*
X28082267Y11187800D02*
X27987029Y11140181D01*
X27987029Y11140181D02*
X27891791Y11140181D01*
X27558457Y11140181D02*
X27558457Y12140181D01*
X27129886Y11140181D02*
X27129886Y11663991D01*
X27129886Y11663991D02*
X27177505Y11759229D01*
X27177505Y11759229D02*
X27272743Y11806848D01*
X27272743Y11806848D02*
X27415600Y11806848D01*
X27415600Y11806848D02*
X27510838Y11759229D01*
X27510838Y11759229D02*
X27558457Y11711610D01*
X31463220Y9530181D02*
X31463220Y10530181D01*
X30987030Y9530181D02*
X30987030Y10530181D01*
X30987030Y10530181D02*
X30653697Y9815896D01*
X30653697Y9815896D02*
X30320364Y10530181D01*
X30320364Y10530181D02*
X30320364Y9530181D01*
X29844173Y10530181D02*
X29844173Y9720658D01*
X29844173Y9720658D02*
X29796554Y9625420D01*
X29796554Y9625420D02*
X29748935Y9577800D01*
X29748935Y9577800D02*
X29653697Y9530181D01*
X29653697Y9530181D02*
X29463221Y9530181D01*
X29463221Y9530181D02*
X29367983Y9577800D01*
X29367983Y9577800D02*
X29320364Y9625420D01*
X29320364Y9625420D02*
X29272745Y9720658D01*
X29272745Y9720658D02*
X29272745Y10530181D01*
X28034649Y9530181D02*
X28034649Y10530181D01*
X28034649Y10530181D02*
X27701316Y9815896D01*
X27701316Y9815896D02*
X27367983Y10530181D01*
X27367983Y10530181D02*
X27367983Y9530181D01*
X26748935Y9530181D02*
X26844173Y9577800D01*
X26844173Y9577800D02*
X26891792Y9625420D01*
X26891792Y9625420D02*
X26939411Y9720658D01*
X26939411Y9720658D02*
X26939411Y10006372D01*
X26939411Y10006372D02*
X26891792Y10101610D01*
X26891792Y10101610D02*
X26844173Y10149229D01*
X26844173Y10149229D02*
X26748935Y10196848D01*
X26748935Y10196848D02*
X26606078Y10196848D01*
X26606078Y10196848D02*
X26510840Y10149229D01*
X26510840Y10149229D02*
X26463221Y10101610D01*
X26463221Y10101610D02*
X26415602Y10006372D01*
X26415602Y10006372D02*
X26415602Y9720658D01*
X26415602Y9720658D02*
X26463221Y9625420D01*
X26463221Y9625420D02*
X26510840Y9577800D01*
X26510840Y9577800D02*
X26606078Y9530181D01*
X26606078Y9530181D02*
X26748935Y9530181D01*
X25558459Y10196848D02*
X25558459Y9530181D01*
X25987030Y10196848D02*
X25987030Y9673039D01*
X25987030Y9673039D02*
X25939411Y9577800D01*
X25939411Y9577800D02*
X25844173Y9530181D01*
X25844173Y9530181D02*
X25701316Y9530181D01*
X25701316Y9530181D02*
X25606078Y9577800D01*
X25606078Y9577800D02*
X25558459Y9625420D01*
X25082268Y10196848D02*
X25082268Y9530181D01*
X25082268Y10101610D02*
X25034649Y10149229D01*
X25034649Y10149229D02*
X24939411Y10196848D01*
X24939411Y10196848D02*
X24796554Y10196848D01*
X24796554Y10196848D02*
X24701316Y10149229D01*
X24701316Y10149229D02*
X24653697Y10053991D01*
X24653697Y10053991D02*
X24653697Y9530181D01*
X24320363Y10196848D02*
X23939411Y10196848D01*
X24177506Y10530181D02*
X24177506Y9673039D01*
X24177506Y9673039D02*
X24129887Y9577800D01*
X24129887Y9577800D02*
X24034649Y9530181D01*
X24034649Y9530181D02*
X23939411Y9530181D01*
D11*
X1408020Y11486439D02*
X1103258Y11486439D01*
X1293734Y11753105D02*
X1293734Y11067391D01*
X1293734Y11067391D02*
X1255639Y10991200D01*
X1255639Y10991200D02*
X1179449Y10953105D01*
X1179449Y10953105D02*
X1103258Y10953105D01*
X836591Y10953105D02*
X836591Y11753105D01*
X493734Y10953105D02*
X493734Y11372153D01*
X493734Y11372153D02*
X531829Y11448343D01*
X531829Y11448343D02*
X608020Y11486439D01*
X608020Y11486439D02*
X722306Y11486439D01*
X722306Y11486439D02*
X798496Y11448343D01*
X798496Y11448343D02*
X836591Y11410248D01*
D12*
X26504819Y27383334D02*
X27219104Y27383334D01*
X27219104Y27383334D02*
X27361961Y27430953D01*
X27361961Y27430953D02*
X27457200Y27526191D01*
X27457200Y27526191D02*
X27504819Y27669048D01*
X27504819Y27669048D02*
X27504819Y27764286D01*
X27504819Y26383334D02*
X27504819Y26954762D01*
X27504819Y26669048D02*
X26504819Y26669048D01*
X26504819Y26669048D02*
X26647676Y26764286D01*
X26647676Y26764286D02*
X26742914Y26859524D01*
X26742914Y26859524D02*
X26790533Y26954762D01*
X5104819Y27483334D02*
X5819104Y27483334D01*
X5819104Y27483334D02*
X5961961Y27530953D01*
X5961961Y27530953D02*
X6057200Y27626191D01*
X6057200Y27626191D02*
X6104819Y27769048D01*
X6104819Y27769048D02*
X6104819Y27864286D01*
X5200057Y27054762D02*
X5152438Y27007143D01*
X5152438Y27007143D02*
X5104819Y26911905D01*
X5104819Y26911905D02*
X5104819Y26673810D01*
X5104819Y26673810D02*
X5152438Y26578572D01*
X5152438Y26578572D02*
X5200057Y26530953D01*
X5200057Y26530953D02*
X5295295Y26483334D01*
X5295295Y26483334D02*
X5390533Y26483334D01*
X5390533Y26483334D02*
X5533390Y26530953D01*
X5533390Y26530953D02*
X6104819Y27102381D01*
X6104819Y27102381D02*
X6104819Y26483334D01*
D13*
X28088799Y15098781D02*
X31641199Y15098781D01*
X31641199Y15098781D02*
X31641199Y27951181D01*
X28088799Y27951181D02*
X28088799Y15098781D01*
X31641199Y27951181D02*
X28088799Y27951181D01*
D14*
X28194946Y15174981D02*
G75*
G03*
X28194946Y15174981I-29972J0D01*
G01*
D11*
X27959996Y15682982D02*
G75*
G03*
X27959996Y15682982I-127001J0D01*
G01*
D13*
X1058801Y15088798D02*
X4611201Y15088798D01*
X4611201Y15088798D02*
X4611201Y27941198D01*
X1058801Y27941198D02*
X1058801Y15088798D01*
X4611201Y27941198D02*
X1058801Y27941198D01*
D14*
X1164948Y15164998D02*
G75*
G03*
X1164948Y15164998I-29972J0D01*
G01*
D11*
X929998Y15672999D02*
G75*
G03*
X929998Y15672999I-127001J0D01*
G01*
M02*
