G04 #@! TF.GenerationSoftware,KiCad,Pcbnew,7.0.5-0*
G04 #@! TF.CreationDate,2024-11-07T14:34:30-08:00*
G04 #@! TF.ProjectId,IMU Mount,494d5520-4d6f-4756-9e74-2e6b69636164,rev?*
G04 #@! TF.SameCoordinates,PX5f5e100PY5f5e100*
G04 #@! TF.FileFunction,Legend,Top*
G04 #@! TF.FilePolarity,Positive*
%FSLAX46Y46*%
G04 Gerber Fmt 4.6, Leading zero omitted, Abs format (unit mm)*
G04 Created by KiCad (PCBNEW 7.0.5-0) date 2024-11-07 14:34:30*
%MOMM*%
%LPD*%
G01*
G04 APERTURE LIST*
%ADD10C,0.120000*%
%ADD11C,0.100000*%
%ADD12C,0.150000*%
%ADD13C,0.254000*%
%ADD14C,0.059995*%
G04 APERTURE END LIST*
D10*
X12450000Y21300000D02*
X20300000Y21300000D01*
X20300000Y19050000D01*
X12450000Y19050000D01*
X12450000Y21300000D01*
D11*
X21984836Y7886439D02*
X21794360Y7886439D01*
X21794360Y7886439D02*
X21794360Y9029296D01*
X21794360Y9029296D02*
X21984836Y9029296D01*
X22289598Y8153105D02*
X22289598Y8953105D01*
X22289598Y8953105D02*
X22594360Y8953105D01*
X22594360Y8953105D02*
X22670550Y8915010D01*
X22670550Y8915010D02*
X22708645Y8876915D01*
X22708645Y8876915D02*
X22746741Y8800724D01*
X22746741Y8800724D02*
X22746741Y8686439D01*
X22746741Y8686439D02*
X22708645Y8610248D01*
X22708645Y8610248D02*
X22670550Y8572153D01*
X22670550Y8572153D02*
X22594360Y8534058D01*
X22594360Y8534058D02*
X22289598Y8534058D01*
X23203883Y8153105D02*
X23127693Y8191200D01*
X23127693Y8191200D02*
X23089598Y8267391D01*
X23089598Y8267391D02*
X23089598Y8953105D01*
X23851503Y8686439D02*
X23851503Y8153105D01*
X23508646Y8686439D02*
X23508646Y8267391D01*
X23508646Y8267391D02*
X23546741Y8191200D01*
X23546741Y8191200D02*
X23622931Y8153105D01*
X23622931Y8153105D02*
X23737217Y8153105D01*
X23737217Y8153105D02*
X23813408Y8191200D01*
X23813408Y8191200D02*
X23851503Y8229296D01*
X24575313Y8686439D02*
X24575313Y8038820D01*
X24575313Y8038820D02*
X24537218Y7962629D01*
X24537218Y7962629D02*
X24499122Y7924534D01*
X24499122Y7924534D02*
X24422932Y7886439D01*
X24422932Y7886439D02*
X24308646Y7886439D01*
X24308646Y7886439D02*
X24232456Y7924534D01*
X24575313Y8191200D02*
X24499122Y8153105D01*
X24499122Y8153105D02*
X24346741Y8153105D01*
X24346741Y8153105D02*
X24270551Y8191200D01*
X24270551Y8191200D02*
X24232456Y8229296D01*
X24232456Y8229296D02*
X24194360Y8305486D01*
X24194360Y8305486D02*
X24194360Y8534058D01*
X24194360Y8534058D02*
X24232456Y8610248D01*
X24232456Y8610248D02*
X24270551Y8648343D01*
X24270551Y8648343D02*
X24346741Y8686439D01*
X24346741Y8686439D02*
X24499122Y8686439D01*
X24499122Y8686439D02*
X24575313Y8648343D01*
X24880075Y7886439D02*
X25070551Y7886439D01*
X25070551Y7886439D02*
X25070551Y9029296D01*
X25070551Y9029296D02*
X24880075Y9029296D01*
D12*
X891541Y14490181D02*
X1558207Y14490181D01*
X1558207Y14490181D02*
X891541Y13490181D01*
X891541Y13490181D02*
X1558207Y13490181D01*
X2320112Y13537800D02*
X2224874Y13490181D01*
X2224874Y13490181D02*
X2034398Y13490181D01*
X2034398Y13490181D02*
X1939160Y13537800D01*
X1939160Y13537800D02*
X1891541Y13633039D01*
X1891541Y13633039D02*
X1891541Y14013991D01*
X1891541Y14013991D02*
X1939160Y14109229D01*
X1939160Y14109229D02*
X2034398Y14156848D01*
X2034398Y14156848D02*
X2224874Y14156848D01*
X2224874Y14156848D02*
X2320112Y14109229D01*
X2320112Y14109229D02*
X2367731Y14013991D01*
X2367731Y14013991D02*
X2367731Y13918753D01*
X2367731Y13918753D02*
X1891541Y13823515D01*
X2796303Y13490181D02*
X2796303Y14156848D01*
X2796303Y13966372D02*
X2843922Y14061610D01*
X2843922Y14061610D02*
X2891541Y14109229D01*
X2891541Y14109229D02*
X2986779Y14156848D01*
X2986779Y14156848D02*
X3082017Y14156848D01*
X3558208Y13490181D02*
X3462970Y13537800D01*
X3462970Y13537800D02*
X3415351Y13585420D01*
X3415351Y13585420D02*
X3367732Y13680658D01*
X3367732Y13680658D02*
X3367732Y13966372D01*
X3367732Y13966372D02*
X3415351Y14061610D01*
X3415351Y14061610D02*
X3462970Y14109229D01*
X3462970Y14109229D02*
X3558208Y14156848D01*
X3558208Y14156848D02*
X3701065Y14156848D01*
X3701065Y14156848D02*
X3796303Y14109229D01*
X3796303Y14109229D02*
X3843922Y14061610D01*
X3843922Y14061610D02*
X3891541Y13966372D01*
X3891541Y13966372D02*
X3891541Y13680658D01*
X3891541Y13680658D02*
X3843922Y13585420D01*
X3843922Y13585420D02*
X3796303Y13537800D01*
X3796303Y13537800D02*
X3701065Y13490181D01*
X3701065Y13490181D02*
X3558208Y13490181D01*
X4177256Y14156848D02*
X4558208Y14156848D01*
X4320113Y14490181D02*
X4320113Y13633039D01*
X4320113Y13633039D02*
X4367732Y13537800D01*
X4367732Y13537800D02*
X4462970Y13490181D01*
X4462970Y13490181D02*
X4558208Y13490181D01*
X4891542Y13490181D02*
X4891542Y14490181D01*
X5320113Y13490181D02*
X5320113Y14013991D01*
X5320113Y14013991D02*
X5272494Y14109229D01*
X5272494Y14109229D02*
X5177256Y14156848D01*
X5177256Y14156848D02*
X5034399Y14156848D01*
X5034399Y14156848D02*
X4939161Y14109229D01*
X4939161Y14109229D02*
X4891542Y14061610D01*
X986779Y11880181D02*
X986779Y12880181D01*
X1462969Y11880181D02*
X1462969Y12880181D01*
X1462969Y12880181D02*
X1796302Y12165896D01*
X1796302Y12165896D02*
X2129635Y12880181D01*
X2129635Y12880181D02*
X2129635Y11880181D01*
X2605826Y12880181D02*
X2605826Y12070658D01*
X2605826Y12070658D02*
X2653445Y11975420D01*
X2653445Y11975420D02*
X2701064Y11927800D01*
X2701064Y11927800D02*
X2796302Y11880181D01*
X2796302Y11880181D02*
X2986778Y11880181D01*
X2986778Y11880181D02*
X3082016Y11927800D01*
X3082016Y11927800D02*
X3129635Y11975420D01*
X3129635Y11975420D02*
X3177254Y12070658D01*
X3177254Y12070658D02*
X3177254Y12880181D01*
X4415350Y11880181D02*
X4415350Y12880181D01*
X4415350Y12880181D02*
X4748683Y12165896D01*
X4748683Y12165896D02*
X5082016Y12880181D01*
X5082016Y12880181D02*
X5082016Y11880181D01*
X5701064Y11880181D02*
X5605826Y11927800D01*
X5605826Y11927800D02*
X5558207Y11975420D01*
X5558207Y11975420D02*
X5510588Y12070658D01*
X5510588Y12070658D02*
X5510588Y12356372D01*
X5510588Y12356372D02*
X5558207Y12451610D01*
X5558207Y12451610D02*
X5605826Y12499229D01*
X5605826Y12499229D02*
X5701064Y12546848D01*
X5701064Y12546848D02*
X5843921Y12546848D01*
X5843921Y12546848D02*
X5939159Y12499229D01*
X5939159Y12499229D02*
X5986778Y12451610D01*
X5986778Y12451610D02*
X6034397Y12356372D01*
X6034397Y12356372D02*
X6034397Y12070658D01*
X6034397Y12070658D02*
X5986778Y11975420D01*
X5986778Y11975420D02*
X5939159Y11927800D01*
X5939159Y11927800D02*
X5843921Y11880181D01*
X5843921Y11880181D02*
X5701064Y11880181D01*
X6891540Y12546848D02*
X6891540Y11880181D01*
X6462969Y12546848D02*
X6462969Y12023039D01*
X6462969Y12023039D02*
X6510588Y11927800D01*
X6510588Y11927800D02*
X6605826Y11880181D01*
X6605826Y11880181D02*
X6748683Y11880181D01*
X6748683Y11880181D02*
X6843921Y11927800D01*
X6843921Y11927800D02*
X6891540Y11975420D01*
X7367731Y12546848D02*
X7367731Y11880181D01*
X7367731Y12451610D02*
X7415350Y12499229D01*
X7415350Y12499229D02*
X7510588Y12546848D01*
X7510588Y12546848D02*
X7653445Y12546848D01*
X7653445Y12546848D02*
X7748683Y12499229D01*
X7748683Y12499229D02*
X7796302Y12403991D01*
X7796302Y12403991D02*
X7796302Y11880181D01*
X8129636Y12546848D02*
X8510588Y12546848D01*
X8272493Y12880181D02*
X8272493Y12023039D01*
X8272493Y12023039D02*
X8320112Y11927800D01*
X8320112Y11927800D02*
X8415350Y11880181D01*
X8415350Y11880181D02*
X8510588Y11880181D01*
D11*
X5284836Y8136439D02*
X5094360Y8136439D01*
X5094360Y8136439D02*
X5094360Y9279296D01*
X5094360Y9279296D02*
X5284836Y9279296D01*
X5589598Y8403105D02*
X5589598Y9203105D01*
X5589598Y9203105D02*
X5894360Y9203105D01*
X5894360Y9203105D02*
X5970550Y9165010D01*
X5970550Y9165010D02*
X6008645Y9126915D01*
X6008645Y9126915D02*
X6046741Y9050724D01*
X6046741Y9050724D02*
X6046741Y8936439D01*
X6046741Y8936439D02*
X6008645Y8860248D01*
X6008645Y8860248D02*
X5970550Y8822153D01*
X5970550Y8822153D02*
X5894360Y8784058D01*
X5894360Y8784058D02*
X5589598Y8784058D01*
X6503883Y8403105D02*
X6427693Y8441200D01*
X6427693Y8441200D02*
X6389598Y8517391D01*
X6389598Y8517391D02*
X6389598Y9203105D01*
X7151503Y8936439D02*
X7151503Y8403105D01*
X6808646Y8936439D02*
X6808646Y8517391D01*
X6808646Y8517391D02*
X6846741Y8441200D01*
X6846741Y8441200D02*
X6922931Y8403105D01*
X6922931Y8403105D02*
X7037217Y8403105D01*
X7037217Y8403105D02*
X7113408Y8441200D01*
X7113408Y8441200D02*
X7151503Y8479296D01*
X7875313Y8936439D02*
X7875313Y8288820D01*
X7875313Y8288820D02*
X7837218Y8212629D01*
X7837218Y8212629D02*
X7799122Y8174534D01*
X7799122Y8174534D02*
X7722932Y8136439D01*
X7722932Y8136439D02*
X7608646Y8136439D01*
X7608646Y8136439D02*
X7532456Y8174534D01*
X7875313Y8441200D02*
X7799122Y8403105D01*
X7799122Y8403105D02*
X7646741Y8403105D01*
X7646741Y8403105D02*
X7570551Y8441200D01*
X7570551Y8441200D02*
X7532456Y8479296D01*
X7532456Y8479296D02*
X7494360Y8555486D01*
X7494360Y8555486D02*
X7494360Y8784058D01*
X7494360Y8784058D02*
X7532456Y8860248D01*
X7532456Y8860248D02*
X7570551Y8898343D01*
X7570551Y8898343D02*
X7646741Y8936439D01*
X7646741Y8936439D02*
X7799122Y8936439D01*
X7799122Y8936439D02*
X7875313Y8898343D01*
X8180075Y8136439D02*
X8370551Y8136439D01*
X8370551Y8136439D02*
X8370551Y9279296D01*
X8370551Y9279296D02*
X8180075Y9279296D01*
X21856265Y6753105D02*
X21856265Y7553105D01*
X21856265Y7553105D02*
X22122931Y6981677D01*
X22122931Y6981677D02*
X22389598Y7553105D01*
X22389598Y7553105D02*
X22389598Y6753105D01*
X22770551Y6753105D02*
X22770551Y7286439D01*
X22770551Y7553105D02*
X22732455Y7515010D01*
X22732455Y7515010D02*
X22770551Y7476915D01*
X22770551Y7476915D02*
X22808646Y7515010D01*
X22808646Y7515010D02*
X22770551Y7553105D01*
X22770551Y7553105D02*
X22770551Y7476915D01*
X23265788Y6753105D02*
X23189598Y6791200D01*
X23189598Y6791200D02*
X23151503Y6867391D01*
X23151503Y6867391D02*
X23151503Y7553105D01*
X23570551Y6753105D02*
X23570551Y7553105D01*
X23646741Y7057867D02*
X23875313Y6753105D01*
X23875313Y7286439D02*
X23570551Y6981677D01*
X25437218Y7286439D02*
X24827694Y7057867D01*
X24827694Y7057867D02*
X25437218Y6829296D01*
X25818170Y7172153D02*
X26427694Y7172153D01*
X26427694Y6943581D02*
X25818170Y6943581D01*
X26808646Y7286439D02*
X27418170Y7057867D01*
X27418170Y7057867D02*
X26808646Y6829296D01*
X28408646Y6753105D02*
X28408646Y7553105D01*
X28751502Y7476915D02*
X28789598Y7515010D01*
X28789598Y7515010D02*
X28865788Y7553105D01*
X28865788Y7553105D02*
X29056264Y7553105D01*
X29056264Y7553105D02*
X29132455Y7515010D01*
X29132455Y7515010D02*
X29170550Y7476915D01*
X29170550Y7476915D02*
X29208645Y7400724D01*
X29208645Y7400724D02*
X29208645Y7324534D01*
X29208645Y7324534D02*
X29170550Y7210248D01*
X29170550Y7210248D02*
X28713407Y6753105D01*
X28713407Y6753105D02*
X29208645Y6753105D01*
X30008646Y6829296D02*
X29970550Y6791200D01*
X29970550Y6791200D02*
X29856265Y6753105D01*
X29856265Y6753105D02*
X29780074Y6753105D01*
X29780074Y6753105D02*
X29665788Y6791200D01*
X29665788Y6791200D02*
X29589598Y6867391D01*
X29589598Y6867391D02*
X29551503Y6943581D01*
X29551503Y6943581D02*
X29513407Y7095962D01*
X29513407Y7095962D02*
X29513407Y7210248D01*
X29513407Y7210248D02*
X29551503Y7362629D01*
X29551503Y7362629D02*
X29589598Y7438820D01*
X29589598Y7438820D02*
X29665788Y7515010D01*
X29665788Y7515010D02*
X29780074Y7553105D01*
X29780074Y7553105D02*
X29856265Y7553105D01*
X29856265Y7553105D02*
X29970550Y7515010D01*
X29970550Y7515010D02*
X30008646Y7476915D01*
X106265Y6853105D02*
X106265Y7653105D01*
X106265Y7653105D02*
X372931Y7081677D01*
X372931Y7081677D02*
X639598Y7653105D01*
X639598Y7653105D02*
X639598Y6853105D01*
X1020551Y6853105D02*
X1020551Y7386439D01*
X1020551Y7653105D02*
X982455Y7615010D01*
X982455Y7615010D02*
X1020551Y7576915D01*
X1020551Y7576915D02*
X1058646Y7615010D01*
X1058646Y7615010D02*
X1020551Y7653105D01*
X1020551Y7653105D02*
X1020551Y7576915D01*
X1744360Y6891200D02*
X1668169Y6853105D01*
X1668169Y6853105D02*
X1515788Y6853105D01*
X1515788Y6853105D02*
X1439598Y6891200D01*
X1439598Y6891200D02*
X1401503Y6929296D01*
X1401503Y6929296D02*
X1363407Y7005486D01*
X1363407Y7005486D02*
X1363407Y7234058D01*
X1363407Y7234058D02*
X1401503Y7310248D01*
X1401503Y7310248D02*
X1439598Y7348343D01*
X1439598Y7348343D02*
X1515788Y7386439D01*
X1515788Y7386439D02*
X1668169Y7386439D01*
X1668169Y7386439D02*
X1744360Y7348343D01*
X3306265Y7386439D02*
X2696741Y7157867D01*
X2696741Y7157867D02*
X3306265Y6929296D01*
X3687217Y7272153D02*
X4296741Y7272153D01*
X4296741Y7043581D02*
X3687217Y7043581D01*
X4677693Y7386439D02*
X5287217Y7157867D01*
X5287217Y7157867D02*
X4677693Y6929296D01*
X6277693Y6853105D02*
X6277693Y7653105D01*
X6277693Y7653105D02*
X6544359Y7081677D01*
X6544359Y7081677D02*
X6811026Y7653105D01*
X6811026Y7653105D02*
X6811026Y6853105D01*
X7191979Y6853105D02*
X7191979Y7386439D01*
X7191979Y7653105D02*
X7153883Y7615010D01*
X7153883Y7615010D02*
X7191979Y7576915D01*
X7191979Y7576915D02*
X7230074Y7615010D01*
X7230074Y7615010D02*
X7191979Y7653105D01*
X7191979Y7653105D02*
X7191979Y7576915D01*
X7687216Y6853105D02*
X7611026Y6891200D01*
X7611026Y6891200D02*
X7572931Y6967391D01*
X7572931Y6967391D02*
X7572931Y7653105D01*
X7991979Y6853105D02*
X7991979Y7653105D01*
X8068169Y7157867D02*
X8296741Y6853105D01*
X8296741Y7386439D02*
X7991979Y7081677D01*
D12*
X13136779Y19730181D02*
X13136779Y20730181D01*
X13136779Y20730181D02*
X13470112Y20015896D01*
X13470112Y20015896D02*
X13803445Y20730181D01*
X13803445Y20730181D02*
X13803445Y19730181D01*
X14279636Y19730181D02*
X14279636Y20396848D01*
X14279636Y20730181D02*
X14232017Y20682562D01*
X14232017Y20682562D02*
X14279636Y20634943D01*
X14279636Y20634943D02*
X14327255Y20682562D01*
X14327255Y20682562D02*
X14279636Y20730181D01*
X14279636Y20730181D02*
X14279636Y20634943D01*
X15184397Y19777800D02*
X15089159Y19730181D01*
X15089159Y19730181D02*
X14898683Y19730181D01*
X14898683Y19730181D02*
X14803445Y19777800D01*
X14803445Y19777800D02*
X14755826Y19825420D01*
X14755826Y19825420D02*
X14708207Y19920658D01*
X14708207Y19920658D02*
X14708207Y20206372D01*
X14708207Y20206372D02*
X14755826Y20301610D01*
X14755826Y20301610D02*
X14803445Y20349229D01*
X14803445Y20349229D02*
X14898683Y20396848D01*
X14898683Y20396848D02*
X15089159Y20396848D01*
X15089159Y20396848D02*
X15184397Y20349229D01*
X16374874Y19730181D02*
X16374874Y20730181D01*
X16803445Y19730181D02*
X16803445Y20253991D01*
X16803445Y20253991D02*
X16755826Y20349229D01*
X16755826Y20349229D02*
X16660588Y20396848D01*
X16660588Y20396848D02*
X16517731Y20396848D01*
X16517731Y20396848D02*
X16422493Y20349229D01*
X16422493Y20349229D02*
X16374874Y20301610D01*
X17660588Y19777800D02*
X17565350Y19730181D01*
X17565350Y19730181D02*
X17374874Y19730181D01*
X17374874Y19730181D02*
X17279636Y19777800D01*
X17279636Y19777800D02*
X17232017Y19873039D01*
X17232017Y19873039D02*
X17232017Y20253991D01*
X17232017Y20253991D02*
X17279636Y20349229D01*
X17279636Y20349229D02*
X17374874Y20396848D01*
X17374874Y20396848D02*
X17565350Y20396848D01*
X17565350Y20396848D02*
X17660588Y20349229D01*
X17660588Y20349229D02*
X17708207Y20253991D01*
X17708207Y20253991D02*
X17708207Y20158753D01*
X17708207Y20158753D02*
X17232017Y20063515D01*
X18136779Y19730181D02*
X18136779Y20396848D01*
X18136779Y20206372D02*
X18184398Y20301610D01*
X18184398Y20301610D02*
X18232017Y20349229D01*
X18232017Y20349229D02*
X18327255Y20396848D01*
X18327255Y20396848D02*
X18422493Y20396848D01*
X19136779Y19777800D02*
X19041541Y19730181D01*
X19041541Y19730181D02*
X18851065Y19730181D01*
X18851065Y19730181D02*
X18755827Y19777800D01*
X18755827Y19777800D02*
X18708208Y19873039D01*
X18708208Y19873039D02*
X18708208Y20253991D01*
X18708208Y20253991D02*
X18755827Y20349229D01*
X18755827Y20349229D02*
X18851065Y20396848D01*
X18851065Y20396848D02*
X19041541Y20396848D01*
X19041541Y20396848D02*
X19136779Y20349229D01*
X19136779Y20349229D02*
X19184398Y20253991D01*
X19184398Y20253991D02*
X19184398Y20158753D01*
X19184398Y20158753D02*
X18708208Y20063515D01*
X19612970Y19825420D02*
X19660589Y19777800D01*
X19660589Y19777800D02*
X19612970Y19730181D01*
X19612970Y19730181D02*
X19565351Y19777800D01*
X19565351Y19777800D02*
X19612970Y19825420D01*
X19612970Y19825420D02*
X19612970Y19730181D01*
X19612970Y20111134D02*
X19565351Y20682562D01*
X19565351Y20682562D02*
X19612970Y20730181D01*
X19612970Y20730181D02*
X19660589Y20682562D01*
X19660589Y20682562D02*
X19612970Y20111134D01*
X19612970Y20111134D02*
X19612970Y20730181D01*
X14786779Y14880181D02*
X14786779Y15880181D01*
X14786779Y15880181D02*
X15167731Y15880181D01*
X15167731Y15880181D02*
X15262969Y15832562D01*
X15262969Y15832562D02*
X15310588Y15784943D01*
X15310588Y15784943D02*
X15358207Y15689705D01*
X15358207Y15689705D02*
X15358207Y15546848D01*
X15358207Y15546848D02*
X15310588Y15451610D01*
X15310588Y15451610D02*
X15262969Y15403991D01*
X15262969Y15403991D02*
X15167731Y15356372D01*
X15167731Y15356372D02*
X14786779Y15356372D01*
X15929636Y14880181D02*
X15834398Y14927800D01*
X15834398Y14927800D02*
X15786779Y15023039D01*
X15786779Y15023039D02*
X15786779Y15880181D01*
X16739160Y15546848D02*
X16739160Y14880181D01*
X16310589Y15546848D02*
X16310589Y15023039D01*
X16310589Y15023039D02*
X16358208Y14927800D01*
X16358208Y14927800D02*
X16453446Y14880181D01*
X16453446Y14880181D02*
X16596303Y14880181D01*
X16596303Y14880181D02*
X16691541Y14927800D01*
X16691541Y14927800D02*
X16739160Y14975420D01*
X17643922Y15546848D02*
X17643922Y14737324D01*
X17643922Y14737324D02*
X17596303Y14642086D01*
X17596303Y14642086D02*
X17548684Y14594467D01*
X17548684Y14594467D02*
X17453446Y14546848D01*
X17453446Y14546848D02*
X17310589Y14546848D01*
X17310589Y14546848D02*
X17215351Y14594467D01*
X17643922Y14927800D02*
X17548684Y14880181D01*
X17548684Y14880181D02*
X17358208Y14880181D01*
X17358208Y14880181D02*
X17262970Y14927800D01*
X17262970Y14927800D02*
X17215351Y14975420D01*
X17215351Y14975420D02*
X17167732Y15070658D01*
X17167732Y15070658D02*
X17167732Y15356372D01*
X17167732Y15356372D02*
X17215351Y15451610D01*
X17215351Y15451610D02*
X17262970Y15499229D01*
X17262970Y15499229D02*
X17358208Y15546848D01*
X17358208Y15546848D02*
X17548684Y15546848D01*
X17548684Y15546848D02*
X17643922Y15499229D01*
X18120113Y14975420D02*
X18167732Y14927800D01*
X18167732Y14927800D02*
X18120113Y14880181D01*
X18120113Y14880181D02*
X18072494Y14927800D01*
X18072494Y14927800D02*
X18120113Y14975420D01*
X18120113Y14975420D02*
X18120113Y14880181D01*
X18120113Y15261134D02*
X18072494Y15832562D01*
X18072494Y15832562D02*
X18120113Y15880181D01*
X18120113Y15880181D02*
X18167732Y15832562D01*
X18167732Y15832562D02*
X18120113Y15261134D01*
X18120113Y15261134D02*
X18120113Y15880181D01*
D11*
X1413408Y10403105D02*
X1146741Y10784058D01*
X956265Y10403105D02*
X956265Y11203105D01*
X956265Y11203105D02*
X1261027Y11203105D01*
X1261027Y11203105D02*
X1337217Y11165010D01*
X1337217Y11165010D02*
X1375312Y11126915D01*
X1375312Y11126915D02*
X1413408Y11050724D01*
X1413408Y11050724D02*
X1413408Y10936439D01*
X1413408Y10936439D02*
X1375312Y10860248D01*
X1375312Y10860248D02*
X1337217Y10822153D01*
X1337217Y10822153D02*
X1261027Y10784058D01*
X1261027Y10784058D02*
X956265Y10784058D01*
X2061027Y10441200D02*
X1984836Y10403105D01*
X1984836Y10403105D02*
X1832455Y10403105D01*
X1832455Y10403105D02*
X1756265Y10441200D01*
X1756265Y10441200D02*
X1718169Y10517391D01*
X1718169Y10517391D02*
X1718169Y10822153D01*
X1718169Y10822153D02*
X1756265Y10898343D01*
X1756265Y10898343D02*
X1832455Y10936439D01*
X1832455Y10936439D02*
X1984836Y10936439D01*
X1984836Y10936439D02*
X2061027Y10898343D01*
X2061027Y10898343D02*
X2099122Y10822153D01*
X2099122Y10822153D02*
X2099122Y10745962D01*
X2099122Y10745962D02*
X1718169Y10669772D01*
X2365788Y10936439D02*
X2556264Y10403105D01*
X2556264Y10403105D02*
X2746741Y10936439D01*
X3622931Y10631677D02*
X4003884Y10631677D01*
X3546741Y10403105D02*
X3813408Y11203105D01*
X3813408Y11203105D02*
X4080074Y10403105D01*
D12*
X10916666Y2895181D02*
X10916666Y2180896D01*
X10916666Y2180896D02*
X10869047Y2038039D01*
X10869047Y2038039D02*
X10773809Y1942800D01*
X10773809Y1942800D02*
X10630952Y1895181D01*
X10630952Y1895181D02*
X10535714Y1895181D01*
X11821428Y2561848D02*
X11821428Y1895181D01*
X11583333Y2942800D02*
X11345238Y2228515D01*
X11345238Y2228515D02*
X11964285Y2228515D01*
X16066666Y14095181D02*
X16066666Y13380896D01*
X16066666Y13380896D02*
X16019047Y13238039D01*
X16019047Y13238039D02*
X15923809Y13142800D01*
X15923809Y13142800D02*
X15780952Y13095181D01*
X15780952Y13095181D02*
X15685714Y13095181D01*
X17019047Y14095181D02*
X16542857Y14095181D01*
X16542857Y14095181D02*
X16495238Y13618991D01*
X16495238Y13618991D02*
X16542857Y13666610D01*
X16542857Y13666610D02*
X16638095Y13714229D01*
X16638095Y13714229D02*
X16876190Y13714229D01*
X16876190Y13714229D02*
X16971428Y13666610D01*
X16971428Y13666610D02*
X17019047Y13618991D01*
X17019047Y13618991D02*
X17066666Y13523753D01*
X17066666Y13523753D02*
X17066666Y13285658D01*
X17066666Y13285658D02*
X17019047Y13190420D01*
X17019047Y13190420D02*
X16971428Y13142800D01*
X16971428Y13142800D02*
X16876190Y13095181D01*
X16876190Y13095181D02*
X16638095Y13095181D01*
X16638095Y13095181D02*
X16542857Y13142800D01*
X16542857Y13142800D02*
X16495238Y13190420D01*
X25366666Y5395181D02*
X25366666Y4680896D01*
X25366666Y4680896D02*
X25319047Y4538039D01*
X25319047Y4538039D02*
X25223809Y4442800D01*
X25223809Y4442800D02*
X25080952Y4395181D01*
X25080952Y4395181D02*
X24985714Y4395181D01*
X25747619Y5395181D02*
X26366666Y5395181D01*
X26366666Y5395181D02*
X26033333Y5014229D01*
X26033333Y5014229D02*
X26176190Y5014229D01*
X26176190Y5014229D02*
X26271428Y4966610D01*
X26271428Y4966610D02*
X26319047Y4918991D01*
X26319047Y4918991D02*
X26366666Y4823753D01*
X26366666Y4823753D02*
X26366666Y4585658D01*
X26366666Y4585658D02*
X26319047Y4490420D01*
X26319047Y4490420D02*
X26271428Y4442800D01*
X26271428Y4442800D02*
X26176190Y4395181D01*
X26176190Y4395181D02*
X25890476Y4395181D01*
X25890476Y4395181D02*
X25795238Y4442800D01*
X25795238Y4442800D02*
X25747619Y4490420D01*
D13*
X6298755Y6425006D02*
X6298755Y5856121D01*
X6298755Y6425006D02*
X8568860Y6425006D01*
X6298755Y1993840D02*
X6298755Y1424955D01*
X10031140Y6425006D02*
X10568860Y6425006D01*
X12031140Y6425006D02*
X12568860Y6425006D01*
X14031140Y6425006D02*
X16300025Y6425006D01*
X16299949Y1424955D02*
X6299975Y1424955D01*
X16300025Y6425006D02*
X16300025Y5856121D01*
X16300025Y1993840D02*
X16300025Y1424955D01*
D14*
X14329997Y6887490D02*
G75*
G03*
X14329997Y6887490I-29997J0D01*
G01*
D13*
X20160008Y9779997D02*
X20160008Y12320003D01*
X20160008Y9779997D02*
X12539992Y9779997D01*
X20160008Y12320003D02*
X12539992Y12320003D01*
X17571565Y9779997D02*
X17571565Y12320003D01*
X12539992Y9779997D02*
X12539992Y12320003D01*
D14*
X20189980Y12299936D02*
G75*
G03*
X20189980Y12299936I-29972J0D01*
G01*
D13*
X17100000Y5950102D02*
X17100000Y1449975D01*
X17100000Y1449975D02*
X27100000Y1449975D01*
X27100000Y5950102D02*
X17100000Y5950102D01*
X27100000Y1449975D02*
X27100000Y5950102D01*
X26745161Y2133998D02*
G75*
G03*
X26745161Y2133998I-359156J0D01*
G01*
D14*
X27256998Y6077102D02*
G75*
G03*
X27256998Y6077102I-29998J0D01*
G01*
M02*
